<svg width="529" height="62" viewBox="0 0 529 62" fill="none" xmlns="http://www.w3.org/2000/svg">
<path d="M1 11.6494V22.2988L8.84257 16.9484L16.7289 11.6494L8.84257 6.29893L1 0.999939V11.6494Z" stroke="#71C9BA" stroke-miterlimit="10"/>
<path d="M47.4857 11.6494V22.2988L55.3283 16.9484L63.2146 11.6494L55.3283 6.29893L47.4857 0.999939V11.6494Z" stroke="#71C9BA" stroke-miterlimit="10"/>
<path d="M93.9715 11.6494V22.2988L101.814 16.9484L109.657 11.6494L101.814 6.29893L93.9715 0.999939V11.6494Z" stroke="#71C9BA" stroke-miterlimit="10"/>
<path d="M140.414 11.6494V22.2988L148.3 16.9484L156.142 11.6494L148.3 6.29893L140.414 0.999939V11.6494Z" stroke="#71C9BA" stroke-miterlimit="10"/>
<path d="M186.899 11.6494V22.2988L194.786 16.9484L202.628 11.6494L194.786 6.29893L186.899 0.999939V11.6494Z" stroke="#71C9BA" stroke-miterlimit="10"/>
<path d="M233.385 11.6494V22.2988L241.228 16.9484L249.114 11.6494L241.228 6.29893L233.385 0.999939V11.6494Z" stroke="#71C9BA" stroke-miterlimit="10"/>
<path d="M279.871 11.6494V22.2988L287.713 16.9484L295.556 11.6494L287.713 6.29893L279.871 0.999939V11.6494Z" stroke="#71C9BA" stroke-miterlimit="10"/>
<path d="M326.313 11.6494V22.2988L334.199 16.9484L342.042 11.6494L334.199 6.29893L326.313 0.999939V11.6494Z" stroke="#71C9BA" stroke-miterlimit="10"/>
<path d="M372.798 11.6494V22.2988L380.685 16.9484L388.527 11.6494L380.685 6.29893L372.798 0.999939V11.6494Z" stroke="#71C9BA" stroke-miterlimit="10"/>
<path d="M419.284 11.6494V22.2988L427.127 16.9484L435.013 11.6494L427.127 6.29893L419.284 0.999939V11.6494Z" stroke="#71C9BA" stroke-miterlimit="10"/>
<path d="M465.77 11.6494V22.2988L473.613 16.9484L481.499 11.6494L473.613 6.29893L465.77 0.999939V11.6494Z" stroke="#71C9BA" stroke-miterlimit="10"/>
<path d="M512.212 11.6494V22.2988L520.098 16.9484L527.941 11.6494L520.098 6.29893L512.212 0.999939V11.6494Z" stroke="#71C9BA" stroke-miterlimit="10"/>
<path d="M1 49.6494V60.2988L8.84257 54.9484L16.7289 49.6494L8.84257 44.2989L1 38.9999V49.6494Z" stroke="#71C9BA" stroke-miterlimit="10"/>
<path d="M47.4857 49.6494V60.2988L55.3283 54.9484L63.2146 49.6494L55.3283 44.2989L47.4857 38.9999V49.6494Z" stroke="#71C9BA" stroke-miterlimit="10"/>
<path d="M93.9715 49.6494V60.2988L101.814 54.9484L109.657 49.6494L101.814 44.2989L93.9715 38.9999V49.6494Z" stroke="#71C9BA" stroke-miterlimit="10"/>
<path d="M140.414 49.6494V60.2988L148.3 54.9484L156.142 49.6494L148.3 44.2989L140.414 38.9999V49.6494Z" stroke="#71C9BA" stroke-miterlimit="10"/>
<path d="M186.899 49.6494V60.2988L194.786 54.9484L202.628 49.6494L194.786 44.2989L186.899 38.9999V49.6494Z" stroke="#71C9BA" stroke-miterlimit="10"/>
<path d="M233.385 49.6494V60.2988L241.228 54.9484L249.114 49.6494L241.228 44.2989L233.385 38.9999V49.6494Z" stroke="#71C9BA" stroke-miterlimit="10"/>
<path d="M279.871 49.6494V60.2988L287.713 54.9484L295.556 49.6494L287.713 44.2989L279.871 38.9999V49.6494Z" stroke="#71C9BA" stroke-miterlimit="10"/>
<path d="M326.313 49.6494V60.2988L334.199 54.9484L342.042 49.6494L334.199 44.2989L326.313 38.9999V49.6494Z" stroke="#71C9BA" stroke-miterlimit="10"/>
<path d="M372.798 49.6494V60.2988L380.685 54.9484L388.527 49.6494L380.685 44.2989L372.798 38.9999V49.6494Z" stroke="#71C9BA" stroke-miterlimit="10"/>
<path d="M419.284 49.6494V60.2988L427.127 54.9484L435.013 49.6494L427.127 44.2989L419.284 38.9999V49.6494Z" stroke="#71C9BA" stroke-miterlimit="10"/>
<path d="M465.77 49.6494V60.2988L473.613 54.9484L481.499 49.6494L473.613 44.2989L465.77 38.9999V49.6494Z" stroke="#71C9BA" stroke-miterlimit="10"/>
<path d="M512.212 49.6494V60.2988L520.098 54.9484L527.941 49.6494L520.098 44.2989L512.212 38.9999V49.6494Z" stroke="#71C9BA" stroke-miterlimit="10"/>
</svg>
