<svg width="901" height="21" viewBox="0 0 901 21" fill="none" xmlns="http://www.w3.org/2000/svg">
<path d="M1 10.0693V19.1387L8.84256 14.5821L16.7289 10.0693L8.84256 5.51278L1 1.00003V10.0693Z" stroke="#71C9BA" stroke-miterlimit="10"/>
<path d="M47.4857 10.0693V19.1387L55.3283 14.5821L63.2146 10.0693L55.3283 5.51278L47.4857 1.00003V10.0693Z" stroke="#71C9BA" stroke-miterlimit="10"/>
<path d="M93.9715 10.0693V19.1387L101.814 14.5821L109.657 10.0693L101.814 5.51278L93.9715 1.00003V10.0693Z" stroke="#71C9BA" stroke-miterlimit="10"/>
<path d="M140.414 10.0693V19.1387L148.3 14.5821L156.142 10.0693L148.3 5.51278L140.414 1.00003V10.0693Z" stroke="#71C9BA" stroke-miterlimit="10"/>
<path d="M186.899 10.0693V19.1387L194.786 14.5821L202.628 10.0693L194.786 5.51278L186.899 1.00003V10.0693Z" stroke="#71C9BA" stroke-miterlimit="10"/>
<path d="M233.385 10.0693V19.1387L241.228 14.5821L249.114 10.0693L241.228 5.51278L233.385 1.00003V10.0693Z" stroke="#71C9BA" stroke-miterlimit="10"/>
<path d="M279.871 10.0693V19.1387L287.713 14.5821L295.556 10.0693L287.713 5.51278L279.871 1.00003V10.0693Z" stroke="#71C9BA" stroke-miterlimit="10"/>
<path d="M326.313 10.0693V19.1387L334.199 14.5821L342.042 10.0693L334.199 5.51278L326.313 1.00003V10.0693Z" stroke="#71C9BA" stroke-miterlimit="10"/>
<path d="M372.798 10.0693V19.1387L380.685 14.5821L388.527 10.0693L380.685 5.51278L372.798 1.00003V10.0693Z" stroke="#71C9BA" stroke-miterlimit="10"/>
<path d="M419.284 10.0693V19.1387L427.127 14.5821L435.013 10.0693L427.127 5.51278L419.284 1.00003V10.0693Z" stroke="#71C9BA" stroke-miterlimit="10"/>
<path d="M465.77 10.0693V19.1387L473.613 14.5821L481.499 10.0693L473.613 5.51278L465.77 1.00003V10.0693Z" stroke="#71C9BA" stroke-miterlimit="10"/>
<path d="M512.212 10.0693V19.1387L520.098 14.5821L527.941 10.0693L520.098 5.51278L512.212 1.00003V10.0693Z" stroke="#71C9BA" stroke-miterlimit="10"/>
<path d="M558.698 10.0693V19.1387L566.584 14.5821L574.427 10.0693L566.584 5.51278L558.698 1.00003V10.0693Z" stroke="#71C9BA" stroke-miterlimit="10"/>
<path d="M605.184 10.0693V19.1387L613.026 14.5821L620.913 10.0693L613.026 5.51278L605.184 1.00003V10.0693Z" stroke="#71C9BA" stroke-miterlimit="10"/>
<path d="M651.669 10.0693V19.1387L659.512 14.5821L667.354 10.0693L659.512 5.51278L651.669 1.00003V10.0693Z" stroke="#71C9BA" stroke-miterlimit="10"/>
<path d="M698.111 10.0693V19.1387L705.998 14.5821L713.84 10.0693L705.998 5.51278L698.111 1.00003V10.0693Z" stroke="#71C9BA" stroke-miterlimit="10"/>
<path d="M744.597 10.0693V19.1387L752.483 14.5821L760.326 10.0693L752.483 5.51278L744.597 1.00003V10.0693Z" stroke="#71C9BA" stroke-miterlimit="10"/>
<path d="M791.083 10.0693V19.1387L798.925 14.5821L806.812 10.0693L798.925 5.51278L791.083 1.00003V10.0693Z" stroke="#71C9BA" stroke-miterlimit="10"/>
<path d="M837.569 10.0693V19.1387L845.411 14.5821L853.297 10.0693L845.411 5.51278L837.569 1.00003V10.0693Z" stroke="#71C9BA" stroke-miterlimit="10"/>
<path d="M884.01 10.0693V19.1387L891.897 14.5821L899.739 10.0693L891.897 5.51278L884.01 1.00003V10.0693Z" stroke="#71C9BA" stroke-miterlimit="10"/>
</svg>
