<svg width="168" height="329" viewBox="0 0 168 329" fill="none" xmlns="http://www.w3.org/2000/svg">
<path d="M52.8615 217.771C52.969 217.594 53.0537 217.404 53.1136 217.205C53.1594 217.059 53.1917 216.909 53.21 216.756L53.3575 216.082L53.2094 216.03C52.8714 213.282 48.9825 209.683 43.2956 207.169C36.4319 204.154 29.5024 203.866 27.6208 206.469L27.4164 206.389L27.2169 207.353L27.1863 207.497C27.1503 207.741 27.1447 207.988 27.1697 208.233C27.431 210.997 31.3417 214.645 37.0803 217.167C44.0715 220.277 51.1328 220.524 52.8615 217.771Z" fill="#FDA212"/>
<path d="M43.5168 206.137C50.508 209.208 54.7815 213.949 53.0631 216.72C51.3448 219.491 44.3156 219.231 37.3015 216.174C30.2874 213.117 26.0391 208.353 27.7482 205.58C29.4574 202.807 36.5278 203.057 43.5168 206.137Z" fill="#FDB73E"/>
<path d="M37.8055 215.417C40.4982 216.642 43.3854 217.383 46.3349 217.607C48.9675 217.738 50.8242 217.165 51.5727 216.01C51.7605 215.698 51.8757 215.348 51.9098 214.985C51.9439 214.623 51.8959 214.257 51.7695 213.915C51.0493 211.569 47.6774 208.775 43.1766 206.804C40.4817 205.58 37.5926 204.84 34.6414 204.617C32.0088 204.487 30.1613 205.062 29.4094 206.211C29.2234 206.523 29.1092 206.874 29.0751 207.236C29.0411 207.598 29.088 207.964 29.2126 208.306C29.3583 208.757 29.565 209.187 29.827 209.583C31.1383 211.628 34.1004 213.793 37.8055 215.417ZM51.3213 214.014C51.4239 214.292 51.4637 214.589 51.4379 214.884C51.412 215.179 51.3211 215.465 51.1717 215.721C50.5376 216.728 48.7897 217.236 46.3682 217.119C43.4843 216.89 40.6629 216.157 38.0326 214.952C34.4423 213.376 31.5227 211.216 30.2586 209.276C30.0185 208.922 29.8302 208.536 29.6996 208.129C29.5966 207.852 29.5561 207.556 29.581 207.261C29.6059 206.967 29.6955 206.681 29.8435 206.425C30.4776 205.418 32.2312 204.907 34.647 205.028C37.5409 205.25 40.3733 205.979 43.0146 207.182C46.6015 208.753 49.5268 210.909 50.7943 212.855C51.0219 213.216 51.1992 213.605 51.3213 214.014Z" fill="#FDA212"/>
<path d="M107.862 294.577C107.969 294.399 108.054 294.209 108.114 294.011C108.159 293.864 108.192 293.714 108.21 293.562L108.358 292.887L108.209 292.836C107.871 290.087 103.983 286.489 98.2956 283.975C91.4319 280.96 84.5024 280.671 82.6208 283.275L82.4164 283.195L82.2169 284.159L82.1863 284.302C82.1503 284.546 82.1447 284.794 82.1697 285.039C82.431 287.803 86.3417 291.45 92.0803 293.972C99.0715 297.082 106.133 297.33 107.862 294.577Z" fill="#FDA212"/>
<path d="M98.5168 282.943C105.508 286.014 109.781 290.755 108.063 293.526C106.345 296.296 99.3156 296.037 92.3015 292.98C85.2874 289.923 81.0391 285.158 82.7482 282.385C84.4574 279.613 91.5278 279.863 98.5168 282.943Z" fill="#FDB73E"/>
<path d="M92.8055 292.223C95.4982 293.448 98.3854 294.189 101.335 294.413C103.968 294.543 105.824 293.97 106.573 292.816C106.761 292.504 106.876 292.153 106.91 291.791C106.944 291.428 106.896 291.063 106.769 290.721C106.049 288.375 102.677 285.581 98.1766 283.609C95.4817 282.385 92.5926 281.645 89.6414 281.423C87.0088 281.292 85.1613 281.868 84.4094 283.016C84.2234 283.329 84.1092 283.679 84.0751 284.042C84.0411 284.404 84.088 284.769 84.2126 285.111C84.3583 285.563 84.565 285.993 84.827 286.389C86.1383 288.433 89.1004 290.599 92.8055 292.223ZM106.321 290.819C106.424 291.097 106.464 291.395 106.438 291.69C106.412 291.985 106.321 292.271 106.172 292.527C105.538 293.534 103.79 294.041 101.368 293.924C98.4843 293.696 95.6629 292.963 93.0326 291.758C89.4423 290.182 86.5227 288.022 85.2586 286.082C85.0185 285.728 84.8302 285.342 84.6996 284.935C84.5966 284.658 84.5561 284.361 84.581 284.067C84.6059 283.772 84.6955 283.487 84.8435 283.231C85.4776 282.224 87.2312 281.713 89.647 281.833C92.5409 282.055 95.3733 282.785 98.0146 283.988C101.602 285.558 104.527 287.715 105.794 289.661C106.022 290.021 106.199 290.411 106.321 290.819Z" fill="#FDA212"/>
<path d="M133.59 26.83C133.525 26.5416 133.424 26.2624 133.289 25.9992C133.192 25.8036 133.076 25.6174 132.945 25.4428L132.429 24.6037L132.226 24.6974C129.161 22.2077 121.607 22.3556 113.278 25.3958C103.245 29.085 95.8408 35.6406 96.4818 40.1759L96.1929 40.296L96.9411 41.4837L97.0515 41.6613C97.2556 41.9475 97.4945 42.2071 97.7626 42.4344C100.764 45.0156 108.389 44.8966 116.778 41.8135C127.036 38.0957 134.536 31.3682 133.59 26.83Z" fill="#FDA212"/>
<path d="M112.485 24.1164C122.705 20.3586 131.784 21.0044 132.758 25.55C133.732 30.0956 126.253 36.7795 116.024 40.5741C105.795 44.3687 96.7193 43.6744 95.7336 39.1355C94.7478 34.5967 102.259 27.8625 112.485 24.1164Z" fill="#FDB73E"/>
<path d="M115.793 39.2986C119.771 37.8945 123.47 35.8012 126.722 33.1147C129.556 30.6458 130.897 28.2211 130.524 26.2948C130.409 25.7885 130.181 25.3147 129.857 24.9084C129.534 24.5021 129.123 24.1738 128.655 23.9479C125.595 22.2493 119.369 22.7133 112.795 25.1377C108.816 26.545 105.116 28.6413 101.863 31.3308C99.0296 33.7998 97.7004 36.2178 98.0637 38.1415C98.1818 38.6468 98.4108 39.1195 98.7341 39.5254C99.0573 39.9313 99.4669 40.2603 99.9329 40.4885C100.529 40.8086 101.167 41.0458 101.827 41.1936C105.196 41.9975 110.381 41.2938 115.793 39.2986ZM128.292 24.4923C128.672 24.6763 129.007 24.9424 129.272 25.2712C129.538 25.6 129.727 25.9835 129.826 26.3941C130.171 28.0562 128.877 30.3059 126.273 32.5798C123.084 35.1967 119.461 37.2331 115.567 38.5962C110.32 40.5272 105.184 41.1947 101.967 40.4511C101.371 40.3252 100.795 40.1146 100.259 39.8255C99.879 39.6427 99.5443 39.3782 99.2786 39.051C99.013 38.7238 98.8229 38.342 98.7219 37.9329C98.3773 36.2708 99.6738 34.0119 102.275 31.7472C105.468 29.1138 109.099 27.0625 113.003 25.6872C118.241 23.7538 123.379 23.077 126.605 23.8231C127.195 23.9683 127.763 24.1935 128.292 24.4923Z" fill="#FDA212"/>
<path d="M69.7876 117.583C69.915 117.316 70.0082 117.034 70.0651 116.744C70.1093 116.53 70.1338 116.312 70.1383 116.094L70.2519 115.116L70.0345 115.064C69.1651 111.212 63.1372 106.657 54.7118 103.896C44.5456 100.591 34.6727 101.165 32.372 105.125L32.0708 105.041L31.9243 106.437L31.9012 106.645C31.8847 106.996 31.9119 107.348 31.9821 107.692C32.7446 111.577 38.8106 116.198 47.3104 118.963C57.671 122.384 67.7251 121.735 69.7876 117.583Z" fill="#FDA212"/>
<path d="M54.8794 102.401C65.2344 105.767 71.9701 111.888 69.9247 116.063C67.8794 120.238 57.8692 120.866 47.4837 117.523C37.0982 114.18 30.3949 108.022 32.4269 103.845C34.4589 99.6688 44.5264 99.0213 54.8794 102.401Z" fill="#FDB73E"/>
<path d="M48.0914 116.377C52.0857 117.733 56.2873 118.376 60.504 118.275C64.2578 118.087 66.811 117.011 67.7093 115.267C67.9316 114.797 68.0454 114.284 68.0424 113.764C68.0393 113.245 67.9194 112.733 67.6916 112.266C66.3371 109.039 61.1568 105.554 54.4911 103.394C50.494 102.039 46.2898 101.399 42.0709 101.502C38.3171 101.69 35.7773 102.768 34.8733 104.505C34.6536 104.975 34.5413 105.488 34.5443 106.007C34.5474 106.526 34.6658 107.037 34.891 107.505C35.1618 108.125 35.516 108.706 35.9439 109.23C38.0943 111.945 42.6041 114.598 48.0914 116.377ZM67.0696 112.47C67.2546 112.849 67.3533 113.266 67.3584 113.688C67.3636 114.11 67.2751 114.529 67.0994 114.913C66.3424 116.432 63.9343 117.4 60.4819 117.577C56.3577 117.662 52.2506 117.022 48.3477 115.685C43.0301 113.958 38.5813 111.307 36.5128 108.733C36.1219 108.266 35.8 107.744 35.557 107.185C35.3716 106.807 35.2721 106.392 35.2656 105.971C35.2592 105.549 35.3459 105.132 35.5196 104.748C36.2765 103.228 38.6922 102.255 42.137 102.083C46.2746 101.988 50.3967 102.621 54.3151 103.954C59.627 105.674 64.0834 108.319 66.1577 110.901C66.5316 111.38 66.8384 111.908 67.0696 112.47Z" fill="#FDA212"/>
</svg>
