<svg width="303" height="521" viewBox="0 0 303 521" fill="none" xmlns="http://www.w3.org/2000/svg">
<path d="M127.237 42.4746C127.449 42.0714 127.71 41.6965 128.016 41.3588C128.239 41.1068 128.485 40.8758 128.75 40.6687L129.851 39.6263L130.116 39.8465C135.666 37.3652 146.841 40.5953 158.016 48.4355C171.467 57.9202 179.867 70.6202 177.106 77.1097L177.488 77.4033L175.902 78.8715L175.667 79.0917C175.249 79.4359 174.79 79.7269 174.301 79.958C168.809 82.6008 157.517 79.3854 146.268 71.4571C132.494 61.8403 124.022 48.8466 127.237 42.4746Z" fill="#FDA212"/>
<path d="M159.705 46.85C146.004 37.1892 132.245 34.5318 128.985 40.9038C125.725 47.2758 134.183 60.1961 147.884 69.9156C161.584 79.6352 175.358 82.2192 178.633 75.8619C181.908 69.5045 173.42 56.4962 159.705 46.85Z" fill="#FDB73E"/>
<path d="M148.735 68.1095C143.38 64.4363 138.712 59.8491 134.947 54.558C131.716 49.7569 130.688 45.6166 132.01 42.9004C132.383 42.1934 132.911 41.5795 133.555 41.1043C134.198 40.629 134.939 40.3045 135.725 40.1548C140.953 38.8481 150.028 42.0194 158.838 48.2447C164.195 51.923 168.862 56.5151 172.627 61.8109C175.858 66.612 176.871 70.7376 175.564 73.4538C175.187 74.1582 174.658 74.77 174.016 75.2448C173.373 75.7197 172.633 76.0457 171.849 76.1994C170.834 76.4377 169.792 76.5365 168.75 76.493C163.42 76.3462 155.99 73.2336 148.735 68.1095ZM136.048 41.1092C135.409 41.2314 134.805 41.4936 134.28 41.8769C133.754 42.2602 133.32 42.7551 133.008 43.3262C131.834 45.6606 132.862 49.522 135.828 53.9413C139.527 59.1039 144.105 63.5765 149.352 67.1552C156.386 72.1177 163.758 75.1569 168.839 75.3331C169.776 75.3836 170.715 75.2995 171.629 75.0835C172.266 74.9629 172.869 74.703 173.395 74.3223C173.92 73.9416 174.355 73.4495 174.668 72.8812C175.843 70.5468 174.815 66.6707 171.849 62.2661C168.15 57.0773 163.567 52.5797 158.31 48.9788C151.291 44.0162 143.919 40.9623 138.823 40.7861C137.888 40.767 136.954 40.8757 136.048 41.1092Z" fill="#FDA212"/>
<path d="M197.018 445.084C196.782 444.695 196.597 444.278 196.465 443.842C196.364 443.52 196.294 443.191 196.253 442.857L195.93 441.375L196.255 441.262C196.997 435.228 205.535 427.327 218.02 421.808C233.089 415.189 248.302 414.556 252.433 420.271L252.882 420.096L253.32 422.213L253.387 422.527C253.466 423.063 253.478 423.606 253.423 424.144C252.85 430.212 244.264 438.221 231.665 443.758C216.316 450.585 200.814 451.129 197.018 445.084Z" fill="#FDA212"/>
<path d="M217.534 419.543C202.185 426.285 192.803 436.694 196.576 442.777C200.348 448.859 215.78 448.29 231.18 441.578C246.579 434.867 255.905 424.407 252.153 418.319C248.401 412.231 232.878 412.781 217.534 419.543Z" fill="#FDB73E"/>
<path d="M230.073 439.916C224.161 442.605 217.823 444.233 211.347 444.724C205.567 445.011 201.491 443.752 199.848 441.218C199.435 440.533 199.182 439.764 199.108 438.967C199.033 438.171 199.138 437.368 199.416 436.618C200.997 431.467 208.4 425.334 218.281 421.005C224.197 418.318 230.54 416.693 237.019 416.205C242.799 415.918 246.855 417.182 248.506 419.704C248.914 420.39 249.165 421.159 249.24 421.955C249.315 422.75 249.212 423.552 248.938 424.303C248.618 425.295 248.164 426.239 247.589 427.108C244.71 431.596 238.207 436.351 230.073 439.916ZM200.4 436.835C200.174 437.445 200.087 438.098 200.144 438.746C200.201 439.394 200.4 440.021 200.728 440.583C202.12 442.794 205.958 443.909 211.274 443.651C217.605 443.15 223.8 441.54 229.574 438.895C237.457 435.435 243.866 430.693 246.642 426.433C247.169 425.657 247.582 424.809 247.869 423.915C248.095 423.307 248.184 422.656 248.129 422.01C248.075 421.363 247.878 420.737 247.553 420.175C246.161 417.963 242.311 416.841 237.007 417.106C230.654 417.594 224.435 419.195 218.637 421.837C210.762 425.284 204.339 430.019 201.557 434.291C201.057 435.083 200.668 435.938 200.4 436.835Z" fill="#FDA212"/>
<path d="M41.231 310.931C41.0643 310.656 40.9329 310.361 40.84 310.053C40.769 309.826 40.7189 309.593 40.6905 309.357L40.4617 308.311L40.6914 308.231C41.2157 303.968 47.2469 298.387 56.0668 294.488C66.7118 289.812 77.4588 289.365 80.377 293.403L80.6939 293.279L81.0034 294.774L81.0509 294.996C81.1067 295.375 81.1153 295.758 81.0766 296.138C80.6714 300.425 74.6062 306.082 65.7062 309.994C54.8634 314.817 43.9121 315.201 41.231 310.931Z" fill="#FDA212"/>
<path d="M55.7237 292.888C44.881 297.65 38.2533 305.004 40.9183 309.3C43.5833 313.597 54.4848 313.195 65.3631 308.454C76.2413 303.713 82.83 296.324 80.1793 292.023C77.5285 287.723 66.5629 288.111 55.7237 292.888Z" fill="#FDB73E"/>
<path d="M64.5813 307.28C60.4052 309.179 55.9274 310.329 51.353 310.676C47.2701 310.879 44.3905 309.99 43.2297 308.199C42.9384 307.715 42.7597 307.172 42.7068 306.609C42.654 306.047 42.7284 305.48 42.9245 304.95C44.0414 301.311 49.2709 296.979 56.2513 293.921C60.4307 292.022 64.9115 290.875 69.4885 290.53C73.5714 290.327 76.4367 291.22 77.6029 293.001C77.8914 293.486 78.0685 294.029 78.1213 294.591C78.1741 295.153 78.1013 295.72 77.9081 296.25C77.6821 296.951 77.3615 297.618 76.9552 298.232C74.9215 301.402 70.3277 304.761 64.5813 307.28ZM43.6196 305.103C43.4604 305.534 43.3986 305.995 43.4388 306.453C43.4789 306.911 43.6199 307.354 43.8516 307.75C44.8351 309.313 47.5459 310.1 51.3014 309.918C55.774 309.564 60.1498 308.427 64.2291 306.558C69.7973 304.114 74.3254 300.764 76.2858 297.755C76.6583 297.207 76.9502 296.608 77.1528 295.976C77.3125 295.547 77.3753 295.087 77.3367 294.63C77.2982 294.173 77.1592 293.731 76.9297 293.334C75.9462 291.772 73.2265 290.979 69.4799 291.166C64.9917 291.511 60.5989 292.642 56.5024 294.508C50.9395 296.943 46.4026 300.288 44.4369 303.306C44.084 303.865 43.809 304.47 43.6196 305.103Z" fill="#FDA212"/>
<path d="M106.803 171.018C106.897 170.71 107.029 170.416 107.196 170.141C107.318 169.937 107.458 169.744 107.615 169.565L108.242 168.697L108.454 168.815C111.979 166.36 120.16 167.128 128.95 171.095C139.536 175.904 147.04 183.609 145.98 188.477L146.284 188.631L145.377 189.859L145.243 190.043C144.998 190.337 144.718 190.599 144.409 190.824C140.946 193.382 132.686 192.64 123.833 188.622C113.006 183.764 105.412 175.864 106.803 171.018Z" fill="#FDA212"/>
<path d="M129.913 169.772C119.13 164.874 109.231 164.845 107.809 169.697C106.387 174.549 113.961 182.4 124.751 187.338C135.541 192.277 145.441 192.253 146.875 187.409C148.309 182.565 140.703 174.657 129.913 169.772Z" fill="#FDB73E"/>
<path d="M125.104 185.973C120.903 184.13 117.058 181.562 113.747 178.386C110.872 175.481 109.613 172.743 110.172 170.683C110.338 170.144 110.623 169.648 111.007 169.233C111.39 168.819 111.862 168.496 112.388 168.288C115.843 166.692 122.56 167.696 129.495 170.854C133.698 172.7 137.543 175.271 140.854 178.45C143.729 181.356 144.977 184.085 144.428 186.143C144.259 186.681 143.973 187.176 143.59 187.59C143.206 188.004 142.736 188.328 142.212 188.538C141.539 188.838 140.829 189.044 140.1 189.151C136.381 189.752 130.814 188.572 125.104 185.973ZM112.738 168.908C112.31 169.077 111.926 169.338 111.612 169.674C111.298 170.009 111.062 170.41 110.921 170.847C110.413 172.622 111.636 175.167 114.277 177.842C117.526 180.937 121.293 183.437 125.406 185.229C130.942 187.745 136.459 188.882 140.008 188.334C140.665 188.246 141.306 188.063 141.912 187.793C142.338 187.625 142.723 187.365 143.037 187.032C143.351 186.698 143.588 186.299 143.731 185.864C144.238 184.089 143.013 181.534 140.374 178.869C137.123 175.756 133.349 173.239 129.225 171.433C123.699 168.915 118.181 167.768 114.621 168.318C113.97 168.428 113.336 168.626 112.738 168.908Z" fill="#FDA212"/>
</svg>
