<svg width="168" height="329" viewBox="0 0 168 329" fill="none" xmlns="http://www.w3.org/2000/svg">
<path d="M114.585 217.771C114.478 217.594 114.393 217.404 114.333 217.205C114.287 217.059 114.255 216.909 114.236 216.756L114.089 216.082L114.237 216.03C114.575 213.282 118.464 209.683 124.151 207.169C131.015 204.154 137.944 203.866 139.826 206.469L140.03 206.389L140.23 207.353L140.26 207.497C140.296 207.741 140.302 207.988 140.277 208.233C140.016 210.997 136.105 214.645 130.366 217.167C123.375 220.277 116.314 220.524 114.585 217.771Z" fill="#FDA212"/>
<path d="M123.93 206.137C116.939 209.208 112.665 213.949 114.383 216.72C116.102 219.491 123.131 219.231 130.145 216.174C137.159 213.117 141.407 208.353 139.698 205.58C137.989 202.807 130.919 203.057 123.93 206.137Z" fill="#FDB73E"/>
<path d="M129.641 215.417C126.948 216.642 124.061 217.383 121.111 217.607C118.479 217.738 116.622 217.165 115.874 216.01C115.686 215.698 115.571 215.348 115.537 214.985C115.503 214.623 115.55 214.257 115.677 213.915C116.397 211.569 119.769 208.775 124.27 206.804C126.965 205.58 129.854 204.84 132.805 204.617C135.438 204.487 137.285 205.062 138.037 206.211C138.223 206.523 138.337 206.874 138.371 207.236C138.405 207.598 138.358 207.964 138.234 208.306C138.088 208.757 137.881 209.187 137.619 209.583C136.308 211.628 133.346 213.793 129.641 215.417ZM116.125 214.014C116.022 214.292 115.983 214.589 116.009 214.884C116.034 215.179 116.125 215.465 116.275 215.721C116.909 216.728 118.657 217.236 121.078 217.119C123.962 216.89 126.784 216.157 129.414 214.952C133.004 213.376 135.924 211.216 137.188 209.276C137.428 208.922 137.616 208.536 137.747 208.129C137.85 207.852 137.89 207.556 137.865 207.261C137.841 206.967 137.751 206.681 137.603 206.425C136.969 205.418 135.215 204.907 132.799 205.028C129.906 205.25 127.073 205.979 124.432 207.182C120.845 208.753 117.92 210.909 116.652 212.855C116.425 213.216 116.247 213.605 116.125 214.014Z" fill="#FDA212"/>
<path d="M97.6591 117.583C97.5318 117.316 97.4386 117.034 97.3817 116.744C97.3375 116.53 97.313 116.312 97.3085 116.094L97.1949 115.116L97.4123 115.064C98.2817 111.212 104.31 106.657 112.735 103.896C122.901 100.591 132.774 101.165 135.075 105.125L135.376 105.041L135.522 106.437L135.546 106.645C135.562 106.996 135.535 107.348 135.465 107.692C134.702 111.577 128.636 116.198 120.136 118.963C109.776 122.384 99.7216 121.735 97.6591 117.583Z" fill="#FDA212"/>
<path d="M112.567 102.401C102.212 105.767 95.4764 111.888 97.5218 116.063C99.5671 120.238 109.577 120.866 119.963 117.523C130.348 114.18 137.052 108.022 135.02 103.845C132.988 99.6688 122.92 99.0213 112.567 102.401Z" fill="#FDB73E"/>
<path d="M119.355 116.377C115.361 117.733 111.159 118.376 106.943 118.275C103.189 118.087 100.636 117.011 99.7373 115.267C99.5151 114.797 99.4012 114.284 99.4043 113.764C99.4074 113.245 99.5273 112.733 99.7551 112.266C101.11 109.039 106.29 105.554 112.956 103.394C116.953 102.039 121.157 101.399 125.376 101.502C129.13 101.69 131.669 102.768 132.573 104.505C132.793 104.975 132.905 105.488 132.902 106.007C132.899 106.526 132.781 107.037 132.556 107.505C132.285 108.125 131.931 108.706 131.503 109.23C129.352 111.945 124.843 114.598 119.355 116.377ZM100.377 112.47C100.192 112.849 100.093 113.266 100.088 113.688C100.083 114.11 100.172 114.529 100.347 114.913C101.104 116.432 103.512 117.4 106.965 117.577C111.089 117.662 115.196 117.022 119.099 115.685C124.417 113.958 128.865 111.307 130.934 108.733C131.325 108.266 131.647 107.744 131.89 107.185C132.075 106.807 132.175 106.392 132.181 105.971C132.187 105.549 132.101 105.132 131.927 104.748C131.17 103.228 128.754 102.255 125.31 102.083C121.172 101.988 117.05 102.621 113.132 103.954C107.82 105.674 103.363 108.319 101.289 110.901C100.915 111.38 100.608 111.908 100.377 112.47Z" fill="#FDA212"/>
<path d="M59.585 294.577C59.4775 294.399 59.3928 294.209 59.3329 294.011C59.2871 293.864 59.2548 293.714 59.2365 293.562L59.089 292.887L59.2371 292.836C59.5752 290.087 63.464 286.489 69.1509 283.975C76.0146 280.96 82.944 280.671 84.8257 283.275L85.03 283.195L85.2296 284.159L85.2602 284.302C85.2962 284.546 85.3018 284.794 85.2768 285.039C85.0155 287.803 81.1048 291.451 75.3662 293.972C68.375 297.082 61.3137 297.33 59.585 294.577Z" fill="#FDA212"/>
<path d="M68.9297 282.943C61.9385 286.014 57.6651 290.755 59.3834 293.526C61.1018 296.296 68.1309 296.037 75.145 292.98C82.1591 289.923 86.4074 285.158 84.6982 282.386C82.9891 279.613 75.9186 279.863 68.9297 282.943Z" fill="#FDB73E"/>
<path d="M74.6409 292.223C71.9482 293.448 69.061 294.189 66.1115 294.413C63.4789 294.543 61.6222 293.97 60.8737 292.816C60.6859 292.504 60.5707 292.153 60.5366 291.791C60.5025 291.428 60.5505 291.063 60.6769 290.721C61.3971 288.375 64.769 285.581 69.2698 283.609C71.9646 282.385 74.8537 281.645 77.8049 281.423C80.4375 281.292 82.285 281.868 83.037 283.016C83.223 283.329 83.3372 283.679 83.3712 284.042C83.4053 284.404 83.3583 284.769 83.2338 285.111C83.088 285.563 82.8813 285.993 82.6194 286.389C81.3081 288.433 78.346 290.599 74.6409 292.223ZM61.1251 290.819C61.0225 291.097 60.9827 291.395 61.0085 291.69C61.0344 291.985 61.1253 292.271 61.2747 292.527C61.9089 293.534 63.6567 294.041 66.0782 293.924C68.9621 293.696 71.7835 292.963 74.4138 291.758C78.0041 290.182 80.9237 288.022 82.1877 286.082C82.4279 285.728 82.6161 285.342 82.7467 284.935C82.8497 284.658 82.8902 284.361 82.8653 284.067C82.8405 283.772 82.7509 283.487 82.6029 283.231C81.9687 282.224 80.2151 281.713 77.7994 281.833C74.9055 282.055 72.0731 282.785 69.4317 283.988C65.8449 285.558 62.9196 287.715 61.6521 289.661C61.4245 290.021 61.2472 290.411 61.1251 290.819Z" fill="#FDA212"/>
<path d="M33.8566 26.83C33.9216 26.5416 34.0226 26.2624 34.1573 25.9992C34.255 25.8036 34.3703 25.6174 34.502 25.4428L35.0177 24.6037L35.2205 24.6974C38.2858 22.2077 45.8395 22.3556 54.1682 25.3958C64.2013 29.085 71.6058 35.6406 70.9647 40.1759L71.2536 40.296L70.5055 41.4837L70.3951 41.6613C70.191 41.9475 69.9521 42.2071 69.6839 42.4344C66.6827 45.0156 59.0577 44.8966 50.6681 41.8135C40.4102 38.0957 32.9103 31.3682 33.8566 26.83Z" fill="#FDA212"/>
<path d="M54.9609 24.1164C44.7416 20.3586 35.6627 21.0044 34.6887 25.55C33.7146 30.0956 41.193 36.7795 51.4222 40.5741C61.6514 44.3687 70.7271 43.6744 71.7129 39.1355C72.6986 34.5967 65.187 27.8625 54.9609 24.1164Z" fill="#FDB73E"/>
<path d="M51.6531 39.2986C47.6755 37.8945 43.9762 35.8012 40.7245 33.1147C37.8907 30.6458 36.5498 28.2211 36.9223 26.2948C37.0378 25.7885 37.2659 25.3147 37.5894 24.9084C37.913 24.5021 38.3239 24.1738 38.7915 23.9479C41.8515 22.2493 48.078 22.7133 54.652 25.1377C58.6309 26.545 62.331 28.6413 65.5831 31.3308C68.4169 33.7998 69.7461 36.2178 69.3828 38.1415C69.2647 38.6468 69.0358 39.1195 68.7125 39.5254C68.3892 39.9313 67.9797 40.2603 67.5136 40.4885C66.9171 40.8086 66.2797 41.0458 65.6191 41.1936C62.2503 41.9975 57.0655 41.2938 51.6531 39.2986ZM39.1546 24.4923C38.7743 24.6763 38.4395 24.9424 38.1742 25.2712C37.9089 25.6 37.7198 25.9835 37.6203 26.3941C37.2758 28.0562 38.5697 30.3059 41.1736 32.5798C44.3623 35.1967 47.986 37.2331 51.8796 38.5962C57.1266 40.5272 62.2622 41.1947 65.4794 40.4511C66.0758 40.3252 66.6512 40.1146 67.1878 39.8255C67.5676 39.6427 67.9022 39.3782 68.1679 39.051C68.4336 38.7238 68.6237 38.342 68.7246 37.9329C69.0692 36.2708 67.7727 34.0119 65.1714 31.7472C61.9787 29.1138 58.3475 27.0625 54.4438 25.6872C49.206 23.7538 44.0679 23.077 40.8415 23.8231C40.2514 23.9683 39.6839 24.1935 39.1546 24.4923Z" fill="#FDA212"/>
</svg>
