<svg width="301" height="557" viewBox="0 0 301 557" fill="none" xmlns="http://www.w3.org/2000/svg">
<path d="M133.623 336.253C133.454 335.975 133.322 335.677 133.228 335.366C133.156 335.137 133.106 334.902 133.077 334.664L132.846 333.607L133.078 333.527C133.607 329.224 139.696 323.589 148.599 319.653C159.345 314.933 170.194 314.482 173.14 318.558L173.46 318.433L173.773 319.942L173.821 320.167C173.877 320.548 173.886 320.936 173.847 321.32C173.438 325.647 167.315 331.358 158.33 335.306C147.384 340.175 136.329 340.563 133.623 336.253Z" fill="#FDA212"/>
<path d="M148.253 318.037C137.307 322.845 130.617 330.269 133.307 334.606C135.997 338.944 147.002 338.538 157.984 333.752C168.965 328.965 175.617 321.506 172.941 317.165C170.265 312.824 159.195 313.215 148.253 318.037Z" fill="#FDB73E"/>
<path d="M157.195 332.566C152.979 334.484 148.459 335.645 143.841 335.995C139.719 336.199 136.812 335.302 135.64 333.495C135.346 333.006 135.166 332.458 135.112 331.89C135.059 331.322 135.134 330.749 135.332 330.215C136.46 326.541 141.739 322.168 148.786 319.08C153.005 317.164 157.528 316.005 162.148 315.657C166.27 315.453 169.163 316.354 170.34 318.152C170.631 318.642 170.81 319.19 170.863 319.757C170.917 320.325 170.843 320.897 170.648 321.432C170.42 322.139 170.096 322.812 169.686 323.432C167.633 326.633 162.996 330.024 157.195 332.566ZM136.034 330.369C135.873 330.804 135.811 331.269 135.851 331.732C135.892 332.194 136.034 332.641 136.268 333.042C137.261 334.619 139.997 335.413 143.789 335.23C148.304 334.872 152.721 333.724 156.839 331.838C162.46 329.371 167.031 325.989 169.01 322.951C169.386 322.398 169.681 321.793 169.886 321.156C170.047 320.722 170.11 320.258 170.071 319.797C170.032 319.336 169.892 318.889 169.66 318.488C168.668 316.911 165.922 316.111 162.14 316.3C157.609 316.647 153.174 317.789 149.039 319.673C143.423 322.132 138.843 325.508 136.859 328.555C136.503 329.119 136.225 329.73 136.034 330.369Z" fill="#FDA212"/>
<path d="M133.623 502.53C133.454 502.252 133.322 501.954 133.228 501.644C133.156 501.415 133.106 501.179 133.077 500.941L132.846 499.885L133.078 499.804C133.607 495.501 139.696 489.867 148.599 485.931C159.345 481.21 170.194 480.759 173.14 484.835L173.46 484.71L173.773 486.219L173.821 486.444C173.877 486.826 173.886 487.213 173.847 487.597C173.438 491.924 167.315 497.635 158.33 501.584C147.384 506.453 136.329 506.841 133.623 502.53Z" fill="#FDA212"/>
<path d="M148.253 484.315C137.307 489.123 130.617 496.546 133.307 500.884C135.997 505.221 147.002 504.815 157.984 500.029C168.965 495.243 175.617 487.784 172.941 483.442C170.265 479.101 159.195 479.493 148.253 484.315Z" fill="#FDB73E"/>
<path d="M157.195 498.844C152.979 500.761 148.459 501.922 143.841 502.272C139.719 502.477 136.812 501.579 135.64 499.772C135.346 499.283 135.166 498.735 135.112 498.167C135.059 497.599 135.134 497.027 135.332 496.492C136.46 492.818 141.739 488.445 148.786 485.358C153.005 483.441 157.528 482.283 162.148 481.934C166.27 481.73 169.163 482.631 170.34 484.429C170.631 484.919 170.81 485.467 170.863 486.035C170.917 486.602 170.843 487.174 170.648 487.709C170.42 488.417 170.096 489.09 169.686 489.71C167.633 492.911 162.996 496.301 157.195 498.844ZM136.034 496.646C135.873 497.081 135.811 497.547 135.851 498.009C135.892 498.471 136.034 498.918 136.268 499.319C137.261 500.896 139.997 501.691 143.789 501.507C148.304 501.15 152.721 500.002 156.839 498.116C162.46 495.648 167.031 492.266 169.01 489.229C169.386 488.675 169.681 488.07 169.886 487.433C170.047 486.999 170.11 486.535 170.071 486.074C170.032 485.613 169.892 485.166 169.66 484.766C168.668 483.188 165.922 482.388 162.14 482.577C157.609 482.925 153.174 484.067 149.039 485.951C143.423 488.409 138.843 491.786 136.859 494.832C136.503 495.397 136.225 496.007 136.034 496.646Z" fill="#FDA212"/>
<path d="M53.0071 62.3581C53.1087 61.9064 53.2669 61.4693 53.4778 61.0572C53.6307 60.751 53.8113 60.4594 54.0174 60.1862L54.8248 58.8724L55.1424 59.0192C59.9414 55.1211 71.7679 55.3527 84.8076 60.1125C100.516 65.8885 112.109 76.1521 111.105 83.2529L111.557 83.4408L110.386 85.3003L110.213 85.5785C109.893 86.0264 109.519 86.433 109.1 86.7888C104.401 90.83 92.4628 90.6438 79.3278 85.8167C63.2675 79.996 51.5254 69.4632 53.0071 62.3581Z" fill="#FDA212"/>
<path d="M86.049 58.111C70.0492 52.2277 55.835 53.2388 54.31 60.3556C52.785 67.4723 64.4934 77.9369 80.5086 83.8779C96.5238 89.8189 110.733 88.7318 112.276 81.6256C113.82 74.5194 102.059 63.9761 86.049 58.111Z" fill="#FDB73E"/>
<path d="M80.87 81.8793C74.6425 79.6809 68.8507 76.4037 63.7597 72.1976C59.323 68.3321 57.2236 64.5358 57.8069 61.5201C57.9878 60.7274 58.3447 59.9855 58.8513 59.3494C59.358 58.7133 60.0012 58.1993 60.7334 57.8455C65.5243 55.1862 75.2727 55.9128 85.5652 59.7085C91.7947 61.9117 97.5877 65.1938 102.679 69.4046C107.116 73.2701 109.197 77.0558 108.628 80.0677C108.443 80.8588 108.085 81.5988 107.579 82.2344C107.073 82.8699 106.431 83.3849 105.702 83.7422C104.768 84.2434 103.77 84.6148 102.736 84.8461C97.4613 86.1048 89.3438 85.0031 80.87 81.8793ZM61.3019 58.6979C60.7065 58.9861 60.1823 59.4026 59.7669 59.9174C59.3516 60.4322 59.0554 61.0327 58.8997 61.6755C58.3602 64.2777 60.3862 67.7999 64.4628 71.36C69.4552 75.4572 75.1287 78.6455 81.2246 80.7796C89.4396 83.8027 97.48 84.8478 102.517 83.6837C103.451 83.4866 104.351 83.1567 105.192 82.7042C105.786 82.4179 106.31 82.0039 106.726 81.4916C107.142 80.9794 107.44 80.3816 107.598 79.741C108.137 77.1389 106.107 73.6022 102.035 70.0565C97.0361 65.9335 91.3509 62.7219 85.2391 60.5687C77.0386 57.5417 68.9943 56.4822 63.9429 57.6502C63.019 57.8776 62.1305 58.2301 61.3019 58.6979Z" fill="#FDA212"/>
<path d="M191.585 179.395C191.385 178.977 191.239 178.535 191.15 178.081C191.081 177.746 191.043 177.405 191.036 177.063L190.858 175.531L191.198 175.45C192.559 169.419 201.997 162.288 215.188 157.966C231.105 152.792 246.562 153.689 250.164 159.89L250.636 159.758L250.865 161.944L250.901 162.269C250.927 162.819 250.884 163.37 250.775 163.909C249.581 169.991 240.084 177.226 226.776 181.555C210.555 186.912 194.814 185.895 191.585 179.395Z" fill="#FDA212"/>
<path d="M214.926 155.625C198.713 160.895 188.168 170.479 191.37 177.015C194.572 183.551 210.245 184.535 226.505 179.301C242.765 174.067 253.259 164.426 250.078 157.887C246.897 151.348 231.135 150.334 214.926 155.625Z" fill="#FDB73E"/>
<path d="M225.553 177.507C219.3 179.63 212.721 180.636 206.119 180.478C200.242 180.184 196.245 178.499 194.839 175.768C194.491 175.033 194.312 174.229 194.317 173.416C194.322 172.603 194.51 171.801 194.866 171.07C196.987 166.018 205.098 160.561 215.533 157.179C221.792 155.059 228.374 154.056 234.979 154.217C240.856 154.511 244.833 156.2 246.248 158.918C246.592 159.654 246.768 160.458 246.763 161.27C246.758 162.083 246.573 162.884 246.22 163.616C245.796 164.587 245.242 165.496 244.572 166.317C241.205 170.568 234.144 174.722 225.553 177.507ZM195.84 171.389C195.55 171.983 195.396 172.635 195.388 173.296C195.38 173.958 195.518 174.613 195.794 175.214C196.979 177.593 200.749 179.108 206.154 179.385C212.611 179.518 219.041 178.516 225.152 176.423C233.477 173.719 240.442 169.569 243.681 165.539C244.293 164.807 244.797 163.991 245.177 163.115C245.468 162.523 245.623 161.873 245.634 161.214C245.644 160.554 245.508 159.9 245.236 159.299C244.051 156.92 240.269 155.396 234.876 155.128C228.398 154.979 221.944 155.97 215.809 158.057C207.493 160.749 200.515 164.891 197.268 168.932C196.682 169.682 196.202 170.509 195.84 171.389Z" fill="#FDA212"/>
</svg>
