<svg width="116" height="235" viewBox="0 0 116 235" fill="none" xmlns="http://www.w3.org/2000/svg">
<path d="M1.9037 4.4839C0.851075 4.4839 0 3.48456 0 2.24853C0 1.0125 0.851075 0 1.9037 0C2.95633 0 3.80737 0.999352 3.80737 2.24853C3.80737 3.48456 2.95633 4.4839 1.9037 4.4839ZM1.9037 27.5214C0.851075 27.5214 0 26.522 0 25.286C0 24.05 0.851075 23.0506 1.9037 23.0506C2.95633 23.0506 3.80737 24.05 3.80737 25.286C3.80737 26.522 2.95633 27.5214 1.9037 27.5214ZM1.9037 50.5588C0.851075 50.5588 0 49.5595 0 48.3235C0 47.0874 0.851075 46.0881 1.9037 46.0881C2.95633 46.0881 3.80737 47.0874 3.80737 48.3235C3.80737 49.5595 2.95633 50.5588 1.9037 50.5588ZM1.9037 73.5963C0.851075 73.5963 0 72.597 0 71.361C0 70.1249 0.851075 69.1256 1.9037 69.1256C2.95633 69.1256 3.80737 70.1249 3.80737 71.361C3.80737 72.597 2.95633 73.5963 1.9037 73.5963ZM1.9037 96.6207C0.851075 96.6207 0 95.6213 0 94.3853C0 93.1493 0.851075 92.1499 1.9037 92.1499C2.95633 92.1499 3.80737 93.1493 3.80737 94.3853C3.80737 95.6345 2.95633 96.6207 1.9037 96.6207ZM1.9037 119.658C0.851075 119.658 0 118.659 0 117.423C0 116.187 0.851075 115.187 1.9037 115.187C2.95633 115.187 3.80737 116.187 3.80737 117.423C3.80737 118.659 2.95633 119.658 1.9037 119.658ZM1.9037 142.696C0.851075 142.696 0 141.696 0 140.46C0 139.224 0.851075 138.225 1.9037 138.225C2.95633 138.225 3.80737 139.224 3.80737 140.46C3.80737 141.696 2.95633 142.696 1.9037 142.696ZM1.9037 165.746C0.851075 165.746 0 164.747 0 163.498C0 162.262 0.851075 161.262 1.9037 161.262C2.95633 161.262 3.80737 162.262 3.80737 163.498C3.80737 164.734 2.95633 165.746 1.9037 165.746ZM1.9037 188.771C0.851075 188.771 0 187.771 0 186.535C0 185.299 0.851075 184.3 1.9037 184.3C2.95633 184.3 3.80737 185.299 3.80737 186.535C3.80737 187.771 2.95633 188.771 1.9037 188.771ZM1.9037 211.808C0.851075 211.808 0 210.809 0 209.573C0 208.337 0.851075 207.337 1.9037 207.337C2.95633 207.337 3.80737 208.337 3.80737 209.573C3.80737 210.809 2.95633 211.808 1.9037 211.808ZM1.9037 234.846C0.851075 234.846 0 233.846 0 232.61C0 231.374 0.851075 230.375 1.9037 230.375C2.95633 230.375 3.80737 231.374 3.80737 232.61C3.80737 233.846 2.95633 234.846 1.9037 234.846Z" fill="#414272" fill-opacity="0.5"/>
<path d="M24.5688 4.4839C23.5162 4.4839 22.6652 3.48456 22.6652 2.24853C22.6652 1.0125 23.5162 0 24.5688 0C25.6215 0 26.4725 0.999352 26.4725 2.24853C26.4725 3.48456 25.6215 4.4839 24.5688 4.4839ZM24.5688 27.5214C23.5162 27.5214 22.6652 26.522 22.6652 25.286C22.6652 24.05 23.5162 23.0506 24.5688 23.0506C25.6215 23.0506 26.4725 24.05 26.4725 25.286C26.4725 26.522 25.6215 27.5214 24.5688 27.5214ZM24.5688 50.5589C23.5162 50.5589 22.6652 49.5595 22.6652 48.3235C22.6652 47.0875 23.5162 46.0881 24.5688 46.0881C25.6215 46.0881 26.4725 47.0875 26.4725 48.3235C26.4725 49.5595 25.6215 50.5589 24.5688 50.5589ZM24.5688 73.5963C23.5162 73.5963 22.6652 72.597 22.6652 71.361C22.6652 70.1249 23.5162 69.1256 24.5688 69.1256C25.6215 69.1256 26.4725 70.1249 26.4725 71.361C26.4725 72.597 25.6215 73.5963 24.5688 73.5963ZM24.5688 96.6207C23.5162 96.6207 22.6652 95.6213 22.6652 94.3853C22.6652 93.1493 23.5162 92.1499 24.5688 92.1499C25.6215 92.1499 26.4725 93.1493 26.4725 94.3853C26.4725 95.6345 25.6215 96.6207 24.5688 96.6207ZM24.5688 119.658C23.5162 119.658 22.6652 118.659 22.6652 117.423C22.6652 116.187 23.5162 115.187 24.5688 115.187C25.6215 115.187 26.4725 116.187 26.4725 117.423C26.4725 118.659 25.6215 119.658 24.5688 119.658ZM24.5688 142.696C23.5162 142.696 22.6652 141.696 22.6652 140.46C22.6652 139.224 23.5162 138.225 24.5688 138.225C25.6215 138.225 26.4725 139.224 26.4725 140.46C26.4725 141.696 25.6215 142.696 24.5688 142.696ZM24.5688 165.746C23.5162 165.746 22.6652 164.747 22.6652 163.498C22.6652 162.262 23.5162 161.262 24.5688 161.262C25.6215 161.262 26.4725 162.262 26.4725 163.498C26.4725 164.734 25.6215 165.746 24.5688 165.746ZM24.5688 188.771C23.5162 188.771 22.6652 187.771 22.6652 186.535C22.6652 185.299 23.5162 184.3 24.5688 184.3C25.6215 184.3 26.4725 185.299 26.4725 186.535C26.4725 187.771 25.6215 188.771 24.5688 188.771ZM24.5688 211.808C23.5162 211.808 22.6652 210.809 22.6652 209.573C22.6652 208.337 23.5162 207.337 24.5688 207.337C25.6215 207.337 26.4725 208.337 26.4725 209.573C26.4725 210.809 25.6215 211.808 24.5688 211.808ZM24.5688 234.846C23.5162 234.846 22.6652 233.846 22.6652 232.61C22.6652 231.374 23.5162 230.375 24.5688 230.375C25.6215 230.375 26.4725 231.374 26.4725 232.61C26.4725 233.846 25.6215 234.846 24.5688 234.846Z" fill="#414272" fill-opacity="0.5"/>
<path d="M47.2452 4.4839C46.1926 4.4839 45.3416 3.48456 45.3416 2.24853C45.3416 1.0125 46.1926 0 47.2452 0C48.2979 0 49.1489 0.999352 49.1489 2.24853C49.1489 3.48456 48.2979 4.4839 47.2452 4.4839ZM47.2452 27.5214C46.1926 27.5214 45.3416 26.522 45.3416 25.286C45.3416 24.05 46.1926 23.0506 47.2452 23.0506C48.2979 23.0506 49.1489 24.05 49.1489 25.286C49.1489 26.522 48.2979 27.5214 47.2452 27.5214ZM47.2452 50.5589C46.1926 50.5589 45.3416 49.5595 45.3416 48.3235C45.3416 47.0875 46.1926 46.0881 47.2452 46.0881C48.2979 46.0881 49.1489 47.0875 49.1489 48.3235C49.1489 49.5595 48.2979 50.5589 47.2452 50.5589ZM47.2452 73.5963C46.1926 73.5963 45.3416 72.597 45.3416 71.361C45.3416 70.1249 46.1926 69.1256 47.2452 69.1256C48.2979 69.1256 49.1489 70.1249 49.1489 71.361C49.1489 72.597 48.2979 73.5963 47.2452 73.5963ZM47.2452 96.6207C46.1926 96.6207 45.3416 95.6213 45.3416 94.3853C45.3416 93.1493 46.1926 92.1499 47.2452 92.1499C48.2979 92.1499 49.1489 93.1493 49.1489 94.3853C49.1489 95.6345 48.2979 96.6207 47.2452 96.6207ZM47.2452 119.658C46.1926 119.658 45.3416 118.659 45.3416 117.423C45.3416 116.187 46.1926 115.187 47.2452 115.187C48.2979 115.187 49.1489 116.187 49.1489 117.423C49.1489 118.659 48.2979 119.658 47.2452 119.658ZM47.2452 142.696C46.1926 142.696 45.3416 141.696 45.3416 140.46C45.3416 139.224 46.1926 138.225 47.2452 138.225C48.2979 138.225 49.1489 139.224 49.1489 140.46C49.1489 141.696 48.2979 142.696 47.2452 142.696ZM47.2452 165.746C46.1926 165.746 45.3416 164.747 45.3416 163.498C45.3416 162.262 46.1926 161.262 47.2452 161.262C48.2979 161.262 49.1489 162.262 49.1489 163.498C49.1489 164.734 48.2979 165.746 47.2452 165.746ZM47.2452 188.771C46.1926 188.771 45.3416 187.771 45.3416 186.535C45.3416 185.299 46.1926 184.3 47.2452 184.3C48.2979 184.3 49.1489 185.299 49.1489 186.535C49.1489 187.771 48.2979 188.771 47.2452 188.771ZM47.2452 211.808C46.1926 211.808 45.3416 210.809 45.3416 209.573C45.3416 208.337 46.1926 207.337 47.2452 207.337C48.2979 207.337 49.1489 208.337 49.1489 209.573C49.1489 210.809 48.2979 211.808 47.2452 211.808ZM47.2452 234.846C46.1926 234.846 45.3416 233.846 45.3416 232.61C45.3416 231.374 46.1926 230.375 47.2452 230.375C48.2979 230.375 49.1489 231.374 49.1489 232.61C49.1489 233.846 48.2979 234.846 47.2452 234.846Z" fill="#414272" fill-opacity="0.5"/>
<path d="M67.9732 4.4839C66.9205 4.4839 66.0695 3.48456 66.0695 2.24853C66.0695 1.0125 66.9205 0 67.9732 0C69.0258 0 69.8768 0.999352 69.8768 2.24853C69.8768 3.48456 69.0258 4.4839 67.9732 4.4839ZM67.9732 27.5214C66.9205 27.5214 66.0695 26.522 66.0695 25.286C66.0695 24.05 66.9205 23.0506 67.9732 23.0506C69.0258 23.0506 69.8768 24.05 69.8768 25.286C69.8768 26.522 69.0258 27.5214 67.9732 27.5214ZM67.9732 50.5588C66.9205 50.5588 66.0695 49.5595 66.0695 48.3235C66.0695 47.0874 66.9205 46.0881 67.9732 46.0881C69.0258 46.0881 69.8768 47.0874 69.8768 48.3235C69.8768 49.5595 69.0258 50.5588 67.9732 50.5588ZM67.9732 73.5963C66.9205 73.5963 66.0695 72.597 66.0695 71.361C66.0695 70.1249 66.9205 69.1256 67.9732 69.1256C69.0258 69.1256 69.8768 70.1249 69.8768 71.361C69.8768 72.597 69.0258 73.5963 67.9732 73.5963ZM67.9732 96.6207C66.9205 96.6207 66.0695 95.6213 66.0695 94.3853C66.0695 93.1493 66.9205 92.1499 67.9732 92.1499C69.0258 92.1499 69.8768 93.1493 69.8768 94.3853C69.8768 95.6345 69.0258 96.6207 67.9732 96.6207ZM67.9732 119.658C66.9205 119.658 66.0695 118.659 66.0695 117.423C66.0695 116.187 66.9205 115.187 67.9732 115.187C69.0258 115.187 69.8768 116.187 69.8768 117.423C69.8768 118.659 69.0258 119.658 67.9732 119.658ZM67.9732 142.696C66.9205 142.696 66.0695 141.696 66.0695 140.46C66.0695 139.224 66.9205 138.225 67.9732 138.225C69.0258 138.225 69.8768 139.224 69.8768 140.46C69.8768 141.696 69.0258 142.696 67.9732 142.696ZM67.9732 165.746C66.9205 165.746 66.0695 164.747 66.0695 163.498C66.0695 162.262 66.9205 161.262 67.9732 161.262C69.0258 161.262 69.8768 162.262 69.8768 163.498C69.8768 164.734 69.0258 165.746 67.9732 165.746ZM67.9732 188.771C66.9205 188.771 66.0695 187.771 66.0695 186.535C66.0695 185.299 66.9205 184.3 67.9732 184.3C69.0258 184.3 69.8768 185.299 69.8768 186.535C69.8768 187.771 69.0258 188.771 67.9732 188.771ZM67.9732 211.808C66.9205 211.808 66.0695 210.809 66.0695 209.573C66.0695 208.337 66.9205 207.337 67.9732 207.337C69.0258 207.337 69.8768 208.337 69.8768 209.573C69.8768 210.809 69.0258 211.808 67.9732 211.808ZM67.9732 234.846C66.9205 234.846 66.0695 233.846 66.0695 232.61C66.0695 231.374 66.9205 230.375 67.9732 230.375C69.0258 230.375 69.8768 231.374 69.8768 232.61C69.8768 233.846 69.0258 234.846 67.9732 234.846Z" fill="#414272" fill-opacity="0.5"/>
<path d="M90.6382 4.4839C89.5856 4.4839 88.7345 3.48456 88.7345 2.24853C88.7345 1.0125 89.5856 0 90.6382 0C91.6908 0 92.5419 0.999352 92.5419 2.24853C92.5419 3.48456 91.6908 4.4839 90.6382 4.4839ZM90.6382 27.5214C89.5856 27.5214 88.7345 26.522 88.7345 25.286C88.7345 24.05 89.5856 23.0506 90.6382 23.0506C91.6908 23.0506 92.5419 24.05 92.5419 25.286C92.5419 26.522 91.6908 27.5214 90.6382 27.5214ZM90.6382 50.5589C89.5856 50.5589 88.7345 49.5595 88.7345 48.3235C88.7345 47.0875 89.5856 46.0881 90.6382 46.0881C91.6908 46.0881 92.5419 47.0875 92.5419 48.3235C92.5419 49.5595 91.6908 50.5589 90.6382 50.5589ZM90.6382 73.5963C89.5856 73.5963 88.7345 72.597 88.7345 71.361C88.7345 70.1249 89.5856 69.1256 90.6382 69.1256C91.6908 69.1256 92.5419 70.1249 92.5419 71.361C92.5419 72.597 91.6908 73.5963 90.6382 73.5963ZM90.6382 96.6207C89.5856 96.6207 88.7345 95.6213 88.7345 94.3853C88.7345 93.1493 89.5856 92.1499 90.6382 92.1499C91.6908 92.1499 92.5419 93.1493 92.5419 94.3853C92.5419 95.6345 91.6908 96.6207 90.6382 96.6207ZM90.6382 119.658C89.5856 119.658 88.7345 118.659 88.7345 117.423C88.7345 116.187 89.5856 115.187 90.6382 115.187C91.6908 115.187 92.5419 116.187 92.5419 117.423C92.5419 118.659 91.6908 119.658 90.6382 119.658ZM90.6382 142.696C89.5856 142.696 88.7345 141.696 88.7345 140.46C88.7345 139.224 89.5856 138.225 90.6382 138.225C91.6908 138.225 92.5419 139.224 92.5419 140.46C92.5419 141.696 91.6908 142.696 90.6382 142.696ZM90.6382 165.746C89.5856 165.746 88.7345 164.747 88.7345 163.498C88.7345 162.262 89.5856 161.262 90.6382 161.262C91.6908 161.262 92.5419 162.262 92.5419 163.498C92.5419 164.734 91.6908 165.746 90.6382 165.746ZM90.6382 188.771C89.5856 188.771 88.7345 187.771 88.7345 186.535C88.7345 185.299 89.5856 184.3 90.6382 184.3C91.6908 184.3 92.5419 185.299 92.5419 186.535C92.5419 187.771 91.6908 188.771 90.6382 188.771ZM90.6382 211.808C89.5856 211.808 88.7345 210.809 88.7345 209.573C88.7345 208.337 89.5856 207.337 90.6382 207.337C91.6908 207.337 92.5419 208.337 92.5419 209.573C92.5419 210.809 91.6908 211.808 90.6382 211.808ZM90.6382 234.846C89.5856 234.846 88.7345 233.846 88.7345 232.61C88.7345 231.374 89.5856 230.375 90.6382 230.375C91.6908 230.375 92.5419 231.374 92.5419 232.61C92.5419 233.846 91.6908 234.846 90.6382 234.846Z" fill="#414272" fill-opacity="0.5"/>
<path d="M113.315 4.4839C112.262 4.4839 111.411 3.48456 111.411 2.24853C111.411 1.0125 112.262 0 113.315 0C114.367 0 115.218 0.999352 115.218 2.24853C115.218 3.48456 114.367 4.4839 113.315 4.4839ZM113.315 27.5214C112.262 27.5214 111.411 26.522 111.411 25.286C111.411 24.05 112.262 23.0506 113.315 23.0506C114.367 23.0506 115.218 24.05 115.218 25.286C115.218 26.522 114.367 27.5214 113.315 27.5214ZM113.315 50.5589C112.262 50.5589 111.411 49.5595 111.411 48.3235C111.411 47.0875 112.262 46.0881 113.315 46.0881C114.367 46.0881 115.218 47.0875 115.218 48.3235C115.218 49.5595 114.367 50.5589 113.315 50.5589ZM113.315 73.5963C112.262 73.5963 111.411 72.597 111.411 71.361C111.411 70.1249 112.262 69.1256 113.315 69.1256C114.367 69.1256 115.218 70.1249 115.218 71.361C115.218 72.597 114.367 73.5963 113.315 73.5963ZM113.315 96.6207C112.262 96.6207 111.411 95.6213 111.411 94.3853C111.411 93.1493 112.262 92.1499 113.315 92.1499C114.367 92.1499 115.218 93.1493 115.218 94.3853C115.218 95.6345 114.367 96.6207 113.315 96.6207ZM113.315 119.658C112.262 119.658 111.411 118.659 111.411 117.423C111.411 116.187 112.262 115.187 113.315 115.187C114.367 115.187 115.218 116.187 115.218 117.423C115.218 118.659 114.367 119.658 113.315 119.658ZM113.315 142.696C112.262 142.696 111.411 141.696 111.411 140.46C111.411 139.224 112.262 138.225 113.315 138.225C114.367 138.225 115.218 139.224 115.218 140.46C115.218 141.696 114.367 142.696 113.315 142.696ZM113.315 165.746C112.262 165.746 111.411 164.747 111.411 163.498C111.411 162.262 112.262 161.262 113.315 161.262C114.367 161.262 115.218 162.262 115.218 163.498C115.218 164.734 114.367 165.746 113.315 165.746ZM113.315 188.771C112.262 188.771 111.411 187.771 111.411 186.535C111.411 185.299 112.262 184.3 113.315 184.3C114.367 184.3 115.218 185.299 115.218 186.535C115.218 187.771 114.367 188.771 113.315 188.771ZM113.315 211.808C112.262 211.808 111.411 210.809 111.411 209.573C111.411 208.337 112.262 207.337 113.315 207.337C114.367 207.337 115.218 208.337 115.218 209.573C115.218 210.809 114.367 211.808 113.315 211.808ZM113.315 234.846C112.262 234.846 111.411 233.846 111.411 232.61C111.411 231.374 112.262 230.375 113.315 230.375C114.367 230.375 115.218 231.374 115.218 232.61C115.218 233.846 114.367 234.846 113.315 234.846Z" fill="#414272" fill-opacity="0.5"/>
</svg>
