<svg width="44" height="179" viewBox="0 0 44 179" fill="none" xmlns="http://www.w3.org/2000/svg">
<path d="M1.70001 3.41C0.760012 3.41 0 2.65001 0 1.71001C0 0.770007 0.760012 0 1.70001 0C2.64001 0 3.39999 0.760007 3.39999 1.71001C3.39999 2.65001 2.64001 3.41 1.70001 3.41ZM1.70001 20.93C0.760012 20.93 0 20.17 0 19.23C0 18.29 0.760012 17.53 1.70001 17.53C2.64001 17.53 3.39999 18.29 3.39999 19.23C3.39999 20.17 2.64001 20.93 1.70001 20.93ZM1.70001 38.45C0.760012 38.45 0 37.69 0 36.75C0 35.81 0.760012 35.05 1.70001 35.05C2.64001 35.05 3.39999 35.81 3.39999 36.75C3.39999 37.69 2.64001 38.45 1.70001 38.45ZM1.70001 55.97C0.760012 55.97 0 55.21 0 54.27C0 53.33 0.760012 52.57 1.70001 52.57C2.64001 52.57 3.39999 53.33 3.39999 54.27C3.39999 55.21 2.64001 55.97 1.70001 55.97ZM1.70001 73.48C0.760012 73.48 0 72.72 0 71.78C0 70.84 0.760012 70.08 1.70001 70.08C2.64001 70.08 3.39999 70.84 3.39999 71.78C3.39999 72.73 2.64001 73.48 1.70001 73.48ZM1.70001 91C0.760012 91 0 90.24 0 89.3C0 88.36 0.760012 87.6 1.70001 87.6C2.64001 87.6 3.39999 88.36 3.39999 89.3C3.39999 90.24 2.64001 91 1.70001 91ZM1.70001 108.52C0.760012 108.52 0 107.76 0 106.82C0 105.88 0.760012 105.12 1.70001 105.12C2.64001 105.12 3.39999 105.88 3.39999 106.82C3.39999 107.76 2.64001 108.52 1.70001 108.52ZM1.70001 126.05C0.760012 126.05 0 125.29 0 124.34C0 123.4 0.760012 122.64 1.70001 122.64C2.64001 122.64 3.39999 123.4 3.39999 124.34C3.39999 125.28 2.64001 126.05 1.70001 126.05ZM1.70001 143.56C0.760012 143.56 0 142.8 0 141.86C0 140.92 0.760012 140.16 1.70001 140.16C2.64001 140.16 3.39999 140.92 3.39999 141.86C3.39999 142.8 2.64001 143.56 1.70001 143.56ZM1.70001 161.08C0.760012 161.08 0 160.32 0 159.38C0 158.44 0.760012 157.68 1.70001 157.68C2.64001 157.68 3.39999 158.44 3.39999 159.38C3.39999 160.32 2.64001 161.08 1.70001 161.08ZM1.70001 178.6C0.760012 178.6 0 177.84 0 176.9C0 175.96 0.760012 175.2 1.70001 175.2C2.64001 175.2 3.39999 175.96 3.39999 176.9C3.39999 177.84 2.64001 178.6 1.70001 178.6Z" fill="#414272" fill-opacity="0.5"/>
<path d="M21.94 3.41C21 3.41 20.24 2.65001 20.24 1.71001C20.24 0.770007 21 0 21.94 0C22.88 0 23.64 0.760007 23.64 1.71001C23.64 2.65001 22.88 3.41 21.94 3.41ZM21.94 20.93C21 20.93 20.24 20.17 20.24 19.23C20.24 18.29 21 17.53 21.94 17.53C22.88 17.53 23.64 18.29 23.64 19.23C23.64 20.17 22.88 20.93 21.94 20.93ZM21.94 38.45C21 38.45 20.24 37.69 20.24 36.75C20.24 35.81 21 35.05 21.94 35.05C22.88 35.05 23.64 35.81 23.64 36.75C23.64 37.69 22.88 38.45 21.94 38.45ZM21.94 55.97C21 55.97 20.24 55.21 20.24 54.27C20.24 53.33 21 52.57 21.94 52.57C22.88 52.57 23.64 53.33 23.64 54.27C23.64 55.21 22.88 55.97 21.94 55.97ZM21.94 73.48C21 73.48 20.24 72.72 20.24 71.78C20.24 70.84 21 70.08 21.94 70.08C22.88 70.08 23.64 70.84 23.64 71.78C23.64 72.73 22.88 73.48 21.94 73.48ZM21.94 91C21 91 20.24 90.24 20.24 89.3C20.24 88.36 21 87.6 21.94 87.6C22.88 87.6 23.64 88.36 23.64 89.3C23.64 90.24 22.88 91 21.94 91ZM21.94 108.52C21 108.52 20.24 107.76 20.24 106.82C20.24 105.88 21 105.12 21.94 105.12C22.88 105.12 23.64 105.88 23.64 106.82C23.64 107.76 22.88 108.52 21.94 108.52ZM21.94 126.05C21 126.05 20.24 125.29 20.24 124.34C20.24 123.4 21 122.64 21.94 122.64C22.88 122.64 23.64 123.4 23.64 124.34C23.64 125.28 22.88 126.05 21.94 126.05ZM21.94 143.56C21 143.56 20.24 142.8 20.24 141.86C20.24 140.92 21 140.16 21.94 140.16C22.88 140.16 23.64 140.92 23.64 141.86C23.64 142.8 22.88 143.56 21.94 143.56ZM21.94 161.08C21 161.08 20.24 160.32 20.24 159.38C20.24 158.44 21 157.68 21.94 157.68C22.88 157.68 23.64 158.44 23.64 159.38C23.64 160.32 22.88 161.08 21.94 161.08ZM21.94 178.6C21 178.6 20.24 177.84 20.24 176.9C20.24 175.96 21 175.2 21.94 175.2C22.88 175.2 23.64 175.96 23.64 176.9C23.64 177.84 22.88 178.6 21.94 178.6Z" fill="#414272" fill-opacity="0.5"/>
<path d="M42.19 3.41C41.25 3.41 40.49 2.65001 40.49 1.71001C40.49 0.770007 41.25 0 42.19 0C43.13 0 43.89 0.760007 43.89 1.71001C43.89 2.65001 43.13 3.41 42.19 3.41ZM42.19 20.93C41.25 20.93 40.49 20.17 40.49 19.23C40.49 18.29 41.25 17.53 42.19 17.53C43.13 17.53 43.89 18.29 43.89 19.23C43.89 20.17 43.13 20.93 42.19 20.93ZM42.19 38.45C41.25 38.45 40.49 37.69 40.49 36.75C40.49 35.81 41.25 35.05 42.19 35.05C43.13 35.05 43.89 35.81 43.89 36.75C43.89 37.69 43.13 38.45 42.19 38.45ZM42.19 55.97C41.25 55.97 40.49 55.21 40.49 54.27C40.49 53.33 41.25 52.57 42.19 52.57C43.13 52.57 43.89 53.33 43.89 54.27C43.89 55.21 43.13 55.97 42.19 55.97ZM42.19 73.48C41.25 73.48 40.49 72.72 40.49 71.78C40.49 70.84 41.25 70.08 42.19 70.08C43.13 70.08 43.89 70.84 43.89 71.78C43.89 72.73 43.13 73.48 42.19 73.48ZM42.19 91C41.25 91 40.49 90.24 40.49 89.3C40.49 88.36 41.25 87.6 42.19 87.6C43.13 87.6 43.89 88.36 43.89 89.3C43.89 90.24 43.13 91 42.19 91ZM42.19 108.52C41.25 108.52 40.49 107.76 40.49 106.82C40.49 105.88 41.25 105.12 42.19 105.12C43.13 105.12 43.89 105.88 43.89 106.82C43.89 107.76 43.13 108.52 42.19 108.52ZM42.19 126.05C41.25 126.05 40.49 125.29 40.49 124.34C40.49 123.4 41.25 122.64 42.19 122.64C43.13 122.64 43.89 123.4 43.89 124.34C43.89 125.28 43.13 126.05 42.19 126.05ZM42.19 143.56C41.25 143.56 40.49 142.8 40.49 141.86C40.49 140.92 41.25 140.16 42.19 140.16C43.13 140.16 43.89 140.92 43.89 141.86C43.89 142.8 43.13 143.56 42.19 143.56ZM42.19 161.08C41.25 161.08 40.49 160.32 40.49 159.38C40.49 158.44 41.25 157.68 42.19 157.68C43.13 157.68 43.89 158.44 43.89 159.38C43.89 160.32 43.13 161.08 42.19 161.08ZM42.19 178.6C41.25 178.6 40.49 177.84 40.49 176.9C40.49 175.96 41.25 175.2 42.19 175.2C43.13 175.2 43.89 175.96 43.89 176.9C43.89 177.84 43.13 178.6 42.19 178.6Z" fill="#414272" fill-opacity="0.5"/>
</svg>
