<svg width="395" height="241" viewBox="0 0 395 241" fill="none" xmlns="http://www.w3.org/2000/svg">
<path d="M20.3815 219.249C20.3814 218.65 20.2008 218.064 19.8627 217.567C19.5247 217.069 19.0445 216.683 18.4834 216.456C17.9223 216.23 17.3056 216.173 16.7119 216.294C16.1183 216.416 15.5746 216.709 15.1501 217.136C14.7256 217.564 14.4396 218.107 14.3284 218.696C14.2173 219.285 14.2861 219.893 14.526 220.444C14.7659 220.994 15.1662 221.461 15.6757 221.786C16.1852 222.11 16.781 222.277 17.387 222.266C18.1881 222.256 18.9526 221.933 19.5136 221.368C20.0746 220.802 20.3866 220.041 20.3815 219.249Z" fill="#ECB548"/>
<path d="M44.4335 219.249C44.4335 218.652 44.2545 218.069 43.9191 217.573C43.5837 217.076 43.107 216.69 42.5492 216.461C41.9915 216.233 41.3777 216.173 40.7856 216.29C40.1935 216.406 39.6497 216.693 39.2228 217.115C38.7959 217.537 38.5052 218.075 38.3874 218.66C38.2696 219.246 38.3301 219.852 38.5611 220.404C38.7921 220.955 39.1834 221.426 39.6853 221.758C40.1873 222.089 40.7774 222.266 41.3811 222.266C42.1907 222.266 42.9671 221.948 43.5395 221.382C44.1119 220.817 44.4335 220.049 44.4335 219.249Z" fill="#ECB548"/>
<path d="M68.3117 219.249C68.3117 218.652 68.1327 218.069 67.7973 217.573C67.4619 217.076 66.9852 216.69 66.4274 216.461C65.8697 216.233 65.2559 216.173 64.6638 216.29C64.0717 216.406 63.5278 216.693 63.1009 217.115C62.6741 217.537 62.3833 218.075 62.2656 218.66C62.1478 219.246 62.2082 219.852 62.4393 220.404C62.6703 220.955 63.0615 221.426 63.5635 221.758C64.0655 222.089 64.6556 222.266 65.2593 222.266C66.0688 222.266 66.8452 221.948 67.4177 221.382C67.9901 220.817 68.3117 220.049 68.3117 219.249Z" fill="#ECB548"/>
<path d="M20.3814 190.203C20.3737 189.605 20.1866 189.024 19.844 188.531C19.5013 188.039 19.0185 187.658 18.4568 187.438C17.8951 187.217 17.2797 187.166 16.6886 187.292C16.0976 187.417 15.5576 187.713 15.137 188.142C14.7163 188.571 14.4341 189.114 14.3261 189.702C14.218 190.29 14.289 190.896 14.53 191.444C14.771 191.992 15.1712 192.457 15.6798 192.78C16.1884 193.103 16.7826 193.27 17.387 193.258C17.787 193.253 18.182 193.17 18.5493 193.014C18.9167 192.857 19.2491 192.63 19.5274 192.346C19.8057 192.062 20.0245 191.727 20.171 191.359C20.3176 190.991 20.3891 190.598 20.3814 190.203Z" fill="#ECB548"/>
<path d="M44.4335 190.203C44.467 189.787 44.4132 189.37 44.2755 188.976C44.1378 188.583 43.9191 188.222 43.6333 187.916C43.3475 187.61 43.0007 187.366 42.6148 187.199C42.2288 187.032 41.8121 186.945 41.3908 186.945C40.9695 186.945 40.5528 187.032 40.1668 187.199C39.7809 187.366 39.4341 187.61 39.1483 187.916C38.8625 188.222 38.6438 188.583 38.5061 188.976C38.3684 189.37 38.3146 189.787 38.3481 190.203C38.4091 190.959 38.7561 191.665 39.32 192.179C39.8839 192.694 40.6232 192.98 41.3908 192.98C42.1583 192.98 42.8977 192.694 43.4616 192.179C44.0255 191.665 44.3725 190.959 44.4335 190.203Z" fill="#ECB548"/>
<path d="M68.3117 190.203C68.3452 189.787 68.2914 189.37 68.1536 188.976C68.0159 188.583 67.7973 188.222 67.5115 187.916C67.2257 187.61 66.8789 187.366 66.4929 187.199C66.107 187.032 65.6903 186.945 65.269 186.945C64.8477 186.945 64.4309 187.032 64.045 187.199C63.6591 187.366 63.3123 187.61 63.0264 187.916C62.7406 188.222 62.522 188.583 62.3843 188.976C62.2465 189.37 62.1927 189.787 62.2262 190.203C62.2872 190.959 62.6343 191.665 63.1982 192.179C63.762 192.694 64.5014 192.98 65.269 192.98C66.0365 192.98 66.7759 192.694 67.3398 192.179C67.9036 191.665 68.2507 190.959 68.3117 190.203Z" fill="#ECB548"/>
<path d="M20.3814 161.158C20.3852 160.558 20.2079 159.97 19.8722 159.47C19.5365 158.97 19.0576 158.581 18.4968 158.351C17.936 158.122 17.3187 158.063 16.7238 158.182C16.1289 158.301 15.5834 158.592 15.1569 159.019C14.7305 159.446 14.4425 159.989 14.3298 160.579C14.2171 161.168 14.2847 161.778 14.5241 162.329C14.7635 162.88 15.1637 163.349 15.6737 163.674C16.1836 163.999 16.7801 164.167 17.387 164.156C18.1847 164.146 18.9463 163.825 19.5068 163.264C20.0673 162.703 20.3815 161.946 20.3814 161.158Z" fill="#ECB548"/>
<path d="M44.4335 161.158C44.467 160.743 44.4132 160.325 44.2754 159.931C44.1377 159.538 43.9191 159.177 43.6333 158.871C43.3474 158.565 43.0007 158.321 42.6147 158.154C42.2288 157.987 41.812 157.901 41.3907 157.901C40.9695 157.901 40.5527 157.987 40.1668 158.154C39.7808 158.321 39.4341 158.565 39.1482 158.871C38.8624 159.177 38.6438 159.538 38.5061 159.931C38.3683 160.325 38.3145 160.743 38.348 161.158C38.409 161.914 38.7561 162.62 39.3199 163.135C39.8838 163.649 40.6232 163.935 41.3907 163.935C42.1583 163.935 42.8977 163.649 43.4616 163.135C44.0254 162.62 44.3725 161.914 44.4335 161.158Z" fill="#ECB548"/>
<path d="M68.3116 161.158C68.3451 160.743 68.2913 160.325 68.1536 159.931C68.0159 159.538 67.7972 159.177 67.5114 158.871C67.2256 158.565 66.8788 158.321 66.4929 158.154C66.1069 157.987 65.6902 157.901 65.2689 157.901C64.8476 157.901 64.4309 157.987 64.045 158.154C63.659 158.321 63.3122 158.565 63.0264 158.871C62.7406 159.177 62.5219 159.538 62.3842 159.931C62.2465 160.325 62.1927 160.743 62.2262 161.158C62.2872 161.914 62.6342 162.62 63.1981 163.135C63.762 163.649 64.5014 163.935 65.2689 163.935C66.0365 163.935 66.7758 163.649 67.3397 163.135C67.9036 162.62 68.2506 161.914 68.3116 161.158Z" fill="#ECB548"/>
<path d="M20.381 132.15C20.3199 131.393 19.9729 130.688 19.409 130.173C18.8451 129.658 18.1058 129.372 17.3382 129.372C16.5707 129.372 15.8313 129.658 15.2674 130.173C14.7035 130.688 14.3565 131.393 14.2955 132.15C14.262 132.565 14.3158 132.982 14.4535 133.376C14.5913 133.769 14.8099 134.131 15.0957 134.436C15.3815 134.742 15.7283 134.987 16.1143 135.154C16.5002 135.321 16.9169 135.407 17.3382 135.407C17.7595 135.407 18.1763 135.321 18.5622 135.154C18.9481 134.987 19.2949 134.742 19.5807 134.436C19.8666 134.131 20.0852 133.769 20.2229 133.376C20.3606 132.982 20.4145 132.565 20.381 132.15Z" fill="#ECB548"/>
<path d="M44.4335 132.15C44.4335 131.553 44.2545 130.97 43.9191 130.473C43.5837 129.977 43.107 129.59 42.5492 129.362C41.9915 129.134 41.3777 129.074 40.7856 129.19C40.1935 129.307 39.6497 129.594 39.2228 130.016C38.7959 130.438 38.5052 130.976 38.3874 131.561C38.2696 132.146 38.3301 132.753 38.5611 133.304C38.7921 133.856 39.1834 134.327 39.6853 134.658C40.1873 134.99 40.7774 135.167 41.3811 135.167C41.7827 135.169 42.1808 135.093 42.5523 134.942C42.9237 134.792 43.2613 134.57 43.5452 134.289C43.8292 134.008 44.0539 133.675 44.2064 133.307C44.3589 132.94 44.4361 132.547 44.4335 132.15Z" fill="#ECB548"/>
<path d="M68.3117 132.15C68.3117 131.553 68.1327 130.97 67.7973 130.473C67.4619 129.977 66.9852 129.59 66.4274 129.362C65.8697 129.134 65.2559 129.074 64.6638 129.19C64.0717 129.307 63.5278 129.594 63.1009 130.016C62.6741 130.438 62.3833 130.976 62.2656 131.561C62.1478 132.146 62.2082 132.753 62.4393 133.304C62.6703 133.856 63.0615 134.327 63.5635 134.658C64.0655 134.99 64.6556 135.167 65.2593 135.167C65.6609 135.169 66.0589 135.093 66.4304 134.942C66.8019 134.792 67.1394 134.57 67.4234 134.289C67.7073 134.008 67.9321 133.675 68.0846 133.307C68.2371 132.94 68.3143 132.547 68.3117 132.15Z" fill="#ECB548"/>
<path d="M68.3117 219.249C68.3117 218.652 68.1327 218.069 67.7973 217.573C67.4619 217.076 66.9852 216.69 66.4274 216.461C65.8697 216.233 65.2559 216.173 64.6638 216.29C64.0717 216.406 63.5278 216.693 63.1009 217.115C62.6741 217.537 62.3833 218.075 62.2656 218.66C62.1478 219.246 62.2082 219.852 62.4393 220.404C62.6703 220.955 63.0615 221.426 63.5635 221.758C64.0655 222.089 64.6556 222.266 65.2593 222.266C66.0688 222.266 66.8452 221.948 67.4177 221.382C67.9901 220.817 68.3117 220.049 68.3117 219.249Z" fill="#ECB548"/>
<path d="M92.2671 219.249C92.2671 218.651 92.0876 218.067 91.7514 217.571C91.4151 217.074 90.9372 216.687 90.3784 216.459C89.8195 216.232 89.2048 216.173 88.6121 216.291C88.0195 216.409 87.4757 216.698 87.0496 217.122C86.6235 217.546 86.3343 218.085 86.2187 218.672C86.1031 219.259 86.1663 219.866 86.4003 220.417C86.6343 220.968 87.0285 221.438 87.533 221.767C88.0375 222.096 88.6296 222.27 89.2341 222.266C89.634 222.266 90.03 222.188 90.3993 222.036C90.7685 221.884 91.1037 221.662 91.3856 221.381C91.6675 221.101 91.8905 220.768 92.0418 220.402C92.1931 220.036 92.2697 219.644 92.2671 219.249Z" fill="#ECB548"/>
<path d="M116.242 219.249C116.242 218.652 116.063 218.069 115.727 217.573C115.392 217.076 114.915 216.69 114.358 216.461C113.8 216.233 113.186 216.173 112.594 216.29C112.002 216.406 111.458 216.693 111.031 217.115C110.604 217.537 110.314 218.075 110.196 218.66C110.078 219.246 110.138 219.852 110.369 220.404C110.601 220.955 110.992 221.426 111.494 221.758C111.996 222.089 112.586 222.266 113.19 222.266C113.999 222.266 114.775 221.948 115.348 221.382C115.92 220.817 116.242 220.049 116.242 219.249Z" fill="#ECB548"/>
<path d="M140.197 219.249C140.197 218.651 140.018 218.067 139.682 217.571C139.345 217.074 138.867 216.687 138.309 216.459C137.75 216.232 137.135 216.173 136.542 216.291C135.95 216.409 135.406 216.698 134.98 217.122C134.554 217.546 134.265 218.085 134.149 218.672C134.033 219.259 134.097 219.866 134.331 220.417C134.565 220.968 134.959 221.438 135.463 221.767C135.968 222.096 136.56 222.27 137.164 222.266C137.971 222.261 138.742 221.941 139.31 221.376C139.878 220.81 140.197 220.046 140.197 219.249Z" fill="#ECB548"/>
<path d="M164.211 219.249C164.211 218.654 164.033 218.072 163.699 217.577C163.365 217.081 162.891 216.695 162.335 216.465C161.78 216.236 161.168 216.174 160.577 216.287C159.986 216.4 159.442 216.684 159.014 217.102C158.585 217.52 158.292 218.054 158.169 218.637C158.047 219.22 158.102 219.825 158.327 220.377C158.553 220.929 158.938 221.403 159.435 221.739C159.931 222.075 160.518 222.259 161.12 222.266C161.525 222.274 161.927 222.201 162.303 222.053C162.679 221.904 163.021 221.683 163.309 221.402C163.597 221.121 163.825 220.785 163.98 220.415C164.135 220.046 164.213 219.649 164.211 219.249Z" fill="#ECB548"/>
<path d="M188.108 219.249C188.108 218.651 187.929 218.067 187.592 217.571C187.256 217.074 186.778 216.687 186.219 216.459C185.661 216.232 185.046 216.173 184.453 216.291C183.861 216.409 183.317 216.698 182.891 217.122C182.465 217.546 182.175 218.085 182.06 218.672C181.944 219.259 182.007 219.866 182.241 220.417C182.475 220.968 182.87 221.438 183.374 221.767C183.879 222.096 184.471 222.27 185.075 222.266C185.475 222.266 185.871 222.188 186.24 222.036C186.61 221.884 186.945 221.662 187.227 221.381C187.509 221.101 187.732 220.768 187.883 220.402C188.034 220.036 188.111 219.644 188.108 219.249Z" fill="#ECB548"/>
<path d="M212.083 219.249C212.083 218.652 211.904 218.069 211.569 217.573C211.233 217.076 210.757 216.69 210.199 216.461C209.641 216.233 209.027 216.173 208.435 216.29C207.843 216.406 207.299 216.693 206.872 217.115C206.445 217.537 206.155 218.075 206.037 218.66C205.919 219.246 205.98 219.852 206.211 220.404C206.442 220.955 206.833 221.426 207.335 221.758C207.837 222.089 208.427 222.266 209.031 222.266C209.84 222.266 210.617 221.948 211.189 221.382C211.761 220.817 212.083 220.049 212.083 219.249Z" fill="#ECB548"/>
<path d="M236.039 219.249C236.039 218.652 235.859 218.069 235.524 217.573C235.189 217.076 234.712 216.69 234.154 216.461C233.596 216.233 232.983 216.173 232.391 216.29C231.799 216.406 231.255 216.693 230.828 217.115C230.401 217.537 230.11 218.075 229.992 218.66C229.875 219.246 229.935 219.852 230.166 220.404C230.397 220.955 230.788 221.426 231.29 221.758C231.792 222.089 232.382 222.266 232.986 222.266C233.796 222.266 234.572 221.948 235.144 221.382C235.717 220.817 236.039 220.049 236.039 219.249Z" fill="#ECB548"/>
<path d="M259.994 219.249C259.994 218.652 259.815 218.069 259.48 217.573C259.144 217.076 258.667 216.69 258.11 216.461C257.552 216.233 256.938 216.173 256.346 216.29C255.754 216.406 255.21 216.693 254.783 217.115C254.356 217.537 254.066 218.075 253.948 218.66C253.83 219.245 253.891 219.852 254.122 220.403C254.353 220.955 254.744 221.426 255.246 221.758C255.748 222.089 256.338 222.266 256.942 222.266C257.343 222.269 257.741 222.192 258.113 222.042C258.484 221.891 258.822 221.669 259.106 221.388C259.39 221.107 259.614 220.774 259.767 220.406C259.919 220.039 259.997 219.646 259.994 219.249Z" fill="#ECB548"/>
<path d="M283.988 219.249C283.988 218.652 283.809 218.069 283.474 217.573C283.138 217.076 282.662 216.69 282.104 216.461C281.546 216.233 280.932 216.173 280.34 216.29C279.748 216.406 279.204 216.693 278.777 217.115C278.35 217.537 278.06 218.075 277.942 218.66C277.824 219.246 277.885 219.852 278.116 220.404C278.347 220.955 278.738 221.426 279.24 221.758C279.742 222.089 280.332 222.266 280.936 222.266C281.745 222.266 282.522 221.948 283.094 221.382C283.666 220.817 283.988 220.049 283.988 219.249Z" fill="#ECB548"/>
<path d="M307.924 219.249C307.924 218.652 307.745 218.069 307.41 217.573C307.074 217.076 306.598 216.69 306.04 216.461C305.482 216.233 304.868 216.173 304.276 216.29C303.684 216.406 303.14 216.693 302.713 217.115C302.287 217.537 301.996 218.075 301.878 218.66C301.76 219.246 301.821 219.852 302.052 220.404C302.283 220.955 302.674 221.426 303.176 221.758C303.678 222.089 304.268 222.266 304.872 222.266C305.681 222.266 306.458 221.948 307.03 221.382C307.603 220.817 307.924 220.049 307.924 219.249Z" fill="#ECB548"/>
<path d="M331.88 219.249C331.88 218.651 331.7 218.067 331.364 217.571C331.028 217.074 330.55 216.687 329.991 216.459C329.432 216.232 328.817 216.173 328.225 216.291C327.632 216.409 327.088 216.698 326.662 217.122C326.236 217.546 325.947 218.085 325.831 218.672C325.716 219.259 325.779 219.866 326.013 220.417C326.247 220.968 326.641 221.438 327.146 221.767C327.65 222.096 328.242 222.27 328.847 222.266C329.247 222.266 329.643 222.188 330.012 222.036C330.381 221.884 330.716 221.662 330.998 221.381C331.28 221.101 331.503 220.768 331.654 220.402C331.806 220.036 331.882 219.644 331.88 219.249Z" fill="#ECB548"/>
<path d="M68.3112 190.203C68.3447 189.787 68.2909 189.37 68.1531 188.976C68.0154 188.583 67.7968 188.222 67.511 187.916C67.2252 187.61 66.8784 187.366 66.4924 187.199C66.1065 187.032 65.6898 186.945 65.2685 186.945C64.8472 186.945 64.4304 187.032 64.0445 187.199C63.6586 187.366 63.3118 187.61 63.026 187.916C62.7401 188.222 62.5215 188.583 62.3838 188.976C62.2461 189.37 62.1922 189.787 62.2257 190.203C62.2867 190.959 62.6338 191.665 63.1977 192.179C63.7616 192.694 64.5009 192.98 65.2685 192.98C66.036 192.98 66.7754 192.694 67.3393 192.179C67.9031 191.665 68.2502 190.959 68.3112 190.203Z" fill="#ECB548"/>
<path d="M92.2672 190.203C92.2595 189.607 92.0735 189.027 91.7327 188.535C91.3918 188.044 90.9113 187.663 90.3518 187.441C89.7923 187.219 89.1789 187.166 88.5888 187.288C87.9988 187.41 87.4586 187.702 87.0363 188.128C86.6141 188.553 86.3287 189.093 86.2162 189.678C86.1037 190.264 86.1692 190.869 86.4042 191.418C86.6393 191.966 87.0335 192.434 87.5371 192.762C88.0408 193.089 88.6312 193.262 89.2341 193.258C89.6373 193.258 90.0365 193.179 90.4083 193.025C90.7802 192.87 91.1171 192.644 91.3995 192.36C91.682 192.075 91.9042 191.738 92.0531 191.368C92.2021 190.997 92.2749 190.601 92.2672 190.203Z" fill="#ECB548"/>
<path d="M116.242 190.203C116.234 189.608 116.049 189.028 115.709 188.537C115.369 188.046 114.889 187.665 114.331 187.443C113.773 187.22 113.16 187.166 112.571 187.287C111.981 187.407 111.441 187.698 111.018 188.121C110.595 188.544 110.308 189.082 110.193 189.666C110.079 190.251 110.141 190.855 110.373 191.404C110.606 191.953 110.997 192.422 111.498 192.752C111.999 193.082 112.587 193.258 113.19 193.258C113.594 193.258 113.994 193.179 114.367 193.025C114.739 192.871 115.078 192.645 115.362 192.361C115.646 192.077 115.87 191.74 116.021 191.369C116.172 190.999 116.247 190.602 116.242 190.203Z" fill="#ECB548"/>
<path d="M140.197 190.203C140.231 189.787 140.177 189.37 140.039 188.976C139.902 188.583 139.683 188.222 139.397 187.916C139.111 187.61 138.765 187.366 138.379 187.199C137.993 187.032 137.576 186.945 137.155 186.945C136.733 186.945 136.317 187.032 135.931 187.199C135.545 187.366 135.198 187.61 134.912 187.916C134.626 188.222 134.408 188.583 134.27 188.976C134.132 189.37 134.078 189.787 134.112 190.203C134.173 190.959 134.52 191.665 135.084 192.179C135.648 192.694 136.387 192.98 137.155 192.98C137.922 192.98 138.662 192.694 139.225 192.179C139.789 191.665 140.136 190.959 140.197 190.203Z" fill="#ECB548"/>
<path d="M164.211 190.203C164.203 189.609 164.019 189.031 163.68 188.541C163.342 188.051 162.865 187.67 162.309 187.446C161.753 187.223 161.142 187.166 160.554 187.284C159.965 187.401 159.425 187.688 159 188.108C158.576 188.527 158.286 189.061 158.167 189.643C158.048 190.225 158.105 190.828 158.331 191.378C158.557 191.928 158.943 192.399 159.439 192.734C159.935 193.068 160.519 193.251 161.12 193.258C161.528 193.266 161.933 193.192 162.312 193.042C162.69 192.891 163.034 192.666 163.323 192.381C163.612 192.095 163.839 191.755 163.992 191.381C164.144 191.007 164.219 190.606 164.211 190.203Z" fill="#ECB548"/>
<path d="M188.108 190.203C188.101 189.607 187.915 189.027 187.574 188.535C187.233 188.044 186.753 187.663 186.193 187.441C185.633 187.219 185.02 187.166 184.43 187.288C183.84 187.41 183.3 187.702 182.877 188.128C182.455 188.553 182.17 189.093 182.057 189.678C181.945 190.264 182.01 190.869 182.245 191.418C182.48 191.966 182.875 192.434 183.378 192.762C183.882 193.089 184.472 193.262 185.075 193.258C185.478 193.258 185.878 193.179 186.25 193.025C186.621 192.87 186.958 192.644 187.241 192.36C187.523 192.075 187.745 191.738 187.894 191.368C188.043 190.997 188.116 190.601 188.108 190.203Z" fill="#ECB548"/>
<path d="M212.083 190.203C212.117 189.787 212.063 189.37 211.925 188.976C211.787 188.583 211.569 188.222 211.283 187.916C210.997 187.61 210.65 187.366 210.264 187.199C209.878 187.032 209.462 186.945 209.04 186.945C208.619 186.945 208.202 187.032 207.816 187.199C207.43 187.366 207.084 187.61 206.798 187.916C206.512 188.222 206.293 188.583 206.156 188.976C206.018 189.37 205.964 189.787 205.998 190.203C206.059 190.959 206.406 191.665 206.97 192.179C207.533 192.694 208.273 192.98 209.04 192.98C209.808 192.98 210.547 192.694 211.111 192.179C211.675 191.665 212.022 190.959 212.083 190.203Z" fill="#ECB548"/>
<path d="M236.039 190.203C236.072 189.787 236.018 189.37 235.881 188.976C235.743 188.583 235.524 188.222 235.238 187.916C234.953 187.61 234.606 187.366 234.22 187.199C233.834 187.032 233.417 186.945 232.996 186.945C232.575 186.945 232.158 187.032 231.772 187.199C231.386 187.366 231.039 187.61 230.753 187.916C230.467 188.222 230.249 188.583 230.111 188.976C229.973 189.37 229.92 189.787 229.953 190.203C230.014 190.959 230.361 191.665 230.925 192.179C231.489 192.694 232.228 192.98 232.996 192.98C233.763 192.98 234.503 192.694 235.067 192.179C235.631 191.665 235.978 190.959 236.039 190.203Z" fill="#ECB548"/>
<path d="M259.994 190.203C259.986 189.608 259.801 189.028 259.461 188.537C259.121 188.046 258.642 187.665 258.083 187.443C257.525 187.22 256.912 187.166 256.323 187.286C255.733 187.407 255.193 187.697 254.77 188.121C254.347 188.544 254.06 189.082 253.945 189.666C253.831 190.25 253.893 190.855 254.125 191.404C254.358 191.953 254.749 192.422 255.25 192.752C255.751 193.082 256.34 193.258 256.942 193.258C257.346 193.261 257.748 193.183 258.122 193.03C258.496 192.877 258.835 192.652 259.12 192.367C259.404 192.082 259.628 191.744 259.778 191.372C259.928 191.001 260.002 190.603 259.994 190.203Z" fill="#ECB548"/>
<path d="M283.988 190.203C283.98 189.609 283.795 189.03 283.456 188.539C283.117 188.048 282.639 187.668 282.082 187.444C281.524 187.221 280.913 187.166 280.324 187.285C279.735 187.404 279.195 187.693 278.771 188.114C278.347 188.536 278.059 189.072 277.942 189.655C277.825 190.238 277.885 190.842 278.114 191.391C278.343 191.941 278.731 192.411 279.23 192.743C279.728 193.075 280.315 193.254 280.916 193.258C281.322 193.261 281.724 193.183 282.099 193.031C282.474 192.878 282.815 192.652 283.101 192.368C283.387 192.083 283.613 191.745 283.765 191.374C283.917 191.002 283.993 190.604 283.988 190.203Z" fill="#ECB548"/>
<path d="M307.924 190.203C307.958 189.787 307.904 189.37 307.766 188.976C307.628 188.583 307.41 188.222 307.124 187.916C306.838 187.61 306.491 187.366 306.105 187.199C305.719 187.032 305.303 186.945 304.881 186.945C304.46 186.945 304.043 187.032 303.657 187.199C303.272 187.366 302.925 187.61 302.639 187.916C302.353 188.222 302.134 188.583 301.997 188.976C301.859 189.37 301.805 189.787 301.839 190.203C301.9 190.959 302.247 191.665 302.811 192.179C303.375 192.694 304.114 192.98 304.881 192.98C305.649 192.98 306.388 192.694 306.952 192.179C307.516 191.665 307.863 190.959 307.924 190.203Z" fill="#ECB548"/>
<path d="M331.88 190.203C331.872 189.607 331.686 189.027 331.345 188.535C331.004 188.044 330.524 187.663 329.964 187.441C329.405 187.219 328.791 187.166 328.201 187.288C327.611 187.41 327.071 187.702 326.649 188.128C326.227 188.553 325.941 189.093 325.829 189.678C325.716 190.264 325.782 190.869 326.017 191.418C326.252 191.966 326.646 192.434 327.15 192.762C327.653 193.089 328.244 193.262 328.847 193.258C329.25 193.258 329.649 193.179 330.021 193.025C330.393 192.87 330.73 192.644 331.012 192.36C331.294 192.075 331.517 191.738 331.666 191.368C331.815 190.997 331.887 190.601 331.88 190.203Z" fill="#ECB548"/>
<path d="M68.3112 161.158C68.3447 160.743 68.2909 160.325 68.1531 159.931C68.0154 159.538 67.7968 159.177 67.511 158.871C67.2252 158.565 66.8784 158.321 66.4924 158.154C66.1065 157.987 65.6898 157.901 65.2685 157.901C64.8472 157.901 64.4304 157.987 64.0445 158.154C63.6586 158.321 63.3118 158.565 63.026 158.871C62.7401 159.177 62.5215 159.538 62.3838 159.931C62.2461 160.325 62.1922 160.743 62.2257 161.158C62.2867 161.914 62.6338 162.62 63.1977 163.135C63.7616 163.649 64.5009 163.935 65.2685 163.935C66.036 163.935 66.7754 163.649 67.3393 163.135C67.9031 162.62 68.2502 161.914 68.3112 161.158Z" fill="#ECB548"/>
<path d="M92.2671 161.158C92.271 160.559 92.0947 159.973 91.7608 159.474C91.4269 158.975 90.9503 158.585 90.3918 158.355C89.8333 158.124 89.218 158.063 88.6241 158.178C88.0302 158.294 87.4845 158.582 87.0565 159.005C86.6284 159.428 86.3373 159.967 86.2201 160.555C86.103 161.142 86.1651 161.75 86.3985 162.302C86.6319 162.854 87.0261 163.325 87.531 163.655C88.0359 163.985 88.6287 164.159 89.2341 164.156C90.0385 164.156 90.81 163.84 91.3788 163.278C91.9476 162.715 92.2671 161.953 92.2671 161.158Z" fill="#ECB548"/>
<path d="M116.242 161.158C116.246 160.56 116.07 159.975 115.737 159.476C115.404 158.977 114.929 158.588 114.371 158.356C113.814 158.125 113.199 158.063 112.606 158.177C112.013 158.291 111.467 158.577 111.038 158.998C110.609 159.419 110.317 159.957 110.197 160.543C110.078 161.129 110.137 161.736 110.368 162.289C110.598 162.841 110.989 163.314 111.492 163.646C111.994 163.978 112.585 164.156 113.19 164.156C113.996 164.156 114.769 163.841 115.341 163.279C115.913 162.717 116.237 161.955 116.242 161.158Z" fill="#ECB548"/>
<path d="M140.197 161.158C140.231 160.743 140.177 160.325 140.039 159.931C139.902 159.538 139.683 159.177 139.397 158.871C139.111 158.565 138.765 158.321 138.379 158.154C137.993 157.987 137.576 157.901 137.155 157.901C136.733 157.901 136.317 157.987 135.931 158.154C135.545 158.321 135.198 158.565 134.912 158.871C134.626 159.177 134.408 159.538 134.27 159.931C134.132 160.325 134.078 160.743 134.112 161.158C134.173 161.914 134.52 162.62 135.084 163.135C135.648 163.649 136.387 163.935 137.155 163.935C137.922 163.935 138.662 163.649 139.225 163.135C139.789 162.62 140.136 161.914 140.197 161.158Z" fill="#ECB548"/>
<path d="M164.211 161.158C164.215 160.559 164.038 159.973 163.704 159.474C163.371 158.975 162.894 158.585 162.335 158.355C161.777 158.124 161.162 158.063 160.568 158.178C159.974 158.294 159.428 158.582 159 159.005C158.572 159.428 158.281 159.967 158.164 160.555C158.047 161.142 158.109 161.75 158.342 162.302C158.576 162.854 158.97 163.325 159.475 163.655C159.98 163.985 160.572 164.159 161.178 164.156C161.982 164.156 162.754 163.84 163.322 163.278C163.891 162.715 164.211 161.953 164.211 161.158Z" fill="#ECB548"/>
<path d="M188.108 161.158C188.112 160.559 187.936 159.973 187.602 159.474C187.268 158.975 186.792 158.585 186.233 158.355C185.674 158.124 185.059 158.063 184.465 158.178C183.871 158.294 183.326 158.582 182.898 159.005C182.47 159.428 182.178 159.967 182.061 160.555C181.944 161.142 182.006 161.75 182.24 162.302C182.473 162.854 182.867 163.325 183.372 163.655C183.877 163.985 184.47 164.159 185.075 164.156C185.88 164.156 186.651 163.84 187.22 163.278C187.789 162.715 188.108 161.953 188.108 161.158Z" fill="#ECB548"/>
<path d="M212.083 161.158C212.117 160.743 212.063 160.325 211.925 159.931C211.787 159.538 211.569 159.177 211.283 158.871C210.997 158.565 210.65 158.321 210.264 158.154C209.878 157.987 209.462 157.901 209.04 157.901C208.619 157.901 208.202 157.987 207.816 158.154C207.43 158.321 207.084 158.565 206.798 158.871C206.512 159.177 206.293 159.538 206.156 159.931C206.018 160.325 205.964 160.743 205.998 161.158C206.059 161.914 206.406 162.62 206.97 163.135C207.533 163.649 208.273 163.935 209.04 163.935C209.808 163.935 210.547 163.649 211.111 163.135C211.675 162.62 212.022 161.914 212.083 161.158Z" fill="#ECB548"/>
<path d="M236.039 161.158C236.072 160.743 236.018 160.325 235.881 159.931C235.743 159.538 235.524 159.177 235.238 158.871C234.953 158.565 234.606 158.321 234.22 158.154C233.834 157.987 233.417 157.901 232.996 157.901C232.575 157.901 232.158 157.987 231.772 158.154C231.386 158.321 231.039 158.565 230.753 158.871C230.467 159.177 230.249 159.538 230.111 159.931C229.973 160.325 229.92 160.743 229.953 161.158C230.014 161.914 230.361 162.62 230.925 163.135C231.489 163.649 232.228 163.935 232.996 163.935C233.763 163.935 234.503 163.649 235.067 163.135C235.631 162.62 235.978 161.914 236.039 161.158Z" fill="#ECB548"/>
<path d="M259.994 161.158C259.998 160.56 259.822 159.975 259.489 159.476C259.156 158.977 258.681 158.588 258.123 158.356C257.566 158.125 256.951 158.063 256.358 158.177C255.765 158.291 255.219 158.577 254.79 158.998C254.361 159.419 254.069 159.957 253.949 160.543C253.83 161.129 253.889 161.736 254.12 162.289C254.35 162.841 254.741 163.313 255.244 163.646C255.746 163.978 256.337 164.156 256.942 164.156C257.342 164.158 257.738 164.083 258.108 163.933C258.478 163.783 258.815 163.563 259.099 163.284C259.382 163.006 259.608 162.674 259.761 162.309C259.915 161.944 259.994 161.553 259.994 161.158Z" fill="#ECB548"/>
<path d="M283.988 161.158C283.992 160.56 283.816 159.975 283.483 159.476C283.15 158.977 282.675 158.588 282.117 158.356C281.56 158.125 280.946 158.063 280.352 158.177C279.759 158.291 279.213 158.577 278.784 158.998C278.355 159.419 278.063 159.957 277.943 160.543C277.824 161.129 277.883 161.736 278.114 162.289C278.344 162.841 278.736 163.314 279.238 163.646C279.74 163.978 280.331 164.156 280.936 164.156C281.742 164.156 282.515 163.841 283.087 163.279C283.659 162.717 283.983 161.955 283.988 161.158Z" fill="#ECB548"/>
<path d="M307.924 161.158C307.958 160.743 307.904 160.325 307.766 159.931C307.628 159.538 307.41 159.177 307.124 158.871C306.838 158.565 306.491 158.321 306.105 158.154C305.719 157.987 305.303 157.901 304.881 157.901C304.46 157.901 304.043 157.987 303.657 158.154C303.272 158.321 302.925 158.565 302.639 158.871C302.353 159.177 302.134 159.538 301.997 159.931C301.859 160.325 301.805 160.743 301.839 161.158C301.9 161.914 302.247 162.62 302.811 163.135C303.375 163.649 304.114 163.935 304.881 163.935C305.649 163.935 306.388 163.649 306.952 163.135C307.516 162.62 307.863 161.914 307.924 161.158Z" fill="#ECB548"/>
<path d="M331.88 161.158C331.883 160.559 331.707 159.973 331.373 159.474C331.039 158.975 330.563 158.585 330.004 158.355C329.446 158.124 328.83 158.063 328.237 158.178C327.643 158.294 327.097 158.582 326.669 159.005C326.241 159.428 325.95 159.967 325.833 160.555C325.715 161.142 325.778 161.75 326.011 162.302C326.244 162.854 326.639 163.325 327.144 163.655C327.648 163.985 328.241 164.159 328.847 164.156C329.651 164.156 330.422 163.84 330.991 163.278C331.56 162.715 331.88 161.953 331.88 161.158Z" fill="#ECB548"/>
<path d="M68.3117 132.15C68.3117 131.553 68.1327 130.97 67.7973 130.473C67.4619 129.977 66.9851 129.59 66.4274 129.362C65.8696 129.134 65.2559 129.074 64.6638 129.19C64.0717 129.307 63.5278 129.594 63.1009 130.016C62.6741 130.438 62.3833 130.976 62.2656 131.561C62.1478 132.146 62.2082 132.753 62.4393 133.304C62.6703 133.856 63.0615 134.327 63.5635 134.658C64.0654 134.99 64.6556 135.167 65.2593 135.167C65.6609 135.169 66.0589 135.093 66.4304 134.942C66.8019 134.792 67.1394 134.57 67.4234 134.289C67.7073 134.008 67.9321 133.675 68.0846 133.307C68.2371 132.94 68.3143 132.547 68.3117 132.15Z" fill="#ECB548"/>
<path d="M92.2672 132.15C92.2061 131.393 91.8591 130.688 91.2952 130.173C90.7313 129.658 89.992 129.372 89.2244 129.372C88.4569 129.372 87.7175 129.658 87.1536 130.173C86.5897 130.688 86.2427 131.393 86.1817 132.15C86.1482 132.565 86.202 132.982 86.3397 133.376C86.4775 133.769 86.6961 134.131 86.9819 134.436C87.2677 134.742 87.6145 134.987 88.0005 135.154C88.3864 135.321 88.8031 135.407 89.2244 135.407C89.6457 135.407 90.0625 135.321 90.4484 135.154C90.8343 134.987 91.1811 134.742 91.4669 134.436C91.7528 134.131 91.9714 133.769 92.1091 133.376C92.2468 132.982 92.3006 132.565 92.2672 132.15Z" fill="#ECB548"/>
<path d="M116.242 132.15C116.242 131.553 116.063 130.97 115.727 130.473C115.392 129.977 114.915 129.59 114.358 129.362C113.8 129.134 113.186 129.074 112.594 129.19C112.002 129.307 111.458 129.594 111.031 130.016C110.604 130.438 110.314 130.976 110.196 131.561C110.078 132.146 110.138 132.753 110.369 133.304C110.601 133.856 110.992 134.327 111.494 134.658C111.996 134.99 112.586 135.167 113.19 135.167C113.591 135.169 113.989 135.093 114.361 134.942C114.732 134.792 115.07 134.57 115.354 134.289C115.638 134.008 115.862 133.675 116.015 133.307C116.167 132.94 116.244 132.547 116.242 132.15Z" fill="#ECB548"/>
<path d="M140.197 132.15C140.209 131.55 140.039 130.96 139.71 130.456C139.381 129.952 138.907 129.557 138.349 129.32C137.792 129.083 137.175 129.016 136.579 129.128C135.982 129.239 135.433 129.524 135.001 129.945C134.569 130.367 134.274 130.906 134.154 131.494C134.033 132.082 134.093 132.693 134.325 133.247C134.558 133.801 134.952 134.275 135.457 134.606C135.963 134.938 136.557 135.113 137.164 135.11C137.962 135.11 138.728 134.799 139.295 134.245C139.863 133.691 140.187 132.938 140.197 132.15Z" fill="#ECB548"/>
<path d="M164.211 132.15C164.15 131.393 163.803 130.688 163.239 130.173C162.675 129.658 161.936 129.372 161.168 129.372C160.4 129.372 159.661 129.658 159.097 130.173C158.533 130.688 158.186 131.393 158.125 132.15C158.092 132.565 158.146 132.982 158.283 133.376C158.421 133.769 158.64 134.131 158.926 134.436C159.211 134.742 159.558 134.987 159.944 135.154C160.33 135.321 160.747 135.407 161.168 135.407C161.589 135.407 162.006 135.321 162.392 135.154C162.778 134.987 163.125 134.742 163.411 134.436C163.696 134.131 163.915 133.769 164.053 133.376C164.19 132.982 164.244 132.565 164.211 132.15Z" fill="#ECB548"/>
<path d="M188.108 132.15C188.047 131.393 187.7 130.688 187.136 130.173C186.572 129.658 185.833 129.372 185.066 129.372C184.298 129.372 183.559 129.658 182.995 130.173C182.431 130.688 182.084 131.393 182.023 132.15C181.989 132.565 182.043 132.982 182.181 133.376C182.319 133.769 182.537 134.131 182.823 134.436C183.109 134.742 183.456 134.987 183.842 135.154C184.228 135.321 184.644 135.407 185.066 135.407C185.487 135.407 185.904 135.321 186.289 135.154C186.675 134.987 187.022 134.742 187.308 134.436C187.594 134.131 187.812 133.769 187.95 133.376C188.088 132.982 188.142 132.565 188.108 132.15Z" fill="#ECB548"/>
<path d="M212.083 132.15C212.083 131.553 211.904 130.97 211.569 130.473C211.233 129.977 210.757 129.59 210.199 129.362C209.641 129.134 209.027 129.074 208.435 129.19C207.843 129.307 207.299 129.594 206.872 130.016C206.445 130.438 206.155 130.976 206.037 131.561C205.919 132.146 205.98 132.753 206.211 133.304C206.442 133.856 206.833 134.327 207.335 134.658C207.837 134.99 208.427 135.167 209.031 135.167C209.432 135.169 209.83 135.093 210.202 134.942C210.573 134.792 210.911 134.57 211.195 134.289C211.479 134.008 211.703 133.675 211.856 133.307C212.008 132.94 212.086 132.547 212.083 132.15Z" fill="#ECB548"/>
<path d="M236.039 132.15C236.039 131.553 235.86 130.97 235.524 130.473C235.189 129.977 234.712 129.59 234.154 129.362C233.597 129.134 232.983 129.074 232.391 129.19C231.799 129.307 231.255 129.594 230.828 130.016C230.401 130.438 230.11 130.976 229.992 131.561C229.875 132.146 229.935 132.753 230.166 133.304C230.397 133.856 230.788 134.327 231.29 134.658C231.792 134.99 232.382 135.167 232.986 135.167C233.388 135.169 233.786 135.093 234.157 134.942C234.529 134.792 234.866 134.57 235.15 134.289C235.434 134.008 235.659 133.675 235.811 133.307C235.964 132.94 236.041 132.547 236.039 132.15Z" fill="#ECB548"/>
<path d="M259.994 132.15C259.933 131.393 259.586 130.688 259.022 130.173C258.458 129.658 257.719 129.372 256.951 129.372C256.184 129.372 255.444 129.658 254.88 130.173C254.317 130.688 253.97 131.393 253.909 132.15C253.875 132.565 253.929 132.982 254.067 133.376C254.204 133.769 254.423 134.131 254.709 134.436C254.995 134.742 255.341 134.987 255.727 135.154C256.113 135.321 256.53 135.407 256.951 135.407C257.373 135.407 257.789 135.321 258.175 135.154C258.561 134.987 258.908 134.742 259.194 134.436C259.48 134.131 259.698 133.769 259.836 133.376C259.974 132.982 260.027 132.565 259.994 132.15Z" fill="#ECB548"/>
<path d="M283.988 132.15C283.988 131.553 283.809 130.97 283.474 130.473C283.138 129.977 282.661 129.59 282.104 129.362C281.546 129.134 280.932 129.074 280.34 129.19C279.748 129.307 279.204 129.594 278.777 130.016C278.35 130.438 278.06 130.976 277.942 131.561C277.824 132.146 277.885 132.753 278.116 133.304C278.347 133.856 278.738 134.327 279.24 134.658C279.742 134.99 280.332 135.167 280.936 135.167C281.337 135.169 281.735 135.093 282.107 134.942C282.478 134.792 282.816 134.57 283.1 134.289C283.384 134.008 283.608 133.675 283.761 133.307C283.913 132.94 283.991 132.547 283.988 132.15Z" fill="#ECB548"/>
<path d="M307.924 132.15C307.924 131.553 307.745 130.97 307.41 130.473C307.074 129.977 306.598 129.59 306.04 129.362C305.482 129.134 304.868 129.074 304.276 129.19C303.684 129.307 303.14 129.594 302.713 130.016C302.286 130.438 301.996 130.976 301.878 131.561C301.76 132.146 301.821 132.753 302.052 133.304C302.283 133.856 302.674 134.327 303.176 134.658C303.678 134.99 304.268 135.167 304.872 135.167C305.273 135.169 305.671 135.093 306.043 134.942C306.414 134.792 306.752 134.57 307.036 134.289C307.32 134.008 307.545 133.675 307.697 133.307C307.85 132.94 307.927 132.547 307.924 132.15Z" fill="#ECB548"/>
<path d="M331.88 132.15C331.819 131.393 331.472 130.688 330.908 130.173C330.344 129.658 329.604 129.372 328.837 129.372C328.069 129.372 327.33 129.658 326.766 130.173C326.202 130.688 325.855 131.393 325.794 132.15C325.761 132.565 325.814 132.982 325.952 133.376C326.09 133.769 326.309 134.131 326.594 134.436C326.88 134.742 327.227 134.987 327.613 135.154C327.999 135.321 328.416 135.407 328.837 135.407C329.258 135.407 329.675 135.321 330.061 135.154C330.447 134.987 330.794 134.742 331.079 134.436C331.365 134.131 331.584 133.769 331.722 133.376C331.859 132.982 331.913 132.565 331.88 132.15Z" fill="#ECB548"/>
<path d="M331.88 219.249C331.88 218.651 331.7 218.067 331.364 217.571C331.028 217.074 330.55 216.687 329.991 216.459C329.432 216.232 328.817 216.173 328.225 216.291C327.632 216.409 327.088 216.698 326.662 217.122C326.236 217.546 325.947 218.085 325.831 218.672C325.716 219.259 325.779 219.866 326.013 220.417C326.247 220.968 326.641 221.438 327.146 221.767C327.65 222.096 328.242 222.27 328.847 222.266C329.247 222.266 329.643 222.188 330.012 222.036C330.381 221.884 330.716 221.662 330.998 221.381C331.28 221.101 331.503 220.768 331.654 220.402C331.806 220.036 331.882 219.644 331.88 219.249Z" fill="#ECB548"/>
<path d="M355.835 219.249C355.835 218.651 355.656 218.067 355.319 217.571C354.983 217.074 354.505 216.687 353.946 216.459C353.387 216.232 352.773 216.173 352.18 216.291C351.588 216.409 351.044 216.698 350.618 217.122C350.191 217.546 349.902 218.085 349.787 218.672C349.671 219.259 349.734 219.866 349.968 220.417C350.202 220.968 350.597 221.438 351.101 221.767C351.606 222.096 352.198 222.27 352.802 222.266C353.202 222.266 353.598 222.188 353.967 222.036C354.337 221.884 354.672 221.662 354.954 221.381C355.236 221.101 355.459 220.768 355.61 220.402C355.761 220.036 355.838 219.644 355.835 219.249Z" fill="#ECB548"/>
<path d="M379.81 219.249C379.81 218.654 379.632 218.072 379.298 217.576C378.964 217.081 378.49 216.694 377.934 216.465C377.379 216.235 376.767 216.174 376.176 216.287C375.585 216.4 375.041 216.684 374.613 217.102C374.184 217.52 373.891 218.054 373.769 218.637C373.646 219.22 373.701 219.825 373.926 220.377C374.152 220.929 374.537 221.403 375.034 221.739C375.531 222.075 376.117 222.258 376.719 222.266C377.123 222.271 377.524 222.197 377.899 222.047C378.274 221.898 378.615 221.676 378.902 221.396C379.19 221.115 379.418 220.781 379.574 220.412C379.73 220.044 379.81 219.648 379.81 219.249Z" fill="#ECB548"/>
<path d="M331.88 190.203C331.872 189.607 331.686 189.027 331.345 188.535C331.004 188.044 330.524 187.663 329.964 187.441C329.405 187.219 328.791 187.166 328.201 187.288C327.611 187.41 327.071 187.702 326.649 188.128C326.227 188.553 325.941 189.093 325.829 189.678C325.716 190.264 325.782 190.869 326.017 191.418C326.252 191.966 326.646 192.434 327.15 192.762C327.653 193.089 328.244 193.262 328.847 193.258C329.25 193.258 329.649 193.179 330.021 193.025C330.393 192.87 330.73 192.644 331.012 192.36C331.294 192.075 331.517 191.738 331.666 191.368C331.815 190.997 331.887 190.601 331.88 190.203Z" fill="#ECB548"/>
<path d="M355.835 190.203C355.827 189.607 355.641 189.027 355.301 188.535C354.96 188.044 354.479 187.663 353.92 187.441C353.36 187.219 352.747 187.166 352.157 187.288C351.567 187.41 351.027 187.702 350.604 188.128C350.182 188.553 349.897 189.093 349.784 189.678C349.672 190.264 349.737 190.869 349.972 191.418C350.207 191.966 350.601 192.434 351.105 192.762C351.609 193.089 352.199 193.262 352.802 193.258C353.205 193.258 353.604 193.179 353.976 193.025C354.348 192.87 354.685 192.644 354.968 192.36C355.25 192.075 355.472 191.738 355.621 191.368C355.77 190.997 355.843 190.601 355.835 190.203Z" fill="#ECB548"/>
<path d="M379.81 190.203C379.844 189.787 379.79 189.37 379.652 188.976C379.514 188.583 379.296 188.222 379.01 187.916C378.724 187.61 378.377 187.366 377.991 187.199C377.605 187.032 377.189 186.945 376.767 186.945C376.346 186.945 375.929 187.032 375.543 187.199C375.157 187.366 374.81 187.61 374.525 187.916C374.239 188.222 374.02 188.583 373.882 188.976C373.745 189.37 373.691 189.787 373.724 190.203C373.785 190.959 374.132 191.665 374.696 192.179C375.26 192.694 376 192.98 376.767 192.98C377.535 192.98 378.274 192.694 378.838 192.179C379.402 191.665 379.749 190.959 379.81 190.203Z" fill="#ECB548"/>
<path d="M331.88 161.157C331.883 160.559 331.707 159.973 331.373 159.474C331.039 158.975 330.563 158.585 330.004 158.354C329.446 158.123 328.83 158.062 328.237 158.178C327.643 158.294 327.097 158.581 326.669 159.004C326.241 159.428 325.95 159.967 325.833 160.554C325.715 161.141 325.778 161.749 326.011 162.301C326.244 162.854 326.639 163.325 327.144 163.655C327.648 163.985 328.241 164.159 328.847 164.155C329.651 164.155 330.422 163.839 330.991 163.277C331.56 162.715 331.88 161.952 331.88 161.157Z" fill="#ECB548"/>
<path d="M355.835 161.157C355.839 160.559 355.663 159.973 355.329 159.474C354.995 158.975 354.518 158.585 353.96 158.354C353.401 158.123 352.786 158.062 352.192 158.178C351.598 158.294 351.052 158.581 350.624 159.005C350.196 159.428 349.905 159.967 349.788 160.554C349.671 161.141 349.733 161.749 349.966 162.301C350.2 162.854 350.594 163.325 351.099 163.655C351.604 163.985 352.197 164.159 352.802 164.155C353.606 164.155 354.378 163.839 354.947 163.277C355.516 162.715 355.835 161.952 355.835 161.157Z" fill="#ECB548"/>
<path d="M379.81 161.157C379.843 160.742 379.79 160.325 379.652 159.931C379.514 159.537 379.295 159.176 379.01 158.87C378.724 158.564 378.377 158.32 377.991 158.153C377.605 157.986 377.188 157.9 376.767 157.9C376.346 157.9 375.929 157.986 375.543 158.153C375.157 158.32 374.81 158.564 374.525 158.87C374.239 159.176 374.02 159.537 373.882 159.931C373.745 160.325 373.691 160.742 373.724 161.157C373.785 161.913 374.132 162.619 374.696 163.134C375.26 163.649 376 163.935 376.767 163.935C377.535 163.935 378.274 163.649 378.838 163.134C379.402 162.619 379.749 161.913 379.81 161.157Z" fill="#ECB548"/>
<path d="M331.879 132.15C331.818 131.393 331.471 130.688 330.907 130.173C330.343 129.658 329.604 129.372 328.836 129.372C328.069 129.372 327.33 129.658 326.766 130.173C326.202 130.688 325.855 131.393 325.794 132.15C325.76 132.565 325.814 132.982 325.952 133.376C326.089 133.769 326.308 134.131 326.594 134.436C326.88 134.742 327.227 134.987 327.612 135.154C327.998 135.321 328.415 135.407 328.836 135.407C329.258 135.407 329.674 135.321 330.06 135.154C330.446 134.987 330.793 134.742 331.079 134.436C331.365 134.131 331.583 133.769 331.721 133.376C331.859 132.982 331.913 132.565 331.879 132.15Z" fill="#ECB548"/>
<path d="M355.835 132.15C355.835 131.342 355.51 130.567 354.933 129.996C354.355 129.425 353.571 129.104 352.754 129.104C351.937 129.104 351.153 129.425 350.575 129.996C349.997 130.567 349.672 131.342 349.672 132.15C349.639 132.565 349.693 132.982 349.83 133.376C349.968 133.769 350.187 134.131 350.473 134.436C350.758 134.742 351.105 134.987 351.491 135.154C351.877 135.321 352.294 135.407 352.715 135.407C353.136 135.407 353.553 135.321 353.939 135.154C354.325 134.987 354.672 134.742 354.958 134.436C355.243 134.131 355.462 133.769 355.6 133.376C355.737 132.982 355.791 132.565 355.758 132.15H355.835Z" fill="#ECB548"/>
<path d="M379.81 132.15C379.821 131.552 379.653 130.965 379.326 130.462C379 129.96 378.529 129.564 377.975 129.326C377.421 129.087 376.807 129.017 376.212 129.124C375.618 129.231 375.068 129.51 374.634 129.926C374.2 130.341 373.901 130.875 373.774 131.46C373.647 132.044 373.698 132.652 373.922 133.207C374.145 133.763 374.53 134.24 375.028 134.579C375.526 134.917 376.114 135.102 376.719 135.11C377.119 135.117 377.516 135.047 377.889 134.902C378.261 134.757 378.6 134.541 378.888 134.266C379.175 133.99 379.404 133.662 379.563 133.299C379.721 132.936 379.805 132.545 379.81 132.15Z" fill="#ECB548"/>
<path d="M20.3815 104.419C20.3814 103.82 20.2008 103.234 19.8627 102.737C19.5247 102.24 19.0445 101.853 18.4834 101.627C17.9223 101.4 17.3056 101.344 16.7119 101.465C16.1183 101.586 15.5746 101.879 15.1501 102.307C14.7256 102.735 14.4396 103.277 14.3284 103.866C14.2173 104.456 14.2861 105.064 14.526 105.614C14.7659 106.164 15.1662 106.632 15.6757 106.956C16.1852 107.281 16.781 107.448 17.387 107.436C18.1881 107.426 18.9526 107.103 19.5136 106.538C20.0746 105.973 20.3866 105.211 20.3815 104.419Z" fill="#ECB548"/>
<path d="M44.4335 104.419C44.4335 103.823 44.2545 103.239 43.9191 102.743C43.5837 102.247 43.107 101.86 42.5492 101.632C41.9915 101.403 41.3777 101.344 40.7856 101.46C40.1935 101.576 39.6497 101.864 39.2228 102.286C38.7959 102.708 38.5052 103.245 38.3874 103.831C38.2696 104.416 38.3301 105.023 38.5611 105.574C38.7921 106.125 39.1834 106.596 39.6853 106.928C40.1873 107.26 40.7774 107.437 41.3811 107.437C42.1907 107.437 42.9671 107.119 43.5395 106.553C44.1119 105.987 44.4335 105.219 44.4335 104.419Z" fill="#ECB548"/>
<path d="M68.3117 104.419C68.3117 103.823 68.1327 103.239 67.7973 102.743C67.4619 102.247 66.9852 101.86 66.4274 101.632C65.8697 101.403 65.2559 101.344 64.6638 101.46C64.0717 101.576 63.5278 101.864 63.1009 102.286C62.6741 102.708 62.3833 103.245 62.2656 103.831C62.1478 104.416 62.2082 105.023 62.4393 105.574C62.6703 106.125 63.0615 106.596 63.5635 106.928C64.0655 107.26 64.6556 107.437 65.2593 107.437C66.0688 107.437 66.8452 107.119 67.4177 106.553C67.9901 105.987 68.3117 105.219 68.3117 104.419Z" fill="#ECB548"/>
<path d="M20.3814 75.3732C20.3737 74.7757 20.1866 74.194 19.844 73.7017C19.5013 73.2094 19.0185 72.8288 18.4568 72.6081C17.8951 72.3874 17.2797 72.3365 16.6886 72.4619C16.0976 72.5873 15.5576 72.8834 15.137 73.3126C14.7163 73.7417 14.4341 74.2847 14.3261 74.8726C14.218 75.4605 14.289 76.0669 14.53 76.6149C14.771 77.1629 15.1712 77.6278 15.6798 77.9507C16.1884 78.2736 16.7826 78.44 17.387 78.4287C17.787 78.4237 18.182 78.3406 18.5493 78.1841C18.9167 78.0276 19.2491 77.8008 19.5274 77.5168C19.8057 77.2329 20.0245 76.8973 20.171 76.5294C20.3176 76.1615 20.3891 75.7685 20.3814 75.3732Z" fill="#ECB548"/>
<path d="M44.4335 75.373C44.467 74.9579 44.4132 74.5404 44.2755 74.1468C44.1378 73.7533 43.9191 73.3921 43.6333 73.0862C43.3475 72.7802 43.0007 72.5361 42.6148 72.3691C42.2288 72.2021 41.8121 72.1159 41.3908 72.1159C40.9695 72.1159 40.5528 72.2021 40.1668 72.3691C39.7809 72.5361 39.4341 72.7802 39.1483 73.0862C38.8625 73.3921 38.6438 73.7533 38.5061 74.1468C38.3684 74.5404 38.3146 74.9579 38.3481 75.373C38.4091 76.1293 38.7561 76.8351 39.32 77.3498C39.8839 77.8646 40.6232 78.1504 41.3908 78.1504C42.1583 78.1504 42.8977 77.8646 43.4616 77.3498C44.0255 76.8351 44.3725 76.1293 44.4335 75.373Z" fill="#ECB548"/>
<path d="M68.3117 75.373C68.3452 74.9579 68.2914 74.5404 68.1536 74.1468C68.0159 73.7533 67.7973 73.3921 67.5115 73.0862C67.2257 72.7802 66.8789 72.5361 66.4929 72.3691C66.107 72.2021 65.6903 72.1159 65.269 72.1159C64.8477 72.1159 64.4309 72.2021 64.045 72.3691C63.6591 72.5361 63.3123 72.7802 63.0264 73.0862C62.7406 73.3921 62.522 73.7533 62.3843 74.1468C62.2465 74.5404 62.1927 74.9579 62.2262 75.373C62.2872 76.1293 62.6343 76.8351 63.1982 77.3498C63.762 77.8646 64.5014 78.1504 65.269 78.1504C66.0365 78.1504 66.7759 77.8646 67.3398 77.3498C67.9036 76.8351 68.2507 76.1293 68.3117 75.373Z" fill="#ECB548"/>
<path d="M20.3814 46.328C20.3852 45.728 20.2079 45.1405 19.8722 44.6407C19.5365 44.1408 19.0576 43.7512 18.4968 43.5217C17.936 43.2921 17.3187 43.2331 16.7238 43.3521C16.1289 43.471 15.5834 43.7626 15.1569 44.1896C14.7305 44.6166 14.4425 45.1595 14.3298 45.7491C14.2171 46.3386 14.2847 46.948 14.5241 47.4993C14.7635 48.0507 15.1637 48.519 15.6737 48.8444C16.1836 49.1698 16.7801 49.3375 17.387 49.3261C18.1847 49.3161 18.9463 48.9958 19.5068 48.4346C20.0673 47.8734 20.3815 47.1165 20.3814 46.328Z" fill="#ECB548"/>
<path d="M44.4335 46.3281C44.467 45.9129 44.4132 45.4955 44.2754 45.1019C44.1377 44.7083 43.9191 44.3472 43.6333 44.0413C43.3474 43.7353 43.0007 43.4912 42.6147 43.3242C42.2288 43.1572 41.812 43.071 41.3907 43.071C40.9695 43.071 40.5527 43.1572 40.1668 43.3242C39.7808 43.4912 39.4341 43.7353 39.1482 44.0413C38.8624 44.3472 38.6438 44.7083 38.5061 45.1019C38.3683 45.4955 38.3145 45.9129 38.348 46.3281C38.409 47.0844 38.7561 47.7902 39.3199 48.3049C39.8838 48.8196 40.6232 49.1055 41.3907 49.1055C42.1583 49.1055 42.8977 48.8196 43.4616 48.3049C44.0254 47.7902 44.3725 47.0844 44.4335 46.3281Z" fill="#ECB548"/>
<path d="M68.3116 46.3281C68.3451 45.9129 68.2913 45.4955 68.1536 45.1019C68.0159 44.7083 67.7972 44.3472 67.5114 44.0413C67.2256 43.7353 66.8788 43.4912 66.4929 43.3242C66.1069 43.1572 65.6902 43.071 65.2689 43.071C64.8476 43.071 64.4309 43.1572 64.045 43.3242C63.659 43.4912 63.3122 43.7353 63.0264 44.0413C62.7406 44.3472 62.5219 44.7083 62.3842 45.1019C62.2465 45.4955 62.1927 45.9129 62.2262 46.3281C62.2872 47.0844 62.6342 47.7902 63.1981 48.3049C63.762 48.8196 64.5014 49.1055 65.2689 49.1055C66.0365 49.1055 66.7758 48.8196 67.3397 48.3049C67.9036 47.7902 68.2506 47.0844 68.3116 46.3281Z" fill="#ECB548"/>
<path d="M20.381 17.3201C20.3199 16.5638 19.9729 15.8579 19.409 15.3432C18.8451 14.8285 18.1058 14.5427 17.3382 14.5427C16.5707 14.5427 15.8313 14.8285 15.2674 15.3432C14.7035 15.8579 14.3565 16.5638 14.2955 17.3201C14.262 17.7352 14.3158 18.1527 14.4535 18.5462C14.5913 18.9398 14.8099 19.3009 15.0957 19.6069C15.3815 19.9128 15.7283 20.157 16.1143 20.324C16.5002 20.4909 16.9169 20.5771 17.3382 20.5771C17.7595 20.5771 18.1763 20.4909 18.5622 20.324C18.9481 20.157 19.2949 19.9128 19.5807 19.6069C19.8666 19.3009 20.0852 18.9398 20.2229 18.5462C20.3606 18.1527 20.4145 17.7352 20.381 17.3201Z" fill="#ECB548"/>
<path d="M44.4335 17.3201C44.4335 16.7233 44.2545 16.14 43.9191 15.6438C43.5837 15.1476 43.107 14.7609 42.5492 14.5325C41.9915 14.3042 41.3777 14.2444 40.7856 14.3608C40.1935 14.4773 39.6497 14.7646 39.2228 15.1866C38.7959 15.6086 38.5052 16.1462 38.3874 16.7315C38.2696 17.3168 38.3301 17.9234 38.5611 18.4747C38.7921 19.0261 39.1834 19.4973 39.6853 19.8288C40.1873 20.1604 40.7774 20.3373 41.3811 20.3373C41.7827 20.3399 42.1808 20.2636 42.5523 20.1128C42.9237 19.9621 43.2613 19.7399 43.5452 19.4593C43.8292 19.1786 44.0539 18.845 44.2064 18.4777C44.3589 18.1105 44.4361 17.717 44.4335 17.3201Z" fill="#ECB548"/>
<path d="M68.3117 17.3201C68.3117 16.7233 68.1327 16.14 67.7973 15.6438C67.4619 15.1476 66.9852 14.7609 66.4274 14.5325C65.8697 14.3042 65.2559 14.2444 64.6638 14.3608C64.0717 14.4773 63.5278 14.7646 63.1009 15.1866C62.6741 15.6086 62.3833 16.1462 62.2656 16.7315C62.1478 17.3168 62.2082 17.9234 62.4393 18.4747C62.6703 19.0261 63.0615 19.4973 63.5635 19.8288C64.0655 20.1604 64.6556 20.3373 65.2593 20.3373C65.6609 20.3399 66.0589 20.2636 66.4304 20.1128C66.8019 19.9621 67.1394 19.7399 67.4234 19.4593C67.7073 19.1786 67.9321 18.845 68.0846 18.4777C68.2371 18.1105 68.3143 17.717 68.3117 17.3201Z" fill="#ECB548"/>
<path d="M68.3117 104.419C68.3117 103.823 68.1327 103.239 67.7973 102.743C67.4619 102.247 66.9852 101.86 66.4274 101.632C65.8697 101.403 65.2559 101.344 64.6638 101.46C64.0717 101.576 63.5278 101.864 63.1009 102.286C62.6741 102.708 62.3833 103.245 62.2656 103.831C62.1478 104.416 62.2082 105.023 62.4393 105.574C62.6703 106.125 63.0615 106.596 63.5635 106.928C64.0655 107.26 64.6556 107.437 65.2593 107.437C66.0688 107.437 66.8452 107.119 67.4177 106.553C67.9901 105.987 68.3117 105.219 68.3117 104.419Z" fill="#ECB548"/>
<path d="M92.2671 104.419C92.2671 103.822 92.0876 103.238 91.7514 102.741C91.4151 102.244 90.9372 101.858 90.3784 101.63C89.8195 101.402 89.2048 101.343 88.6121 101.461C88.0195 101.579 87.4757 101.869 87.0496 102.293C86.6235 102.716 86.3343 103.256 86.2187 103.842C86.1031 104.429 86.1663 105.036 86.4003 105.587C86.6343 106.138 87.0285 106.608 87.533 106.937C88.0375 107.267 88.6296 107.44 89.2341 107.436C89.634 107.436 90.03 107.358 90.3993 107.206C90.7685 107.055 91.1037 106.832 91.3856 106.552C91.6675 106.271 91.8905 105.938 92.0418 105.572C92.1931 105.206 92.2697 104.815 92.2671 104.419Z" fill="#ECB548"/>
<path d="M116.242 104.419C116.242 103.823 116.063 103.239 115.727 102.743C115.392 102.247 114.915 101.86 114.358 101.632C113.8 101.403 113.186 101.344 112.594 101.46C112.002 101.576 111.458 101.864 111.031 102.286C110.604 102.708 110.314 103.245 110.196 103.831C110.078 104.416 110.138 105.023 110.369 105.574C110.601 106.125 110.992 106.596 111.494 106.928C111.996 107.26 112.586 107.437 113.19 107.437C113.999 107.437 114.775 107.119 115.348 106.553C115.92 105.987 116.242 105.219 116.242 104.419Z" fill="#ECB548"/>
<path d="M140.197 104.419C140.197 103.822 140.018 103.238 139.682 102.741C139.345 102.244 138.867 101.858 138.309 101.63C137.75 101.402 137.135 101.343 136.542 101.461C135.95 101.579 135.406 101.869 134.98 102.293C134.554 102.716 134.265 103.256 134.149 103.842C134.033 104.429 134.097 105.036 134.331 105.587C134.565 106.138 134.959 106.608 135.463 106.937C135.968 107.267 136.56 107.44 137.164 107.436C137.971 107.431 138.742 107.111 139.31 106.546C139.878 105.981 140.197 105.216 140.197 104.419Z" fill="#ECB548"/>
<path d="M164.211 104.419C164.211 103.824 164.033 103.242 163.699 102.747C163.365 102.252 162.891 101.865 162.335 101.635C161.78 101.406 161.168 101.344 160.577 101.457C159.986 101.571 159.442 101.854 159.014 102.273C158.585 102.691 158.292 103.225 158.169 103.808C158.047 104.39 158.102 104.996 158.327 105.548C158.553 106.1 158.938 106.573 159.435 106.91C159.931 107.246 160.518 107.429 161.12 107.436C161.525 107.444 161.927 107.372 162.303 107.223C162.679 107.075 163.021 106.853 163.309 106.572C163.597 106.291 163.825 105.956 163.98 105.586C164.135 105.216 164.213 104.819 164.211 104.419Z" fill="#ECB548"/>
<path d="M188.108 104.419C188.108 103.822 187.929 103.238 187.592 102.741C187.256 102.244 186.778 101.858 186.219 101.63C185.661 101.402 185.046 101.343 184.453 101.461C183.861 101.579 183.317 101.869 182.891 102.293C182.465 102.716 182.175 103.256 182.06 103.842C181.944 104.429 182.007 105.036 182.241 105.587C182.475 106.138 182.87 106.608 183.374 106.937C183.879 107.267 184.471 107.44 185.075 107.436C185.475 107.436 185.871 107.358 186.24 107.206C186.61 107.055 186.945 106.832 187.227 106.552C187.509 106.271 187.732 105.938 187.883 105.572C188.034 105.206 188.111 104.815 188.108 104.419Z" fill="#ECB548"/>
<path d="M212.083 104.419C212.083 103.823 211.904 103.239 211.569 102.743C211.233 102.247 210.757 101.86 210.199 101.632C209.641 101.403 209.027 101.344 208.435 101.46C207.843 101.576 207.299 101.864 206.872 102.286C206.445 102.708 206.155 103.245 206.037 103.831C205.919 104.416 205.98 105.023 206.211 105.574C206.442 106.125 206.833 106.596 207.335 106.928C207.837 107.26 208.427 107.437 209.031 107.437C209.84 107.437 210.617 107.119 211.189 106.553C211.761 105.987 212.083 105.219 212.083 104.419Z" fill="#ECB548"/>
<path d="M236.039 104.419C236.039 103.823 235.859 103.239 235.524 102.743C235.189 102.247 234.712 101.86 234.154 101.632C233.596 101.403 232.983 101.344 232.391 101.46C231.799 101.576 231.255 101.864 230.828 102.286C230.401 102.708 230.11 103.245 229.992 103.831C229.875 104.416 229.935 105.023 230.166 105.574C230.397 106.125 230.788 106.596 231.29 106.928C231.792 107.26 232.382 107.437 232.986 107.437C233.796 107.437 234.572 107.119 235.144 106.553C235.717 105.987 236.039 105.219 236.039 104.419Z" fill="#ECB548"/>
<path d="M259.994 104.419C259.994 103.822 259.815 103.239 259.48 102.743C259.144 102.247 258.667 101.86 258.11 101.632C257.552 101.403 256.938 101.344 256.346 101.46C255.754 101.576 255.21 101.864 254.783 102.286C254.356 102.708 254.066 103.245 253.948 103.831C253.83 104.416 253.891 105.023 254.122 105.574C254.353 106.125 254.744 106.596 255.246 106.928C255.748 107.26 256.338 107.436 256.942 107.436C257.343 107.439 257.741 107.363 258.113 107.212C258.484 107.061 258.822 106.839 259.106 106.558C259.39 106.278 259.614 105.944 259.767 105.577C259.919 105.21 259.997 104.816 259.994 104.419Z" fill="#ECB548"/>
<path d="M283.988 104.419C283.988 103.823 283.809 103.239 283.474 102.743C283.138 102.247 282.662 101.86 282.104 101.632C281.546 101.403 280.932 101.344 280.34 101.46C279.748 101.576 279.204 101.864 278.777 102.286C278.35 102.708 278.06 103.245 277.942 103.831C277.824 104.416 277.885 105.023 278.116 105.574C278.347 106.125 278.738 106.596 279.24 106.928C279.742 107.26 280.332 107.437 280.936 107.437C281.745 107.437 282.522 107.119 283.094 106.553C283.666 105.987 283.988 105.219 283.988 104.419Z" fill="#ECB548"/>
<path d="M307.924 104.419C307.924 103.823 307.745 103.239 307.41 102.743C307.074 102.247 306.598 101.86 306.04 101.632C305.482 101.403 304.868 101.344 304.276 101.46C303.684 101.576 303.14 101.864 302.713 102.286C302.287 102.708 301.996 103.245 301.878 103.831C301.76 104.416 301.821 105.023 302.052 105.574C302.283 106.125 302.674 106.596 303.176 106.928C303.678 107.26 304.268 107.437 304.872 107.437C305.681 107.437 306.458 107.119 307.03 106.553C307.603 105.987 307.924 105.219 307.924 104.419Z" fill="#ECB548"/>
<path d="M331.88 104.419C331.88 103.822 331.7 103.238 331.364 102.741C331.028 102.244 330.55 101.858 329.991 101.63C329.432 101.402 328.817 101.343 328.225 101.461C327.632 101.579 327.088 101.869 326.662 102.293C326.236 102.716 325.947 103.256 325.831 103.842C325.716 104.429 325.779 105.036 326.013 105.587C326.247 106.138 326.641 106.608 327.146 106.937C327.65 107.267 328.242 107.44 328.847 107.436C329.247 107.436 329.643 107.358 330.012 107.206C330.381 107.055 330.716 106.832 330.998 106.552C331.28 106.271 331.503 105.938 331.654 105.572C331.806 105.206 331.882 104.815 331.88 104.419Z" fill="#ECB548"/>
<path d="M68.3112 75.373C68.3447 74.9579 68.2909 74.5404 68.1531 74.1468C68.0154 73.7533 67.7968 73.3921 67.511 73.0862C67.2252 72.7802 66.8784 72.5361 66.4924 72.3691C66.1065 72.2021 65.6898 72.1159 65.2685 72.1159C64.8472 72.1159 64.4304 72.2021 64.0445 72.3691C63.6586 72.5361 63.3118 72.7802 63.026 73.0862C62.7401 73.3921 62.5215 73.7533 62.3838 74.1468C62.2461 74.5404 62.1922 74.9579 62.2257 75.373C62.2867 76.1293 62.6338 76.8351 63.1977 77.3498C63.7616 77.8646 64.5009 78.1504 65.2685 78.1504C66.036 78.1504 66.7754 77.8646 67.3393 77.3498C67.9031 76.8351 68.2502 76.1293 68.3112 75.373Z" fill="#ECB548"/>
<path d="M92.2672 75.3732C92.2595 74.7773 92.0735 74.197 91.7327 73.7055C91.3918 73.214 90.9113 72.8332 90.3518 72.6113C89.7923 72.3893 89.1789 72.3361 88.5888 72.4584C87.9988 72.5806 87.4586 72.8729 87.0363 73.2982C86.6141 73.7236 86.3287 74.263 86.2162 74.8485C86.1037 75.4339 86.1692 76.0392 86.4042 76.588C86.6393 77.1367 87.0335 77.6044 87.5371 77.932C88.0408 78.2595 88.6312 78.4324 89.2341 78.4287C89.6373 78.4287 90.0365 78.3493 90.4083 78.1951C90.7802 78.0408 91.1171 77.8149 91.3995 77.5304C91.682 77.2459 91.9042 76.9085 92.0531 76.5382C92.2021 76.1678 92.2749 75.7717 92.2672 75.3732Z" fill="#ECB548"/>
<path d="M116.242 75.3733C116.234 74.7782 116.049 74.1986 115.709 73.7075C115.369 73.2164 114.889 72.8356 114.331 72.6131C113.773 72.3905 113.16 72.3362 112.571 72.4569C111.981 72.5776 111.441 72.868 111.018 73.2914C110.595 73.7149 110.308 74.2525 110.193 74.8367C110.079 75.421 110.141 76.0257 110.373 76.5748C110.606 77.1239 110.997 77.5929 111.498 77.9227C111.999 78.2526 112.587 78.4287 113.19 78.4287C113.594 78.4287 113.994 78.3495 114.367 78.1954C114.739 78.0414 115.078 77.8158 115.362 77.5315C115.646 77.2473 115.87 76.9101 116.021 76.5397C116.172 76.1692 116.247 75.7727 116.242 75.3733Z" fill="#ECB548"/>
<path d="M140.197 75.373C140.231 74.9579 140.177 74.5404 140.039 74.1468C139.902 73.7533 139.683 73.3921 139.397 73.0862C139.111 72.7802 138.765 72.5361 138.379 72.3691C137.993 72.2021 137.576 72.1159 137.155 72.1159C136.733 72.1159 136.317 72.2021 135.931 72.3691C135.545 72.5361 135.198 72.7802 134.912 73.0862C134.626 73.3921 134.408 73.7533 134.27 74.1468C134.132 74.5404 134.078 74.9579 134.112 75.373C134.173 76.1293 134.52 76.8351 135.084 77.3498C135.648 77.8646 136.387 78.1504 137.155 78.1504C137.922 78.1504 138.662 77.8646 139.225 77.3498C139.789 76.8351 140.136 76.1293 140.197 75.373Z" fill="#ECB548"/>
<path d="M164.211 75.3732C164.203 74.7798 164.019 74.2017 163.68 73.7114C163.342 73.2212 162.865 72.8404 162.309 72.6168C161.753 72.3931 161.142 72.3366 160.554 72.4542C159.965 72.5719 159.425 72.8585 159 73.2781C158.576 73.6978 158.286 74.2319 158.167 74.8136C158.048 75.3953 158.105 75.9988 158.331 76.5485C158.557 77.0982 158.943 77.5698 159.439 77.9043C159.935 78.2387 160.519 78.4211 161.12 78.4286C161.528 78.4364 161.933 78.3627 162.312 78.2119C162.69 78.0611 163.034 77.8363 163.323 77.5511C163.612 77.2658 163.839 76.9258 163.992 76.5516C164.144 76.1774 164.219 75.7766 164.211 75.3732Z" fill="#ECB548"/>
<path d="M188.108 75.3732C188.101 74.7773 187.915 74.197 187.574 73.7055C187.233 73.214 186.753 72.8332 186.193 72.6113C185.633 72.3893 185.02 72.3361 184.43 72.4584C183.84 72.5806 183.3 72.8729 182.877 73.2982C182.455 73.7236 182.17 74.263 182.057 74.8485C181.945 75.4339 182.01 76.0392 182.245 76.588C182.48 77.1367 182.875 77.6044 183.378 77.932C183.882 78.2595 184.472 78.4324 185.075 78.4287C185.478 78.4287 185.878 78.3493 186.25 78.1951C186.621 78.0408 186.958 77.8149 187.241 77.5304C187.523 77.2459 187.745 76.9085 187.894 76.5382C188.043 76.1678 188.116 75.7717 188.108 75.3732Z" fill="#ECB548"/>
<path d="M212.083 75.373C212.117 74.9579 212.063 74.5404 211.925 74.1468C211.787 73.7533 211.569 73.3921 211.283 73.0862C210.997 72.7802 210.65 72.5361 210.264 72.3691C209.878 72.2021 209.462 72.1159 209.04 72.1159C208.619 72.1159 208.202 72.2021 207.816 72.3691C207.43 72.5361 207.084 72.7802 206.798 73.0862C206.512 73.3921 206.293 73.7533 206.156 74.1468C206.018 74.5404 205.964 74.9579 205.998 75.373C206.059 76.1293 206.406 76.8351 206.97 77.3498C207.533 77.8646 208.273 78.1504 209.04 78.1504C209.808 78.1504 210.547 77.8646 211.111 77.3498C211.675 76.8351 212.022 76.1293 212.083 75.373Z" fill="#ECB548"/>
<path d="M236.039 75.373C236.072 74.9579 236.018 74.5404 235.881 74.1468C235.743 73.7533 235.524 73.3921 235.238 73.0862C234.953 72.7802 234.606 72.5361 234.22 72.3691C233.834 72.2021 233.417 72.1159 232.996 72.1159C232.575 72.1159 232.158 72.2021 231.772 72.3691C231.386 72.5361 231.039 72.7802 230.753 73.0862C230.467 73.3921 230.249 73.7533 230.111 74.1468C229.973 74.5404 229.92 74.9579 229.953 75.373C230.014 76.1293 230.361 76.8351 230.925 77.3498C231.489 77.8646 232.228 78.1504 232.996 78.1504C233.763 78.1504 234.503 77.8646 235.067 77.3498C235.631 76.8351 235.978 76.1293 236.039 75.373Z" fill="#ECB548"/>
<path d="M259.994 75.3732C259.986 74.7781 259.801 74.1986 259.461 73.7074C259.121 73.2163 258.642 72.8355 258.083 72.613C257.525 72.3905 256.912 72.3362 256.323 72.4569C255.733 72.5776 255.193 72.8679 254.77 73.2913C254.347 73.7148 254.06 74.2524 253.945 74.8367C253.831 75.4209 253.893 76.0256 254.125 76.5747C254.358 77.1238 254.749 77.5928 255.25 77.9227C255.751 78.2526 256.34 78.4286 256.942 78.4286C257.346 78.4313 257.748 78.3537 258.122 78.2006C258.496 78.0475 258.835 77.822 259.12 77.5372C259.404 77.2524 259.628 76.9143 259.778 76.5426C259.928 76.1709 260.002 75.7733 259.994 75.3732Z" fill="#ECB548"/>
<path d="M283.988 75.3732C283.98 74.779 283.795 74.2002 283.456 73.7094C283.117 73.2187 282.639 72.8379 282.082 72.6149C281.524 72.3918 280.913 72.3363 280.324 72.4555C279.735 72.5746 279.195 72.8631 278.771 73.2846C278.347 73.7062 278.059 74.2421 277.942 74.825C277.825 75.408 277.885 76.0121 278.114 76.5615C278.343 77.111 278.731 77.5813 279.23 77.9134C279.728 78.2456 280.315 78.4248 280.916 78.4286C281.322 78.4312 281.724 78.3538 282.099 78.2009C282.474 78.048 282.815 77.8228 283.101 77.5383C283.387 77.2538 283.613 76.9158 283.765 76.544C283.917 76.1723 283.993 75.7743 283.988 75.3732Z" fill="#ECB548"/>
<path d="M307.924 75.373C307.958 74.9579 307.904 74.5404 307.766 74.1468C307.628 73.7533 307.41 73.3921 307.124 73.0862C306.838 72.7802 306.491 72.5361 306.105 72.3691C305.719 72.2021 305.303 72.1159 304.881 72.1159C304.46 72.1159 304.043 72.2021 303.657 72.3691C303.272 72.5361 302.925 72.7802 302.639 73.0862C302.353 73.3921 302.134 73.7533 301.997 74.1468C301.859 74.5404 301.805 74.9579 301.839 75.373C301.9 76.1293 302.247 76.8351 302.811 77.3498C303.375 77.8646 304.114 78.1504 304.881 78.1504C305.649 78.1504 306.388 77.8646 306.952 77.3498C307.516 76.8351 307.863 76.1293 307.924 75.373Z" fill="#ECB548"/>
<path d="M331.88 75.3732C331.872 74.7773 331.686 74.197 331.345 73.7055C331.004 73.214 330.524 72.8332 329.964 72.6113C329.405 72.3893 328.791 72.3361 328.201 72.4584C327.611 72.5806 327.071 72.8729 326.649 73.2982C326.227 73.7236 325.941 74.263 325.829 74.8485C325.716 75.4339 325.782 76.0392 326.017 76.588C326.252 77.1367 326.646 77.6044 327.15 77.932C327.653 78.2595 328.244 78.4324 328.847 78.4287C329.25 78.4287 329.649 78.3493 330.021 78.1951C330.393 78.0408 330.73 77.8149 331.012 77.5304C331.294 77.2459 331.517 76.9085 331.666 76.5382C331.815 76.1678 331.887 75.7717 331.88 75.3732Z" fill="#ECB548"/>
<path d="M68.3112 46.3281C68.3447 45.9129 68.2909 45.4955 68.1531 45.1019C68.0154 44.7083 67.7968 44.3472 67.511 44.0413C67.2252 43.7353 66.8784 43.4912 66.4924 43.3242C66.1065 43.1572 65.6898 43.071 65.2685 43.071C64.8472 43.071 64.4304 43.1572 64.0445 43.3242C63.6586 43.4912 63.3118 43.7353 63.026 44.0413C62.7401 44.3472 62.5215 44.7083 62.3838 45.1019C62.2461 45.4955 62.1922 45.9129 62.2257 46.3281C62.2867 47.0844 62.6338 47.7902 63.1977 48.3049C63.7616 48.8196 64.5009 49.1055 65.2685 49.1055C66.036 49.1055 66.7754 48.8196 67.3393 48.3049C67.9031 47.7902 68.2502 47.0844 68.3112 46.3281Z" fill="#ECB548"/>
<path d="M92.2671 46.328C92.271 45.7296 92.0947 45.1436 91.7608 44.6445C91.4269 44.1454 90.9503 43.7557 90.3918 43.525C89.8333 43.2943 89.218 43.2329 88.6241 43.3487C88.0302 43.4645 87.4845 43.7523 87.0565 44.1754C86.6284 44.5985 86.3373 45.1379 86.2201 45.725C86.103 46.312 86.1651 46.9203 86.3985 47.4724C86.6319 48.0245 87.0261 48.4955 87.531 48.8256C88.0359 49.1557 88.6287 49.3299 89.2341 49.3261C90.0385 49.3261 90.81 49.0102 91.3788 48.448C91.9476 47.8857 92.2671 47.1231 92.2671 46.328Z" fill="#ECB548"/>
<path d="M116.242 46.328C116.246 45.7305 116.07 45.1452 115.737 44.6466C115.404 44.1479 114.929 43.7582 114.371 43.5269C113.814 43.2956 113.199 43.2331 112.606 43.3473C112.013 43.4616 111.467 43.7475 111.038 44.1687C110.609 44.5898 110.317 45.1274 110.197 45.7132C110.078 46.299 110.137 46.9067 110.368 47.4591C110.598 48.0116 110.989 48.4839 111.492 48.8163C111.994 49.1487 112.585 49.3262 113.19 49.3262C113.996 49.3262 114.769 49.0109 115.341 48.4492C115.913 47.8875 116.237 47.1249 116.242 46.328Z" fill="#ECB548"/>
<path d="M140.197 46.3281C140.231 45.9129 140.177 45.4955 140.039 45.1019C139.902 44.7083 139.683 44.3472 139.397 44.0413C139.111 43.7353 138.765 43.4912 138.379 43.3242C137.993 43.1572 137.576 43.071 137.155 43.071C136.733 43.071 136.317 43.1572 135.931 43.3242C135.545 43.4912 135.198 43.7353 134.912 44.0413C134.626 44.3472 134.408 44.7083 134.27 45.1019C134.132 45.4955 134.078 45.9129 134.112 46.3281C134.173 47.0844 134.52 47.7902 135.084 48.3049C135.648 48.8196 136.387 49.1055 137.155 49.1055C137.922 49.1055 138.662 48.8196 139.225 48.3049C139.789 47.7902 140.136 47.0844 140.197 46.3281Z" fill="#ECB548"/>
<path d="M164.211 46.328C164.215 45.7296 164.038 45.1436 163.704 44.6445C163.371 44.1454 162.894 43.7557 162.335 43.525C161.777 43.2943 161.162 43.2329 160.568 43.3487C159.974 43.4645 159.428 43.7523 159 44.1754C158.572 44.5985 158.281 45.1379 158.164 45.725C158.047 46.312 158.109 46.9203 158.342 47.4724C158.576 48.0245 158.97 48.4955 159.475 48.8256C159.98 49.1557 160.572 49.3299 161.178 49.3261C161.982 49.3261 162.754 49.0102 163.322 48.448C163.891 47.8857 164.211 47.1231 164.211 46.328Z" fill="#ECB548"/>
<path d="M188.108 46.328C188.112 45.7296 187.936 45.1436 187.602 44.6445C187.268 44.1454 186.792 43.7557 186.233 43.525C185.674 43.2943 185.059 43.2329 184.465 43.3487C183.871 43.4645 183.326 43.7523 182.898 44.1754C182.47 44.5985 182.178 45.1379 182.061 45.725C181.944 46.312 182.006 46.9203 182.24 47.4724C182.473 48.0245 182.867 48.4955 183.372 48.8256C183.877 49.1557 184.47 49.3299 185.075 49.3261C185.88 49.3261 186.651 49.0102 187.22 48.448C187.789 47.8857 188.108 47.1231 188.108 46.328Z" fill="#ECB548"/>
<path d="M212.083 46.3281C212.117 45.9129 212.063 45.4955 211.925 45.1019C211.787 44.7083 211.569 44.3472 211.283 44.0413C210.997 43.7353 210.65 43.4912 210.264 43.3242C209.878 43.1572 209.462 43.071 209.04 43.071C208.619 43.071 208.202 43.1572 207.816 43.3242C207.43 43.4912 207.084 43.7353 206.798 44.0413C206.512 44.3472 206.293 44.7083 206.156 45.1019C206.018 45.4955 205.964 45.9129 205.998 46.3281C206.059 47.0844 206.406 47.7902 206.97 48.3049C207.533 48.8196 208.273 49.1055 209.04 49.1055C209.808 49.1055 210.547 48.8196 211.111 48.3049C211.675 47.7902 212.022 47.0844 212.083 46.3281Z" fill="#ECB548"/>
<path d="M236.039 46.3281C236.072 45.9129 236.018 45.4955 235.881 45.1019C235.743 44.7083 235.524 44.3472 235.238 44.0413C234.953 43.7353 234.606 43.4912 234.22 43.3242C233.834 43.1572 233.417 43.071 232.996 43.071C232.575 43.071 232.158 43.1572 231.772 43.3242C231.386 43.4912 231.039 43.7353 230.753 44.0413C230.467 44.3472 230.249 44.7083 230.111 45.1019C229.973 45.4955 229.92 45.9129 229.953 46.3281C230.014 47.0844 230.361 47.7902 230.925 48.3049C231.489 48.8196 232.228 49.1055 232.996 49.1055C233.763 49.1055 234.503 48.8196 235.067 48.3049C235.631 47.7902 235.978 47.0844 236.039 46.3281Z" fill="#ECB548"/>
<path d="M259.994 46.328C259.998 45.7304 259.822 45.1452 259.489 44.6465C259.156 44.1478 258.681 43.7581 258.123 43.5268C257.566 43.2955 256.951 43.233 256.358 43.3473C255.765 43.4615 255.219 43.7474 254.79 44.1686C254.361 44.5898 254.069 45.1274 253.949 45.7132C253.83 46.299 253.889 46.9066 254.12 47.4591C254.35 48.0115 254.741 48.4839 255.244 48.8163C255.746 49.1487 256.337 49.3261 256.942 49.3261C257.342 49.3286 257.738 49.2529 258.108 49.1034C258.478 48.9539 258.815 48.7334 259.099 48.4548C259.382 48.1761 259.608 47.8447 259.761 47.4797C259.915 47.1147 259.994 46.7233 259.994 46.328Z" fill="#ECB548"/>
<path d="M283.988 46.328C283.992 45.7305 283.816 45.1452 283.483 44.6466C283.15 44.1479 282.675 43.7582 282.117 43.5269C281.56 43.2956 280.946 43.2331 280.352 43.3473C279.759 43.4616 279.213 43.7475 278.784 44.1687C278.355 44.5898 278.063 45.1274 277.943 45.7132C277.824 46.299 277.883 46.9067 278.114 47.4591C278.344 48.0116 278.736 48.4839 279.238 48.8163C279.74 49.1487 280.331 49.3262 280.936 49.3262C281.742 49.3262 282.515 49.0109 283.087 48.4492C283.659 47.8875 283.983 47.1249 283.988 46.328Z" fill="#ECB548"/>
<path d="M307.924 46.3281C307.958 45.9129 307.904 45.4955 307.766 45.1019C307.628 44.7083 307.41 44.3472 307.124 44.0413C306.838 43.7353 306.491 43.4912 306.105 43.3242C305.719 43.1572 305.303 43.071 304.881 43.071C304.46 43.071 304.043 43.1572 303.657 43.3242C303.272 43.4912 302.925 43.7353 302.639 44.0413C302.353 44.3472 302.134 44.7083 301.997 45.1019C301.859 45.4955 301.805 45.9129 301.839 46.3281C301.9 47.0844 302.247 47.7902 302.811 48.3049C303.375 48.8196 304.114 49.1055 304.881 49.1055C305.649 49.1055 306.388 48.8196 306.952 48.3049C307.516 47.7902 307.863 47.0844 307.924 46.3281Z" fill="#ECB548"/>
<path d="M331.88 46.328C331.883 45.7296 331.707 45.1436 331.373 44.6445C331.039 44.1454 330.563 43.7557 330.004 43.525C329.446 43.2943 328.83 43.2329 328.237 43.3487C327.643 43.4645 327.097 43.7523 326.669 44.1754C326.241 44.5985 325.95 45.1379 325.833 45.725C325.715 46.312 325.778 46.9203 326.011 47.4724C326.244 48.0245 326.639 48.4955 327.144 48.8256C327.648 49.1557 328.241 49.3299 328.847 49.3261C329.651 49.3261 330.422 49.0102 330.991 48.448C331.56 47.8857 331.88 47.1231 331.88 46.328Z" fill="#ECB548"/>
<path d="M68.3117 17.3201C68.3117 16.7233 68.1327 16.14 67.7973 15.6438C67.4619 15.1476 66.9851 14.7609 66.4274 14.5325C65.8696 14.3042 65.2559 14.2444 64.6638 14.3608C64.0717 14.4773 63.5278 14.7646 63.1009 15.1866C62.6741 15.6086 62.3833 16.1462 62.2656 16.7315C62.1478 17.3168 62.2082 17.9234 62.4393 18.4747C62.6703 19.0261 63.0615 19.4973 63.5635 19.8288C64.0654 20.1604 64.6556 20.3373 65.2593 20.3373C65.6609 20.3399 66.0589 20.2636 66.4304 20.1128C66.8019 19.9621 67.1394 19.7399 67.4234 19.4593C67.7073 19.1786 67.9321 18.845 68.0846 18.4777C68.2371 18.1105 68.3143 17.717 68.3117 17.3201Z" fill="#ECB548"/>
<path d="M92.2672 17.3201C92.2061 16.5638 91.8591 15.8579 91.2952 15.3432C90.7313 14.8285 89.992 14.5427 89.2244 14.5427C88.4569 14.5427 87.7175 14.8285 87.1536 15.3432C86.5897 15.8579 86.2427 16.5638 86.1817 17.3201C86.1482 17.7352 86.202 18.1527 86.3397 18.5462C86.4775 18.9398 86.6961 19.3009 86.9819 19.6069C87.2677 19.9128 87.6145 20.157 88.0005 20.324C88.3864 20.4909 88.8031 20.5771 89.2244 20.5771C89.6457 20.5771 90.0625 20.4909 90.4484 20.324C90.8343 20.157 91.1811 19.9128 91.4669 19.6069C91.7528 19.3009 91.9714 18.9398 92.1091 18.5462C92.2468 18.1527 92.3006 17.7352 92.2672 17.3201Z" fill="#ECB548"/>
<path d="M116.242 17.3201C116.242 16.7233 116.063 16.14 115.727 15.6438C115.392 15.1476 114.915 14.7609 114.358 14.5325C113.8 14.3042 113.186 14.2444 112.594 14.3608C112.002 14.4773 111.458 14.7646 111.031 15.1866C110.604 15.6086 110.314 16.1462 110.196 16.7315C110.078 17.3168 110.138 17.9234 110.369 18.4747C110.601 19.0261 110.992 19.4973 111.494 19.8288C111.996 20.1604 112.586 20.3373 113.19 20.3373C113.591 20.3399 113.989 20.2636 114.361 20.1128C114.732 19.9621 115.07 19.7399 115.354 19.4593C115.638 19.1786 115.862 18.845 116.015 18.4777C116.167 18.1105 116.244 17.717 116.242 17.3201Z" fill="#ECB548"/>
<path d="M140.197 17.3203C140.209 16.7204 140.039 16.1307 139.71 15.6267C139.381 15.1226 138.907 14.727 138.349 14.4903C137.792 14.2537 137.175 14.1868 136.579 14.2983C135.982 14.4097 135.433 14.6944 135.001 15.1159C134.569 15.5374 134.274 16.0766 134.154 16.6647C134.033 17.2528 134.093 17.863 134.325 18.4173C134.558 18.9717 134.952 19.445 135.457 19.7768C135.963 20.1086 136.557 20.2839 137.164 20.2802C137.962 20.2803 138.728 19.9697 139.295 19.4156C139.863 18.8616 140.187 18.1088 140.197 17.3203Z" fill="#ECB548"/>
<path d="M164.211 17.3201C164.15 16.5638 163.803 15.8579 163.239 15.3432C162.675 14.8285 161.936 14.5427 161.168 14.5427C160.4 14.5427 159.661 14.8285 159.097 15.3432C158.533 15.8579 158.186 16.5638 158.125 17.3201C158.092 17.7352 158.146 18.1527 158.283 18.5462C158.421 18.9398 158.64 19.3009 158.926 19.6069C159.211 19.9128 159.558 20.157 159.944 20.324C160.33 20.4909 160.747 20.5771 161.168 20.5771C161.589 20.5771 162.006 20.4909 162.392 20.324C162.778 20.157 163.125 19.9128 163.411 19.6069C163.696 19.3009 163.915 18.9398 164.053 18.5462C164.19 18.1527 164.244 17.7352 164.211 17.3201Z" fill="#ECB548"/>
<path d="M188.108 17.3201C188.047 16.5638 187.7 15.8579 187.136 15.3432C186.572 14.8285 185.833 14.5427 185.066 14.5427C184.298 14.5427 183.559 14.8285 182.995 15.3432C182.431 15.8579 182.084 16.5638 182.023 17.3201C181.989 17.7352 182.043 18.1527 182.181 18.5462C182.319 18.9398 182.537 19.3009 182.823 19.6069C183.109 19.9128 183.456 20.157 183.842 20.324C184.228 20.4909 184.644 20.5771 185.066 20.5771C185.487 20.5771 185.904 20.4909 186.289 20.324C186.675 20.157 187.022 19.9128 187.308 19.6069C187.594 19.3009 187.812 18.9398 187.95 18.5462C188.088 18.1527 188.142 17.7352 188.108 17.3201Z" fill="#ECB548"/>
<path d="M212.083 17.3201C212.083 16.7233 211.904 16.14 211.569 15.6438C211.233 15.1476 210.757 14.7609 210.199 14.5325C209.641 14.3042 209.027 14.2444 208.435 14.3608C207.843 14.4773 207.299 14.7646 206.872 15.1866C206.445 15.6086 206.155 16.1462 206.037 16.7315C205.919 17.3168 205.98 17.9234 206.211 18.4747C206.442 19.0261 206.833 19.4973 207.335 19.8288C207.837 20.1604 208.427 20.3373 209.031 20.3373C209.432 20.3399 209.83 20.2636 210.202 20.1128C210.573 19.9621 210.911 19.7399 211.195 19.4593C211.479 19.1786 211.703 18.845 211.856 18.4777C212.008 18.1105 212.086 17.717 212.083 17.3201Z" fill="#ECB548"/>
<path d="M236.039 17.3201C236.039 16.7233 235.86 16.14 235.524 15.6438C235.189 15.1476 234.712 14.7609 234.154 14.5325C233.597 14.3042 232.983 14.2444 232.391 14.3608C231.799 14.4773 231.255 14.7646 230.828 15.1866C230.401 15.6086 230.11 16.1462 229.992 16.7315C229.875 17.3168 229.935 17.9234 230.166 18.4747C230.397 19.0261 230.788 19.4973 231.29 19.8288C231.792 20.1604 232.382 20.3373 232.986 20.3373C233.388 20.3399 233.786 20.2636 234.157 20.1128C234.529 19.9621 234.866 19.7399 235.15 19.4593C235.434 19.1786 235.659 18.845 235.811 18.4777C235.964 18.1105 236.041 17.717 236.039 17.3201Z" fill="#ECB548"/>
<path d="M259.994 17.3201C259.933 16.5638 259.586 15.8579 259.022 15.3432C258.458 14.8285 257.719 14.5427 256.951 14.5427C256.184 14.5427 255.444 14.8285 254.88 15.3432C254.317 15.8579 253.97 16.5638 253.909 17.3201C253.875 17.7352 253.929 18.1527 254.067 18.5462C254.204 18.9398 254.423 19.3009 254.709 19.6069C254.995 19.9128 255.341 20.157 255.727 20.324C256.113 20.4909 256.53 20.5771 256.951 20.5771C257.373 20.5771 257.789 20.4909 258.175 20.324C258.561 20.157 258.908 19.9128 259.194 19.6069C259.48 19.3009 259.698 18.9398 259.836 18.5462C259.974 18.1527 260.027 17.7352 259.994 17.3201Z" fill="#ECB548"/>
<path d="M283.988 17.3201C283.988 16.7233 283.809 16.14 283.474 15.6438C283.138 15.1476 282.661 14.7609 282.104 14.5325C281.546 14.3042 280.932 14.2444 280.34 14.3608C279.748 14.4773 279.204 14.7646 278.777 15.1866C278.35 15.6086 278.06 16.1462 277.942 16.7315C277.824 17.3168 277.885 17.9234 278.116 18.4747C278.347 19.0261 278.738 19.4973 279.24 19.8288C279.742 20.1604 280.332 20.3373 280.936 20.3373C281.337 20.3399 281.735 20.2636 282.107 20.1128C282.478 19.9621 282.816 19.7399 283.1 19.4593C283.384 19.1786 283.608 18.845 283.761 18.4777C283.913 18.1105 283.991 17.717 283.988 17.3201Z" fill="#ECB548"/>
<path d="M307.924 17.3201C307.924 16.7233 307.745 16.14 307.41 15.6438C307.074 15.1476 306.598 14.7609 306.04 14.5325C305.482 14.3042 304.868 14.2444 304.276 14.3608C303.684 14.4773 303.14 14.7646 302.713 15.1866C302.286 15.6086 301.996 16.1462 301.878 16.7315C301.76 17.3168 301.821 17.9234 302.052 18.4747C302.283 19.0261 302.674 19.4973 303.176 19.8288C303.678 20.1604 304.268 20.3373 304.872 20.3373C305.273 20.3399 305.671 20.2636 306.043 20.1128C306.414 19.9621 306.752 19.7399 307.036 19.4593C307.32 19.1786 307.545 18.845 307.697 18.4777C307.85 18.1105 307.927 17.717 307.924 17.3201Z" fill="#ECB548"/>
<path d="M331.88 17.3201C331.819 16.5638 331.472 15.8579 330.908 15.3432C330.344 14.8285 329.604 14.5427 328.837 14.5427C328.069 14.5427 327.33 14.8285 326.766 15.3432C326.202 15.8579 325.855 16.5638 325.794 17.3201C325.761 17.7352 325.814 18.1527 325.952 18.5462C326.09 18.9398 326.309 19.3009 326.594 19.6069C326.88 19.9128 327.227 20.157 327.613 20.324C327.999 20.4909 328.416 20.5771 328.837 20.5771C329.258 20.5771 329.675 20.4909 330.061 20.324C330.447 20.157 330.794 19.9128 331.079 19.6069C331.365 19.3009 331.584 18.9398 331.722 18.5462C331.859 18.1527 331.913 17.7352 331.88 17.3201Z" fill="#ECB548"/>
<path d="M331.88 104.419C331.88 103.822 331.7 103.238 331.364 102.741C331.028 102.244 330.55 101.858 329.991 101.63C329.432 101.402 328.817 101.343 328.225 101.461C327.632 101.579 327.088 101.869 326.662 102.293C326.236 102.716 325.947 103.256 325.831 103.842C325.716 104.429 325.779 105.036 326.013 105.587C326.247 106.138 326.641 106.608 327.146 106.937C327.65 107.267 328.242 107.44 328.847 107.436C329.247 107.436 329.643 107.358 330.012 107.206C330.381 107.055 330.716 106.832 330.998 106.552C331.28 106.271 331.503 105.938 331.654 105.572C331.806 105.206 331.882 104.815 331.88 104.419Z" fill="#ECB548"/>
<path d="M355.835 104.419C355.835 103.822 355.656 103.238 355.319 102.741C354.983 102.244 354.505 101.858 353.946 101.63C353.387 101.402 352.773 101.343 352.18 101.461C351.588 101.579 351.044 101.869 350.618 102.293C350.191 102.716 349.902 103.256 349.787 103.842C349.671 104.429 349.734 105.036 349.968 105.587C350.202 106.138 350.597 106.608 351.101 106.937C351.606 107.267 352.198 107.44 352.802 107.436C353.202 107.436 353.598 107.358 353.967 107.206C354.337 107.055 354.672 106.832 354.954 106.552C355.236 106.271 355.459 105.938 355.61 105.572C355.761 105.206 355.838 104.815 355.835 104.419Z" fill="#ECB548"/>
<path d="M379.81 104.419C379.81 103.824 379.632 103.242 379.298 102.747C378.964 102.251 378.49 101.865 377.934 101.635C377.379 101.406 376.767 101.344 376.176 101.457C375.585 101.571 375.041 101.854 374.613 102.272C374.184 102.691 373.891 103.225 373.769 103.807C373.646 104.39 373.701 104.996 373.926 105.547C374.152 106.099 374.537 106.573 375.034 106.909C375.531 107.245 376.117 107.429 376.719 107.436C377.123 107.441 377.524 107.367 377.899 107.218C378.274 107.068 378.615 106.847 378.902 106.566C379.19 106.285 379.418 105.951 379.574 105.583C379.73 105.214 379.81 104.818 379.81 104.419Z" fill="#ECB548"/>
<path d="M331.88 75.3732C331.872 74.7773 331.686 74.197 331.345 73.7055C331.004 73.214 330.524 72.8332 329.964 72.6113C329.405 72.3893 328.791 72.3361 328.201 72.4584C327.611 72.5806 327.071 72.8729 326.649 73.2982C326.227 73.7236 325.941 74.263 325.829 74.8485C325.716 75.4339 325.782 76.0392 326.017 76.588C326.252 77.1367 326.646 77.6044 327.15 77.932C327.653 78.2595 328.244 78.4324 328.847 78.4287C329.25 78.4287 329.649 78.3493 330.021 78.1951C330.393 78.0408 330.73 77.8149 331.012 77.5304C331.294 77.2459 331.517 76.9085 331.666 76.5382C331.815 76.1678 331.887 75.7717 331.88 75.3732Z" fill="#ECB548"/>
<path d="M355.835 75.3732C355.827 74.7773 355.641 74.197 355.301 73.7055C354.96 73.214 354.479 72.8332 353.92 72.6113C353.36 72.3893 352.747 72.3361 352.157 72.4584C351.567 72.5806 351.027 72.8729 350.604 73.2982C350.182 73.7236 349.897 74.263 349.784 74.8485C349.672 75.4339 349.737 76.0392 349.972 76.588C350.207 77.1367 350.601 77.6044 351.105 77.932C351.609 78.2595 352.199 78.4324 352.802 78.4287C353.205 78.4287 353.604 78.3493 353.976 78.1951C354.348 78.0408 354.685 77.8149 354.968 77.5304C355.25 77.2459 355.472 76.9085 355.621 76.5382C355.77 76.1678 355.843 75.7717 355.835 75.3732Z" fill="#ECB548"/>
<path d="M379.81 75.373C379.844 74.9579 379.79 74.5404 379.652 74.1468C379.514 73.7533 379.296 73.3921 379.01 73.0862C378.724 72.7802 378.377 72.5361 377.991 72.3691C377.605 72.2021 377.189 72.1159 376.767 72.1159C376.346 72.1159 375.929 72.2021 375.543 72.3691C375.157 72.5361 374.81 72.7802 374.525 73.0862C374.239 73.3921 374.02 73.7533 373.882 74.1468C373.745 74.5404 373.691 74.9579 373.724 75.373C373.785 76.1293 374.132 76.8351 374.696 77.3498C375.26 77.8646 376 78.1504 376.767 78.1504C377.535 78.1504 378.274 77.8646 378.838 77.3498C379.402 76.8351 379.749 76.1293 379.81 75.373Z" fill="#ECB548"/>
<path d="M331.88 46.3275C331.883 45.7291 331.707 45.1431 331.373 44.644C331.039 44.1449 330.563 43.7552 330.004 43.5245C329.446 43.2938 328.83 43.2324 328.237 43.3482C327.643 43.464 327.097 43.7518 326.669 44.1749C326.241 44.598 325.95 45.1374 325.833 45.7245C325.715 46.3115 325.778 46.9198 326.011 47.4719C326.244 48.024 326.639 48.495 327.144 48.8251C327.648 49.1552 328.241 49.3294 328.847 49.3256C329.651 49.3256 330.422 49.0098 330.991 48.4475C331.56 47.8852 331.88 47.1226 331.88 46.3275Z" fill="#ECB548"/>
<path d="M355.835 46.3275C355.839 45.7291 355.663 45.1431 355.329 44.644C354.995 44.1449 354.518 43.7553 353.96 43.5245C353.401 43.2938 352.786 43.2324 352.192 43.3482C351.598 43.4641 351.052 43.7518 350.624 44.1749C350.196 44.598 349.905 45.1374 349.788 45.7245C349.671 46.3115 349.733 46.9198 349.966 47.4719C350.2 48.024 350.594 48.495 351.099 48.8251C351.604 49.1552 352.197 49.3294 352.802 49.3256C353.606 49.3256 354.378 49.0098 354.947 48.4475C355.516 47.8852 355.835 47.1226 355.835 46.3275Z" fill="#ECB548"/>
<path d="M379.81 46.3276C379.843 45.9125 379.79 45.495 379.652 45.1014C379.514 44.7078 379.295 44.3467 379.01 44.0408C378.724 43.7348 378.377 43.4907 377.991 43.3237C377.605 43.1567 377.188 43.0705 376.767 43.0705C376.346 43.0705 375.929 43.1567 375.543 43.3237C375.157 43.4907 374.81 43.7348 374.525 44.0408C374.239 44.3467 374.02 44.7078 373.882 45.1014C373.745 45.495 373.691 45.9125 373.724 46.3276C373.785 47.0839 374.132 47.7897 374.696 48.3044C375.26 48.8191 376 49.105 376.767 49.105C377.535 49.105 378.274 48.8191 378.838 48.3044C379.402 47.7897 379.749 47.0839 379.81 46.3276Z" fill="#ECB548"/>
<path d="M331.879 17.3201C331.818 16.5638 331.471 15.8579 330.907 15.3432C330.343 14.8285 329.604 14.5427 328.836 14.5427C328.069 14.5427 327.33 14.8285 326.766 15.3432C326.202 15.8579 325.855 16.5638 325.794 17.3201C325.76 17.7352 325.814 18.1527 325.952 18.5462C326.089 18.9398 326.308 19.3009 326.594 19.6069C326.88 19.9128 327.227 20.157 327.612 20.324C327.998 20.4909 328.415 20.5771 328.836 20.5771C329.258 20.5771 329.674 20.4909 330.06 20.324C330.446 20.157 330.793 19.9128 331.079 19.6069C331.365 19.3009 331.583 18.9398 331.721 18.5462C331.859 18.1527 331.913 17.7352 331.879 17.3201Z" fill="#ECB548"/>
<path d="M355.835 17.3201C355.835 16.5122 355.51 15.7375 354.933 15.1663C354.355 14.5951 353.571 14.2742 352.754 14.2742C351.937 14.2742 351.153 14.5951 350.575 15.1663C349.997 15.7375 349.672 16.5122 349.672 17.3201C349.639 17.7352 349.693 18.1527 349.83 18.5462C349.968 18.9398 350.187 19.3009 350.473 19.6069C350.758 19.9128 351.105 20.157 351.491 20.324C351.877 20.4909 352.294 20.5771 352.715 20.5771C353.136 20.5771 353.553 20.4909 353.939 20.324C354.325 20.157 354.672 19.9128 354.958 19.6069C355.243 19.3009 355.462 18.9398 355.6 18.5462C355.737 18.1527 355.791 17.7352 355.758 17.3201H355.835Z" fill="#ECB548"/>
<path d="M379.81 17.3203C379.821 16.7228 379.653 16.1355 379.326 15.6327C379 15.13 378.529 14.7344 377.975 14.4961C377.421 14.2579 376.807 14.1878 376.212 14.2946C375.618 14.4014 375.068 14.6803 374.634 15.0961C374.2 15.5119 373.901 16.0457 373.774 16.6299C373.647 17.2141 373.698 17.8225 373.922 18.3777C374.145 18.933 374.53 19.4102 375.028 19.7489C375.526 20.0876 376.114 20.2725 376.719 20.2802C377.119 20.2878 377.516 20.2171 377.889 20.0722C378.261 19.9273 378.6 19.7111 378.888 19.436C379.175 19.1609 379.404 18.8323 379.563 18.4692C379.721 18.1061 379.805 17.7156 379.81 17.3203Z" fill="#ECB548"/>
</svg>
