<svg width="270" height="85" viewBox="0 0 270 85" fill="none" xmlns="http://www.w3.org/2000/svg">
<path d="M2.07504 -128.837C0.927673 -128.837 0 -129.765 0 -130.912C0 -132.06 0.927673 -133 2.07504 -133C3.22241 -133 4.15004 -132.072 4.15004 -130.912C4.15004 -129.765 3.22241 -128.837 2.07504 -128.837ZM2.07504 -107.452C0.927673 -107.452 0 -108.38 0 -109.527C0 -110.675 0.927673 -111.602 2.07504 -111.602C3.22241 -111.602 4.15004 -110.675 4.15004 -109.527C4.15004 -108.38 3.22241 -107.452 2.07504 -107.452ZM2.07504 -86.0673C0.927673 -86.0673 0 -86.995 0 -88.1423C0 -89.2897 0.927673 -90.2174 2.07504 -90.2174C3.22241 -90.2174 4.15004 -89.2897 4.15004 -88.1423C4.15004 -86.995 3.22241 -86.0673 2.07504 -86.0673ZM2.07504 -64.6824C0.927673 -64.6824 0 -65.61 0 -66.7574C0 -67.9047 0.927673 -68.8324 2.07504 -68.8324C3.22241 -68.8324 4.15004 -67.9047 4.15004 -66.7574C4.15004 -65.61 3.22241 -64.6824 2.07504 -64.6824ZM2.07504 -43.3096C0.927673 -43.3096 0 -44.2373 0 -45.3846C0 -46.532 0.927673 -47.4596 2.07504 -47.4596C3.22241 -47.4596 4.15004 -46.532 4.15004 -45.3846C4.15004 -44.2251 3.22241 -43.3096 2.07504 -43.3096ZM2.07504 -21.9246C0.927673 -21.9246 0 -22.8523 0 -23.9996C0 -25.147 0.927673 -26.0747 2.07504 -26.0747C3.22241 -26.0747 4.15004 -25.147 4.15004 -23.9996C4.15004 -22.8523 3.22241 -21.9246 2.07504 -21.9246ZM2.07504 -0.539658C0.927673 -0.539658 0 -1.46733 0 -2.6147C0 -3.76207 0.927673 -4.6897 2.07504 -4.6897C3.22241 -4.6897 4.15004 -3.76207 4.15004 -2.6147C4.15004 -1.46733 3.22241 -0.539658 2.07504 -0.539658ZM2.07504 20.8575C0.927673 20.8575 0 19.9299 0 18.7703C0 17.6229 0.927673 16.6953 2.07504 16.6953C3.22241 16.6953 4.15004 17.6229 4.15004 18.7703C4.15004 19.9177 3.22241 20.8575 2.07504 20.8575ZM2.07504 42.2303C0.927673 42.2303 0 41.3026 0 40.1552C0 39.0079 0.927673 38.0802 2.07504 38.0802C3.22241 38.0802 4.15004 39.0079 4.15004 40.1552C4.15004 41.3026 3.22241 42.2303 2.07504 42.2303ZM2.07504 63.6152C0.927673 63.6152 0 62.6876 0 61.5402C0 60.3928 0.927673 59.4652 2.07504 59.4652C3.22241 59.4652 4.15004 60.3928 4.15004 61.5402C4.15004 62.6876 3.22241 63.6152 2.07504 63.6152ZM2.07504 85.0002C0.927673 85.0002 0 84.0726 0 82.9252C0 81.7778 0.927673 80.8501 2.07504 80.8501C3.22241 80.8501 4.15004 81.7778 4.15004 82.9252C4.15004 84.0726 3.22241 85.0002 2.07504 85.0002Z" fill="#414272" fill-opacity="0.5"/>
<path d="M26.78 -128.838C25.6327 -128.838 24.705 -129.765 24.705 -130.913C24.705 -132.06 25.6327 -133 26.78 -133C27.9274 -133 28.8551 -132.072 28.8551 -130.913C28.8551 -129.765 27.9274 -128.838 26.78 -128.838ZM26.78 -107.453C25.6327 -107.453 24.705 -108.38 24.705 -109.528C24.705 -110.675 25.6327 -111.603 26.78 -111.603C27.9274 -111.603 28.8551 -110.675 28.8551 -109.528C28.8551 -108.38 27.9274 -107.453 26.78 -107.453ZM26.78 -86.0678C25.6327 -86.0678 24.705 -86.9955 24.705 -88.1428C24.705 -89.2902 25.6327 -90.2179 26.78 -90.2179C27.9274 -90.2179 28.8551 -89.2902 28.8551 -88.1428C28.8551 -86.9955 27.9274 -86.0678 26.78 -86.0678ZM26.78 -64.6828C25.6327 -64.6828 24.705 -65.6105 24.705 -66.7579C24.705 -67.9052 25.6327 -68.8329 26.78 -68.8329C27.9274 -68.8329 28.8551 -67.9052 28.8551 -66.7579C28.8551 -65.6105 27.9274 -64.6828 26.78 -64.6828ZM26.78 -43.3101C25.6327 -43.3101 24.705 -44.2377 24.705 -45.3851C24.705 -46.5325 25.6327 -47.4601 26.78 -47.4601C27.9274 -47.4601 28.8551 -46.5325 28.8551 -45.3851C28.8551 -44.2255 27.9274 -43.3101 26.78 -43.3101ZM26.78 -21.9251C25.6327 -21.9251 24.705 -22.8528 24.705 -24.0001C24.705 -25.1475 25.6327 -26.0752 26.78 -26.0752C27.9274 -26.0752 28.8551 -25.1475 28.8551 -24.0001C28.8551 -22.8528 27.9274 -21.9251 26.78 -21.9251ZM26.78 -0.540146C25.6327 -0.540146 24.705 -1.46782 24.705 -2.61519C24.705 -3.76256 25.6327 -4.69019 26.78 -4.69019C27.9274 -4.69019 28.8551 -3.76256 28.8551 -2.61519C28.8551 -1.46782 27.9274 -0.540146 26.78 -0.540146ZM26.78 20.857C25.6327 20.857 24.705 19.9294 24.705 18.7698C24.705 17.6224 25.6327 16.6948 26.78 16.6948C27.9274 16.6948 28.8551 17.6224 28.8551 18.7698C28.8551 19.9172 27.9274 20.857 26.78 20.857ZM26.78 42.2298C25.6327 42.2298 24.705 41.3021 24.705 40.1548C24.705 39.0074 25.6327 38.0797 26.78 38.0797C27.9274 38.0797 28.8551 39.0074 28.8551 40.1548C28.8551 41.3021 27.9274 42.2298 26.78 42.2298ZM26.78 63.6147C25.6327 63.6147 24.705 62.6871 24.705 61.5397C24.705 60.3923 25.6327 59.4647 26.78 59.4647C27.9274 59.4647 28.8551 60.3923 28.8551 61.5397C28.8551 62.6871 27.9274 63.6147 26.78 63.6147ZM26.78 84.9997C25.6327 84.9997 24.705 84.0721 24.705 82.9247C24.705 81.7773 25.6327 80.8497 26.78 80.8497C27.9274 80.8497 28.8551 81.7773 28.8551 82.9247C28.8551 84.0721 27.9274 84.9997 26.78 84.9997Z" fill="#414272" fill-opacity="0.5"/>
<path d="M51.4973 -128.838C50.3499 -128.838 49.4222 -129.765 49.4222 -130.913C49.4222 -132.06 50.3499 -133 51.4973 -133C52.6446 -133 53.5723 -132.072 53.5723 -130.913C53.5723 -129.765 52.6446 -128.838 51.4973 -128.838ZM51.4973 -107.453C50.3499 -107.453 49.4222 -108.38 49.4222 -109.528C49.4222 -110.675 50.3499 -111.603 51.4973 -111.603C52.6446 -111.603 53.5723 -110.675 53.5723 -109.528C53.5723 -108.38 52.6446 -107.453 51.4973 -107.453ZM51.4973 -86.0678C50.3499 -86.0678 49.4222 -86.9955 49.4222 -88.1428C49.4222 -89.2902 50.3499 -90.2179 51.4973 -90.2179C52.6446 -90.2179 53.5723 -89.2902 53.5723 -88.1428C53.5723 -86.9955 52.6446 -86.0678 51.4973 -86.0678ZM51.4973 -64.6828C50.3499 -64.6828 49.4222 -65.6105 49.4222 -66.7579C49.4222 -67.9052 50.3499 -68.8329 51.4973 -68.8329C52.6446 -68.8329 53.5723 -67.9052 53.5723 -66.7579C53.5723 -65.6105 52.6446 -64.6828 51.4973 -64.6828ZM51.4973 -43.3101C50.3499 -43.3101 49.4222 -44.2377 49.4222 -45.3851C49.4222 -46.5325 50.3499 -47.4601 51.4973 -47.4601C52.6446 -47.4601 53.5723 -46.5325 53.5723 -45.3851C53.5723 -44.2255 52.6446 -43.3101 51.4973 -43.3101ZM51.4973 -21.9251C50.3499 -21.9251 49.4222 -22.8528 49.4222 -24.0001C49.4222 -25.1475 50.3499 -26.0752 51.4973 -26.0752C52.6446 -26.0752 53.5723 -25.1475 53.5723 -24.0001C53.5723 -22.8528 52.6446 -21.9251 51.4973 -21.9251ZM51.4973 -0.540146C50.3499 -0.540146 49.4222 -1.46782 49.4222 -2.61519C49.4222 -3.76256 50.3499 -4.69019 51.4973 -4.69019C52.6446 -4.69019 53.5723 -3.76256 53.5723 -2.61519C53.5723 -1.46782 52.6446 -0.540146 51.4973 -0.540146ZM51.4973 20.857C50.3499 20.857 49.4222 19.9294 49.4222 18.7698C49.4222 17.6224 50.3499 16.6948 51.4973 16.6948C52.6446 16.6948 53.5723 17.6224 53.5723 18.7698C53.5723 19.9172 52.6446 20.857 51.4973 20.857ZM51.4973 42.2298C50.3499 42.2298 49.4222 41.3021 49.4222 40.1548C49.4222 39.0074 50.3499 38.0797 51.4973 38.0797C52.6446 38.0797 53.5723 39.0074 53.5723 40.1548C53.5723 41.3021 52.6446 42.2298 51.4973 42.2298ZM51.4973 63.6147C50.3499 63.6147 49.4222 62.6871 49.4222 61.5397C49.4222 60.3923 50.3499 59.4647 51.4973 59.4647C52.6446 59.4647 53.5723 60.3923 53.5723 61.5397C53.5723 62.6871 52.6446 63.6147 51.4973 63.6147ZM51.4973 84.9997C50.3499 84.9997 49.4222 84.0721 49.4222 82.9247C49.4222 81.7773 50.3499 80.8497 51.4973 80.8497C52.6446 80.8497 53.5723 81.7773 53.5723 82.9247C53.5723 84.0721 52.6446 84.9997 51.4973 84.9997Z" fill="#414272" fill-opacity="0.5"/>
<path d="M146.269 -128.837C145.121 -128.837 144.193 -129.765 144.193 -130.912C144.193 -132.06 145.121 -133 146.269 -133C147.416 -133 148.344 -132.072 148.344 -130.912C148.344 -129.765 147.416 -128.837 146.269 -128.837ZM146.269 -107.452C145.121 -107.452 144.193 -108.38 144.193 -109.527C144.193 -110.675 145.121 -111.602 146.269 -111.602C147.416 -111.602 148.344 -110.675 148.344 -109.527C148.344 -108.38 147.416 -107.452 146.269 -107.452ZM146.269 -86.0673C145.121 -86.0673 144.193 -86.995 144.193 -88.1423C144.193 -89.2897 145.121 -90.2174 146.269 -90.2174C147.416 -90.2174 148.344 -89.2897 148.344 -88.1423C148.344 -86.995 147.416 -86.0673 146.269 -86.0673ZM146.269 -64.6824C145.121 -64.6824 144.193 -65.61 144.193 -66.7574C144.193 -67.9047 145.121 -68.8324 146.269 -68.8324C147.416 -68.8324 148.344 -67.9047 148.344 -66.7574C148.344 -65.61 147.416 -64.6824 146.269 -64.6824ZM146.269 -43.3096C145.121 -43.3096 144.193 -44.2373 144.193 -45.3846C144.193 -46.532 145.121 -47.4596 146.269 -47.4596C147.416 -47.4596 148.344 -46.532 148.344 -45.3846C148.344 -44.2251 147.416 -43.3096 146.269 -43.3096ZM146.269 -21.9246C145.121 -21.9246 144.193 -22.8523 144.193 -23.9996C144.193 -25.147 145.121 -26.0747 146.269 -26.0747C147.416 -26.0747 148.344 -25.147 148.344 -23.9996C148.344 -22.8523 147.416 -21.9246 146.269 -21.9246ZM146.269 -0.539658C145.121 -0.539658 144.193 -1.46733 144.193 -2.6147C144.193 -3.76207 145.121 -4.6897 146.269 -4.6897C147.416 -4.6897 148.344 -3.76207 148.344 -2.6147C148.344 -1.46733 147.416 -0.539658 146.269 -0.539658ZM146.269 20.8575C145.121 20.8575 144.193 19.9299 144.193 18.7703C144.193 17.6229 145.121 16.6953 146.269 16.6953C147.416 16.6953 148.344 17.6229 148.344 18.7703C148.344 19.9177 147.416 20.8575 146.269 20.8575ZM146.269 42.2303C145.121 42.2303 144.193 41.3026 144.193 40.1552C144.193 39.0079 145.121 38.0802 146.269 38.0802C147.416 38.0802 148.344 39.0079 148.344 40.1552C148.344 41.3026 147.416 42.2303 146.269 42.2303ZM146.269 63.6152C145.121 63.6152 144.193 62.6876 144.193 61.5402C144.193 60.3928 145.121 59.4652 146.269 59.4652C147.416 59.4652 148.344 60.3928 148.344 61.5402C148.344 62.6876 147.416 63.6152 146.269 63.6152ZM146.269 85.0002C145.121 85.0002 144.193 84.0726 144.193 82.9252C144.193 81.7778 145.121 80.8501 146.269 80.8501C147.416 80.8501 148.344 81.7778 148.344 82.9252C148.344 84.0726 147.416 85.0002 146.269 85.0002Z" fill="#414272" fill-opacity="0.5"/>
<path d="M170.974 -128.838C169.826 -128.838 168.898 -129.765 168.898 -130.913C168.898 -132.06 169.826 -133 170.974 -133C172.121 -133 173.049 -132.072 173.049 -130.913C173.049 -129.765 172.121 -128.838 170.974 -128.838ZM170.974 -107.453C169.826 -107.453 168.898 -108.38 168.898 -109.528C168.898 -110.675 169.826 -111.603 170.974 -111.603C172.121 -111.603 173.049 -110.675 173.049 -109.528C173.049 -108.38 172.121 -107.453 170.974 -107.453ZM170.974 -86.0678C169.826 -86.0678 168.898 -86.9955 168.898 -88.1428C168.898 -89.2902 169.826 -90.2179 170.974 -90.2179C172.121 -90.2179 173.049 -89.2902 173.049 -88.1428C173.049 -86.9955 172.121 -86.0678 170.974 -86.0678ZM170.974 -64.6828C169.826 -64.6828 168.898 -65.6105 168.898 -66.7579C168.898 -67.9052 169.826 -68.8329 170.974 -68.8329C172.121 -68.8329 173.049 -67.9052 173.049 -66.7579C173.049 -65.6105 172.121 -64.6828 170.974 -64.6828ZM170.974 -43.3101C169.826 -43.3101 168.898 -44.2377 168.898 -45.3851C168.898 -46.5325 169.826 -47.4601 170.974 -47.4601C172.121 -47.4601 173.049 -46.5325 173.049 -45.3851C173.049 -44.2255 172.121 -43.3101 170.974 -43.3101ZM170.974 -21.9251C169.826 -21.9251 168.898 -22.8528 168.898 -24.0001C168.898 -25.1475 169.826 -26.0752 170.974 -26.0752C172.121 -26.0752 173.049 -25.1475 173.049 -24.0001C173.049 -22.8528 172.121 -21.9251 170.974 -21.9251ZM170.974 -0.540146C169.826 -0.540146 168.898 -1.46782 168.898 -2.61519C168.898 -3.76256 169.826 -4.69019 170.974 -4.69019C172.121 -4.69019 173.049 -3.76256 173.049 -2.61519C173.049 -1.46782 172.121 -0.540146 170.974 -0.540146ZM170.974 20.857C169.826 20.857 168.898 19.9294 168.898 18.7698C168.898 17.6224 169.826 16.6948 170.974 16.6948C172.121 16.6948 173.049 17.6224 173.049 18.7698C173.049 19.9172 172.121 20.857 170.974 20.857ZM170.974 42.2298C169.826 42.2298 168.898 41.3021 168.898 40.1548C168.898 39.0074 169.826 38.0797 170.974 38.0797C172.121 38.0797 173.049 39.0074 173.049 40.1548C173.049 41.3021 172.121 42.2298 170.974 42.2298ZM170.974 63.6147C169.826 63.6147 168.898 62.6871 168.898 61.5397C168.898 60.3923 169.826 59.4647 170.974 59.4647C172.121 59.4647 173.049 60.3923 173.049 61.5397C173.049 62.6871 172.121 63.6147 170.974 63.6147ZM170.974 84.9997C169.826 84.9997 168.898 84.0721 168.898 82.9247C168.898 81.7773 169.826 80.8497 170.974 80.8497C172.121 80.8497 173.049 81.7773 173.049 82.9247C173.049 84.0721 172.121 84.9997 170.974 84.9997Z" fill="#414272" fill-opacity="0.5"/>
<path d="M195.691 -128.838C194.543 -128.838 193.616 -129.765 193.616 -130.913C193.616 -132.06 194.543 -133 195.691 -133C196.838 -133 197.766 -132.072 197.766 -130.913C197.766 -129.765 196.838 -128.838 195.691 -128.838ZM195.691 -107.453C194.543 -107.453 193.616 -108.38 193.616 -109.528C193.616 -110.675 194.543 -111.603 195.691 -111.603C196.838 -111.603 197.766 -110.675 197.766 -109.528C197.766 -108.38 196.838 -107.453 195.691 -107.453ZM195.691 -86.0678C194.543 -86.0678 193.616 -86.9955 193.616 -88.1428C193.616 -89.2902 194.543 -90.2179 195.691 -90.2179C196.838 -90.2179 197.766 -89.2902 197.766 -88.1428C197.766 -86.9955 196.838 -86.0678 195.691 -86.0678ZM195.691 -64.6828C194.543 -64.6828 193.616 -65.6105 193.616 -66.7579C193.616 -67.9052 194.543 -68.8329 195.691 -68.8329C196.838 -68.8329 197.766 -67.9052 197.766 -66.7579C197.766 -65.6105 196.838 -64.6828 195.691 -64.6828ZM195.691 -43.3101C194.543 -43.3101 193.616 -44.2377 193.616 -45.3851C193.616 -46.5325 194.543 -47.4601 195.691 -47.4601C196.838 -47.4601 197.766 -46.5325 197.766 -45.3851C197.766 -44.2255 196.838 -43.3101 195.691 -43.3101ZM195.691 -21.9251C194.543 -21.9251 193.616 -22.8528 193.616 -24.0001C193.616 -25.1475 194.543 -26.0752 195.691 -26.0752C196.838 -26.0752 197.766 -25.1475 197.766 -24.0001C197.766 -22.8528 196.838 -21.9251 195.691 -21.9251ZM195.691 -0.540146C194.543 -0.540146 193.616 -1.46782 193.616 -2.61519C193.616 -3.76256 194.543 -4.69019 195.691 -4.69019C196.838 -4.69019 197.766 -3.76256 197.766 -2.61519C197.766 -1.46782 196.838 -0.540146 195.691 -0.540146ZM195.691 20.857C194.543 20.857 193.616 19.9294 193.616 18.7698C193.616 17.6224 194.543 16.6948 195.691 16.6948C196.838 16.6948 197.766 17.6224 197.766 18.7698C197.766 19.9172 196.838 20.857 195.691 20.857ZM195.691 42.2298C194.543 42.2298 193.616 41.3021 193.616 40.1548C193.616 39.0074 194.543 38.0797 195.691 38.0797C196.838 38.0797 197.766 39.0074 197.766 40.1548C197.766 41.3021 196.838 42.2298 195.691 42.2298ZM195.691 63.6147C194.543 63.6147 193.616 62.6871 193.616 61.5397C193.616 60.3923 194.543 59.4647 195.691 59.4647C196.838 59.4647 197.766 60.3923 197.766 61.5397C197.766 62.6871 196.838 63.6147 195.691 63.6147ZM195.691 84.9997C194.543 84.9997 193.616 84.0721 193.616 82.9247C193.616 81.7773 194.543 80.8497 195.691 80.8497C196.838 80.8497 197.766 81.7773 197.766 82.9247C197.766 84.0721 196.838 84.9997 195.691 84.9997Z" fill="#414272" fill-opacity="0.5"/>
<path d="M74.0906 -128.837C72.9433 -128.837 72.0156 -129.765 72.0156 -130.912C72.0156 -132.06 72.9433 -133 74.0906 -133C75.238 -133 76.1656 -132.072 76.1656 -130.912C76.1656 -129.765 75.238 -128.837 74.0906 -128.837ZM74.0906 -107.452C72.9433 -107.452 72.0156 -108.38 72.0156 -109.527C72.0156 -110.675 72.9433 -111.602 74.0906 -111.602C75.238 -111.602 76.1656 -110.675 76.1656 -109.527C76.1656 -108.38 75.238 -107.452 74.0906 -107.452ZM74.0906 -86.0673C72.9433 -86.0673 72.0156 -86.995 72.0156 -88.1423C72.0156 -89.2897 72.9433 -90.2174 74.0906 -90.2174C75.238 -90.2174 76.1656 -89.2897 76.1656 -88.1423C76.1656 -86.995 75.238 -86.0673 74.0906 -86.0673ZM74.0906 -64.6824C72.9433 -64.6824 72.0156 -65.61 72.0156 -66.7574C72.0156 -67.9047 72.9433 -68.8324 74.0906 -68.8324C75.238 -68.8324 76.1656 -67.9047 76.1656 -66.7574C76.1656 -65.61 75.238 -64.6824 74.0906 -64.6824ZM74.0906 -43.3096C72.9433 -43.3096 72.0156 -44.2373 72.0156 -45.3846C72.0156 -46.532 72.9433 -47.4596 74.0906 -47.4596C75.238 -47.4596 76.1656 -46.532 76.1656 -45.3846C76.1656 -44.2251 75.238 -43.3096 74.0906 -43.3096ZM74.0906 -21.9246C72.9433 -21.9246 72.0156 -22.8523 72.0156 -23.9996C72.0156 -25.147 72.9433 -26.0747 74.0906 -26.0747C75.238 -26.0747 76.1656 -25.147 76.1656 -23.9996C76.1656 -22.8523 75.238 -21.9246 74.0906 -21.9246ZM74.0906 -0.539658C72.9433 -0.539658 72.0156 -1.46733 72.0156 -2.6147C72.0156 -3.76207 72.9433 -4.6897 74.0906 -4.6897C75.238 -4.6897 76.1656 -3.76207 76.1656 -2.6147C76.1656 -1.46733 75.238 -0.539658 74.0906 -0.539658ZM74.0906 20.8575C72.9433 20.8575 72.0156 19.9299 72.0156 18.7703C72.0156 17.6229 72.9433 16.6953 74.0906 16.6953C75.238 16.6953 76.1656 17.6229 76.1656 18.7703C76.1656 19.9177 75.238 20.8575 74.0906 20.8575ZM74.0906 42.2303C72.9433 42.2303 72.0156 41.3026 72.0156 40.1552C72.0156 39.0079 72.9433 38.0802 74.0906 38.0802C75.238 38.0802 76.1656 39.0079 76.1656 40.1552C76.1656 41.3026 75.238 42.2303 74.0906 42.2303ZM74.0906 63.6152C72.9433 63.6152 72.0156 62.6876 72.0156 61.5402C72.0156 60.3928 72.9433 59.4652 74.0906 59.4652C75.238 59.4652 76.1656 60.3928 76.1656 61.5402C76.1656 62.6876 75.238 63.6152 74.0906 63.6152ZM74.0906 85.0002C72.9433 85.0002 72.0156 84.0726 72.0156 82.9252C72.0156 81.7778 72.9433 80.8501 74.0906 80.8501C75.238 80.8501 76.1656 81.7778 76.1656 82.9252C76.1656 84.0726 75.238 85.0002 74.0906 85.0002Z" fill="#414272" fill-opacity="0.5"/>
<path d="M98.7956 -128.838C97.6483 -128.838 96.7206 -129.765 96.7206 -130.913C96.7206 -132.06 97.6483 -133 98.7956 -133C99.943 -133 100.871 -132.072 100.871 -130.913C100.871 -129.765 99.943 -128.838 98.7956 -128.838ZM98.7956 -107.453C97.6483 -107.453 96.7206 -108.38 96.7206 -109.528C96.7206 -110.675 97.6483 -111.603 98.7956 -111.603C99.943 -111.603 100.871 -110.675 100.871 -109.528C100.871 -108.38 99.943 -107.453 98.7956 -107.453ZM98.7956 -86.0678C97.6483 -86.0678 96.7206 -86.9955 96.7206 -88.1428C96.7206 -89.2902 97.6483 -90.2179 98.7956 -90.2179C99.943 -90.2179 100.871 -89.2902 100.871 -88.1428C100.871 -86.9955 99.943 -86.0678 98.7956 -86.0678ZM98.7956 -64.6828C97.6483 -64.6828 96.7206 -65.6105 96.7206 -66.7579C96.7206 -67.9052 97.6483 -68.8329 98.7956 -68.8329C99.943 -68.8329 100.871 -67.9052 100.871 -66.7579C100.871 -65.6105 99.943 -64.6828 98.7956 -64.6828ZM98.7956 -43.3101C97.6483 -43.3101 96.7206 -44.2377 96.7206 -45.3851C96.7206 -46.5325 97.6483 -47.4601 98.7956 -47.4601C99.943 -47.4601 100.871 -46.5325 100.871 -45.3851C100.871 -44.2255 99.943 -43.3101 98.7956 -43.3101ZM98.7956 -21.9251C97.6483 -21.9251 96.7206 -22.8528 96.7206 -24.0001C96.7206 -25.1475 97.6483 -26.0752 98.7956 -26.0752C99.943 -26.0752 100.871 -25.1475 100.871 -24.0001C100.871 -22.8528 99.943 -21.9251 98.7956 -21.9251ZM98.7956 -0.540146C97.6483 -0.540146 96.7206 -1.46782 96.7206 -2.61519C96.7206 -3.76256 97.6483 -4.69019 98.7956 -4.69019C99.943 -4.69019 100.871 -3.76256 100.871 -2.61519C100.871 -1.46782 99.943 -0.540146 98.7956 -0.540146ZM98.7956 20.857C97.6483 20.857 96.7206 19.9294 96.7206 18.7698C96.7206 17.6224 97.6483 16.6948 98.7956 16.6948C99.943 16.6948 100.871 17.6224 100.871 18.7698C100.871 19.9172 99.943 20.857 98.7956 20.857ZM98.7956 42.2298C97.6483 42.2298 96.7206 41.3021 96.7206 40.1548C96.7206 39.0074 97.6483 38.0797 98.7956 38.0797C99.943 38.0797 100.871 39.0074 100.871 40.1548C100.871 41.3021 99.943 42.2298 98.7956 42.2298ZM98.7956 63.6147C97.6483 63.6147 96.7206 62.6871 96.7206 61.5397C96.7206 60.3923 97.6483 59.4647 98.7956 59.4647C99.943 59.4647 100.871 60.3923 100.871 61.5397C100.871 62.6871 99.943 63.6147 98.7956 63.6147ZM98.7956 84.9997C97.6483 84.9997 96.7206 84.0721 96.7206 82.9247C96.7206 81.7773 97.6483 80.8497 98.7956 80.8497C99.943 80.8497 100.871 81.7773 100.871 82.9247C100.871 84.0721 99.943 84.9997 98.7956 84.9997Z" fill="#414272" fill-opacity="0.5"/>
<path d="M123.513 -128.838C122.365 -128.838 121.438 -129.765 121.438 -130.913C121.438 -132.06 122.365 -133 123.513 -133C124.66 -133 125.588 -132.072 125.588 -130.913C125.588 -129.765 124.66 -128.838 123.513 -128.838ZM123.513 -107.453C122.365 -107.453 121.438 -108.38 121.438 -109.528C121.438 -110.675 122.365 -111.603 123.513 -111.603C124.66 -111.603 125.588 -110.675 125.588 -109.528C125.588 -108.38 124.66 -107.453 123.513 -107.453ZM123.513 -86.0678C122.365 -86.0678 121.438 -86.9955 121.438 -88.1428C121.438 -89.2902 122.365 -90.2179 123.513 -90.2179C124.66 -90.2179 125.588 -89.2902 125.588 -88.1428C125.588 -86.9955 124.66 -86.0678 123.513 -86.0678ZM123.513 -64.6828C122.365 -64.6828 121.438 -65.6105 121.438 -66.7579C121.438 -67.9052 122.365 -68.8329 123.513 -68.8329C124.66 -68.8329 125.588 -67.9052 125.588 -66.7579C125.588 -65.6105 124.66 -64.6828 123.513 -64.6828ZM123.513 -43.3101C122.365 -43.3101 121.438 -44.2377 121.438 -45.3851C121.438 -46.5325 122.365 -47.4601 123.513 -47.4601C124.66 -47.4601 125.588 -46.5325 125.588 -45.3851C125.588 -44.2255 124.66 -43.3101 123.513 -43.3101ZM123.513 -21.9251C122.365 -21.9251 121.438 -22.8528 121.438 -24.0001C121.438 -25.1475 122.365 -26.0752 123.513 -26.0752C124.66 -26.0752 125.588 -25.1475 125.588 -24.0001C125.588 -22.8528 124.66 -21.9251 123.513 -21.9251ZM123.513 -0.540146C122.365 -0.540146 121.438 -1.46782 121.438 -2.61519C121.438 -3.76256 122.365 -4.69019 123.513 -4.69019C124.66 -4.69019 125.588 -3.76256 125.588 -2.61519C125.588 -1.46782 124.66 -0.540146 123.513 -0.540146ZM123.513 20.857C122.365 20.857 121.438 19.9294 121.438 18.7698C121.438 17.6224 122.365 16.6948 123.513 16.6948C124.66 16.6948 125.588 17.6224 125.588 18.7698C125.588 19.9172 124.66 20.857 123.513 20.857ZM123.513 42.2298C122.365 42.2298 121.438 41.3021 121.438 40.1548C121.438 39.0074 122.365 38.0797 123.513 38.0797C124.66 38.0797 125.588 39.0074 125.588 40.1548C125.588 41.3021 124.66 42.2298 123.513 42.2298ZM123.513 63.6147C122.365 63.6147 121.438 62.6871 121.438 61.5397C121.438 60.3923 122.365 59.4647 123.513 59.4647C124.66 59.4647 125.588 60.3923 125.588 61.5397C125.588 62.6871 124.66 63.6147 123.513 63.6147ZM123.513 84.9997C122.365 84.9997 121.438 84.0721 121.438 82.9247C121.438 81.7773 122.365 80.8497 123.513 80.8497C124.66 80.8497 125.588 81.7773 125.588 82.9247C125.588 84.0721 124.66 84.9997 123.513 84.9997Z" fill="#414272" fill-opacity="0.5"/>
<path d="M218.284 -128.837C217.137 -128.837 216.209 -129.765 216.209 -130.912C216.209 -132.06 217.137 -133 218.284 -133C219.432 -133 220.359 -132.072 220.359 -130.912C220.359 -129.765 219.432 -128.837 218.284 -128.837ZM218.284 -107.452C217.137 -107.452 216.209 -108.38 216.209 -109.527C216.209 -110.675 217.137 -111.602 218.284 -111.602C219.432 -111.602 220.359 -110.675 220.359 -109.527C220.359 -108.38 219.432 -107.452 218.284 -107.452ZM218.284 -86.0673C217.137 -86.0673 216.209 -86.995 216.209 -88.1423C216.209 -89.2897 217.137 -90.2174 218.284 -90.2174C219.432 -90.2174 220.359 -89.2897 220.359 -88.1423C220.359 -86.995 219.432 -86.0673 218.284 -86.0673ZM218.284 -64.6824C217.137 -64.6824 216.209 -65.61 216.209 -66.7574C216.209 -67.9047 217.137 -68.8324 218.284 -68.8324C219.432 -68.8324 220.359 -67.9047 220.359 -66.7574C220.359 -65.61 219.432 -64.6824 218.284 -64.6824ZM218.284 -43.3096C217.137 -43.3096 216.209 -44.2373 216.209 -45.3846C216.209 -46.532 217.137 -47.4596 218.284 -47.4596C219.432 -47.4596 220.359 -46.532 220.359 -45.3846C220.359 -44.2251 219.432 -43.3096 218.284 -43.3096ZM218.284 -21.9246C217.137 -21.9246 216.209 -22.8523 216.209 -23.9996C216.209 -25.147 217.137 -26.0747 218.284 -26.0747C219.432 -26.0747 220.359 -25.147 220.359 -23.9996C220.359 -22.8523 219.432 -21.9246 218.284 -21.9246ZM218.284 -0.539658C217.137 -0.539658 216.209 -1.46733 216.209 -2.6147C216.209 -3.76207 217.137 -4.6897 218.284 -4.6897C219.432 -4.6897 220.359 -3.76207 220.359 -2.6147C220.359 -1.46733 219.432 -0.539658 218.284 -0.539658ZM218.284 20.8575C217.137 20.8575 216.209 19.9299 216.209 18.7703C216.209 17.6229 217.137 16.6953 218.284 16.6953C219.432 16.6953 220.359 17.6229 220.359 18.7703C220.359 19.9177 219.432 20.8575 218.284 20.8575ZM218.284 42.2303C217.137 42.2303 216.209 41.3026 216.209 40.1552C216.209 39.0079 217.137 38.0802 218.284 38.0802C219.432 38.0802 220.359 39.0079 220.359 40.1552C220.359 41.3026 219.432 42.2303 218.284 42.2303ZM218.284 63.6152C217.137 63.6152 216.209 62.6876 216.209 61.5402C216.209 60.3928 217.137 59.4652 218.284 59.4652C219.432 59.4652 220.359 60.3928 220.359 61.5402C220.359 62.6876 219.432 63.6152 218.284 63.6152ZM218.284 85.0002C217.137 85.0002 216.209 84.0726 216.209 82.9252C216.209 81.7778 217.137 80.8501 218.284 80.8501C219.432 80.8501 220.359 81.7778 220.359 82.9252C220.359 84.0726 219.432 85.0002 218.284 85.0002Z" fill="#414272" fill-opacity="0.5"/>
<path d="M242.989 -128.838C241.842 -128.838 240.914 -129.765 240.914 -130.913C240.914 -132.06 241.842 -133 242.989 -133C244.137 -133 245.064 -132.072 245.064 -130.913C245.064 -129.765 244.137 -128.838 242.989 -128.838ZM242.989 -107.453C241.842 -107.453 240.914 -108.38 240.914 -109.528C240.914 -110.675 241.842 -111.603 242.989 -111.603C244.137 -111.603 245.064 -110.675 245.064 -109.528C245.064 -108.38 244.137 -107.453 242.989 -107.453ZM242.989 -86.0678C241.842 -86.0678 240.914 -86.9955 240.914 -88.1428C240.914 -89.2902 241.842 -90.2179 242.989 -90.2179C244.137 -90.2179 245.064 -89.2902 245.064 -88.1428C245.064 -86.9955 244.137 -86.0678 242.989 -86.0678ZM242.989 -64.6828C241.842 -64.6828 240.914 -65.6105 240.914 -66.7579C240.914 -67.9052 241.842 -68.8329 242.989 -68.8329C244.137 -68.8329 245.064 -67.9052 245.064 -66.7579C245.064 -65.6105 244.137 -64.6828 242.989 -64.6828ZM242.989 -43.3101C241.842 -43.3101 240.914 -44.2377 240.914 -45.3851C240.914 -46.5325 241.842 -47.4601 242.989 -47.4601C244.137 -47.4601 245.064 -46.5325 245.064 -45.3851C245.064 -44.2255 244.137 -43.3101 242.989 -43.3101ZM242.989 -21.9251C241.842 -21.9251 240.914 -22.8528 240.914 -24.0001C240.914 -25.1475 241.842 -26.0752 242.989 -26.0752C244.137 -26.0752 245.064 -25.1475 245.064 -24.0001C245.064 -22.8528 244.137 -21.9251 242.989 -21.9251ZM242.989 -0.540146C241.842 -0.540146 240.914 -1.46782 240.914 -2.61519C240.914 -3.76256 241.842 -4.69019 242.989 -4.69019C244.137 -4.69019 245.064 -3.76256 245.064 -2.61519C245.064 -1.46782 244.137 -0.540146 242.989 -0.540146ZM242.989 20.857C241.842 20.857 240.914 19.9294 240.914 18.7698C240.914 17.6224 241.842 16.6948 242.989 16.6948C244.137 16.6948 245.064 17.6224 245.064 18.7698C245.064 19.9172 244.137 20.857 242.989 20.857ZM242.989 42.2298C241.842 42.2298 240.914 41.3021 240.914 40.1548C240.914 39.0074 241.842 38.0797 242.989 38.0797C244.137 38.0797 245.064 39.0074 245.064 40.1548C245.064 41.3021 244.137 42.2298 242.989 42.2298ZM242.989 63.6147C241.842 63.6147 240.914 62.6871 240.914 61.5397C240.914 60.3923 241.842 59.4647 242.989 59.4647C244.137 59.4647 245.064 60.3923 245.064 61.5397C245.064 62.6871 244.137 63.6147 242.989 63.6147ZM242.989 84.9997C241.842 84.9997 240.914 84.0721 240.914 82.9247C240.914 81.7773 241.842 80.8497 242.989 80.8497C244.137 80.8497 245.064 81.7773 245.064 82.9247C245.064 84.0721 244.137 84.9997 242.989 84.9997Z" fill="#414272" fill-opacity="0.5"/>
<path d="M267.706 -128.838C266.559 -128.838 265.631 -129.765 265.631 -130.913C265.631 -132.06 266.559 -133 267.706 -133C268.854 -133 269.781 -132.072 269.781 -130.913C269.781 -129.765 268.854 -128.838 267.706 -128.838ZM267.706 -107.453C266.559 -107.453 265.631 -108.38 265.631 -109.528C265.631 -110.675 266.559 -111.603 267.706 -111.603C268.854 -111.603 269.781 -110.675 269.781 -109.528C269.781 -108.38 268.854 -107.453 267.706 -107.453ZM267.706 -86.0678C266.559 -86.0678 265.631 -86.9955 265.631 -88.1428C265.631 -89.2902 266.559 -90.2179 267.706 -90.2179C268.854 -90.2179 269.781 -89.2902 269.781 -88.1428C269.781 -86.9955 268.854 -86.0678 267.706 -86.0678ZM267.706 -64.6828C266.559 -64.6828 265.631 -65.6105 265.631 -66.7579C265.631 -67.9052 266.559 -68.8329 267.706 -68.8329C268.854 -68.8329 269.781 -67.9052 269.781 -66.7579C269.781 -65.6105 268.854 -64.6828 267.706 -64.6828ZM267.706 -43.3101C266.559 -43.3101 265.631 -44.2377 265.631 -45.3851C265.631 -46.5325 266.559 -47.4601 267.706 -47.4601C268.854 -47.4601 269.781 -46.5325 269.781 -45.3851C269.781 -44.2255 268.854 -43.3101 267.706 -43.3101ZM267.706 -21.9251C266.559 -21.9251 265.631 -22.8528 265.631 -24.0001C265.631 -25.1475 266.559 -26.0752 267.706 -26.0752C268.854 -26.0752 269.781 -25.1475 269.781 -24.0001C269.781 -22.8528 268.854 -21.9251 267.706 -21.9251ZM267.706 -0.540146C266.559 -0.540146 265.631 -1.46782 265.631 -2.61519C265.631 -3.76256 266.559 -4.69019 267.706 -4.69019C268.854 -4.69019 269.781 -3.76256 269.781 -2.61519C269.781 -1.46782 268.854 -0.540146 267.706 -0.540146ZM267.706 20.857C266.559 20.857 265.631 19.9294 265.631 18.7698C265.631 17.6224 266.559 16.6948 267.706 16.6948C268.854 16.6948 269.781 17.6224 269.781 18.7698C269.781 19.9172 268.854 20.857 267.706 20.857ZM267.706 42.2298C266.559 42.2298 265.631 41.3021 265.631 40.1548C265.631 39.0074 266.559 38.0797 267.706 38.0797C268.854 38.0797 269.781 39.0074 269.781 40.1548C269.781 41.3021 268.854 42.2298 267.706 42.2298ZM267.706 63.6147C266.559 63.6147 265.631 62.6871 265.631 61.5397C265.631 60.3923 266.559 59.4647 267.706 59.4647C268.854 59.4647 269.781 60.3923 269.781 61.5397C269.781 62.6871 268.854 63.6147 267.706 63.6147ZM267.706 84.9997C266.559 84.9997 265.631 84.0721 265.631 82.9247C265.631 81.7773 266.559 80.8497 267.706 80.8497C268.854 80.8497 269.781 81.7773 269.781 82.9247C269.781 84.0721 268.854 84.9997 267.706 84.9997Z" fill="#414272" fill-opacity="0.5"/>
</svg>
