<svg width="86" height="86" viewBox="0 0 86 86" fill="none" xmlns="http://www.w3.org/2000/svg">
<path d="M82.4759 0.992265C79.1089 -0.952023 74.7883 0.205983 72.8447 3.573L63.2346 20.2183H42.5096C41.5819 20.2183 40.8299 20.9705 40.8299 21.898C40.8299 22.8256 41.5819 23.5777 42.5096 23.5777H61.295L54.3211 35.657H15.1179C14.1902 35.657 13.4382 36.4092 13.4382 37.3368C13.4382 38.2645 14.1902 39.0165 15.1179 39.0165H52.3814L48.5022 45.7354H15.1179C14.1902 45.7354 13.4382 46.4876 13.4382 47.4151C13.4382 48.3427 14.1902 49.0949 15.1179 49.0949H47.8075L47.0837 55.8138H15.1179C14.1902 55.8138 13.4382 56.566 13.4382 57.4935C13.4382 58.4211 14.1902 59.1732 15.1179 59.1732H46.7217L46.6323 60.0029C46.5611 60.664 46.8866 61.305 47.4625 61.6374C47.7233 61.7881 48.0131 61.8625 48.3022 61.8625C48.6514 61.8625 48.9994 61.7538 49.2932 61.5391L60.0184 53.704C60.2074 53.566 60.3653 53.3901 60.4822 53.1875L73.5722 30.5154V63.0731C73.5722 66.8367 70.5102 69.8988 66.7464 69.8988H27.8185C27.2183 69.8988 26.6639 70.219 26.3639 70.7387L20.4904 80.912L14.6168 70.7387C14.3168 70.219 13.7624 69.8988 13.1622 69.8988H10.1852C6.42144 69.8988 3.35946 66.8367 3.35946 63.0731V30.4035C3.35946 26.6399 6.42144 23.5777 10.1852 23.5777H27.3922C28.3199 23.5777 29.0719 22.8256 29.0719 21.898C29.0719 20.9703 28.3199 20.2183 27.3922 20.2183H10.1852C4.56903 20.2183 0 24.7873 0 30.4035V63.0731C0 68.6893 4.56903 73.2583 10.1852 73.2583H12.1923L19.0357 85.1113C19.3357 85.631 19.8902 85.9512 20.4904 85.9512C21.0905 85.9512 21.645 85.631 21.945 85.1113L28.7884 73.2583H66.7466C72.3628 73.2583 76.9318 68.6893 76.9318 63.0731V30.4035C76.9318 28.9636 76.6264 27.5412 76.0424 26.2371L85.0568 10.6237C87.0006 7.25682 85.8429 2.93622 82.4759 0.992265ZM80.7962 3.90156C82.5589 4.91931 83.1649 7.18123 82.1472 8.94394L81.1874 10.6064L74.7942 6.91516L75.754 5.25273C76.7717 3.49019 79.0335 2.88431 80.7962 3.90156ZM51.1189 49.7211L55.9542 52.5128L50.3795 56.5853L51.1189 49.7211ZM58.4128 50.0532L52.0196 46.3619L73.1144 9.82445L79.5077 13.5157L58.4128 50.0532Z" fill="white"/>
<path d="M34.9501 23.5779C35.3919 23.5779 35.8252 23.3982 36.1393 23.0857C36.4517 22.7733 36.6315 22.34 36.6315 21.8982C36.6315 21.4564 36.4517 21.0231 36.1393 20.7107C35.8252 20.3984 35.3935 20.2185 34.9501 20.2185C34.5083 20.2185 34.075 20.3982 33.7626 20.7107C33.4501 21.0231 33.2721 21.4564 33.2721 21.8982C33.2721 22.34 33.45 22.7733 33.7626 23.0857C34.0767 23.3982 34.5083 23.5779 34.9501 23.5779Z" fill="white"/>
</svg>
