<svg width="112" height="112" viewBox="0 0 112 112" fill="none" xmlns="http://www.w3.org/2000/svg">
<g clip-path="url(#clip0)">
<path d="M57.4621 61.1247C57.2549 61.0798 57.0423 61.0717 56.8324 61.1031C54.7289 60.8582 53.142 59.0785 53.1384 56.9615C53.1384 55.947 52.3158 55.1244 51.3013 55.1244C50.2868 55.1244 49.4642 55.947 49.4642 56.9615C49.4696 60.4967 51.8341 63.5933 55.2429 64.5289V66.366C55.2429 67.3806 56.0654 68.2032 57.08 68.2032C58.0945 68.2032 58.9171 67.3806 58.9171 66.366V64.6401C62.8515 63.8167 65.5255 60.1523 65.112 56.1542C64.6976 52.1561 61.3292 49.1179 57.3096 49.117C55.006 49.117 53.1384 47.2494 53.1384 44.9458C53.1384 42.6422 55.006 40.7746 57.3096 40.7746C59.6132 40.7746 61.4808 42.6422 61.4808 44.9458C61.4808 45.9603 62.3034 46.7829 63.318 46.7829C64.3325 46.7829 65.1551 45.9603 65.1551 44.9458C65.1497 41.2339 62.5492 38.0323 58.9171 37.2663V35.5942C58.9171 34.5797 58.0945 33.7571 57.08 33.7571C56.0654 33.7571 55.2429 34.5797 55.2429 35.5942V37.3784C51.452 38.4136 49.0121 42.0941 49.5341 45.989C50.0562 49.8839 53.3797 52.7912 57.3096 52.7903C59.5827 52.7903 61.4369 54.6104 61.4781 56.8826C61.5203 59.1548 59.7334 61.0421 57.4621 61.1247Z" fill="white"/>
<path d="M30.6696 51.0949C30.6696 65.8081 42.5965 77.735 57.3096 77.735C72.0228 77.735 83.9497 65.8081 83.9497 51.0949C83.9497 36.3818 72.0228 24.4548 57.3096 24.4548C42.6037 24.471 30.6866 36.389 30.6696 51.0949ZM57.3096 28.1291C69.9937 28.1291 80.2755 38.4109 80.2755 51.0949C80.2755 63.779 69.9937 74.0608 57.3096 74.0608C44.6256 74.0608 34.3438 63.779 34.3438 51.0949C34.3582 38.4172 44.6319 28.1434 57.3096 28.1291Z" fill="white"/>
<path d="M93.0062 82.2644L78.6151 89.0639C76.6281 85.3682 72.8167 83.0161 68.6221 82.8977L55.3371 82.5326C53.2335 82.4725 51.1695 81.9397 49.2991 80.9736L47.9473 80.273C41.0258 76.6651 32.7758 76.6741 25.8615 80.2963L25.9458 77.2339C25.9736 76.2193 25.1743 75.3743 24.1598 75.3465L9.59198 74.9455C8.57744 74.9177 7.73333 75.717 7.70552 76.7315L6.82553 108.7C6.79773 109.715 7.59698 110.56 8.61153 110.587L23.1793 110.988H23.2296C24.2253 110.988 25.0398 110.196 25.0667 109.201L25.1089 107.672L28.8934 105.646C30.3789 104.846 32.1156 104.656 33.7383 105.115L56.3382 111.458C56.3776 111.47 56.4171 111.479 56.4575 111.488C58.091 111.83 59.7559 112.001 61.4243 112C64.9586 112.002 68.4517 111.24 71.664 109.766C71.7429 109.73 71.8191 109.688 71.8918 109.64L104.66 88.445C105.476 87.9166 105.74 86.8447 105.261 85.9979C102.829 81.6813 97.433 80.0371 93.0062 82.2644ZM10.5491 106.965L11.3277 78.6691L22.2222 78.9687L21.4436 107.266L10.5491 106.965ZM70.0089 106.484C66.018 108.286 61.5607 108.783 57.2711 107.906L34.7322 101.579C32.1954 100.863 29.4801 101.16 27.1595 102.407L25.2255 103.443L25.7431 84.6299C31.8716 80.5538 39.7314 80.1349 46.2582 83.5355L47.61 84.2361C49.9728 85.4561 52.5787 86.1288 55.2366 86.206L68.5226 86.5711C72.2542 86.6787 75.4234 89.3357 76.1805 92.992L56.3911 92.4457C55.3765 92.4179 54.5324 93.2181 54.5037 94.2317C54.4759 95.2463 55.2761 96.0913 56.2897 96.1191L78.1289 96.7201H78.18C79.1748 96.7192 79.9884 95.9271 80.0153 94.9332C80.0378 94.1349 79.9786 93.3356 79.8377 92.5498L94.5984 85.5754C94.6128 85.5691 94.6271 85.5619 94.6415 85.5547C96.7351 84.4953 99.2666 84.8497 100.989 86.4437L70.0089 106.484Z" fill="white"/>
<path d="M59.1468 19.2898V1.83712C59.1468 0.822579 58.3242 0 57.3097 0C56.2951 0 55.4725 0.822579 55.4725 1.83712V19.2898C55.4725 20.3043 56.2951 21.1269 57.3097 21.1269C58.3242 21.1269 59.1468 20.3043 59.1468 19.2898Z" fill="white"/>
<path d="M72.9252 19.29V11.0229C72.9252 10.0084 72.1027 9.18579 71.0881 9.18579C70.0736 9.18579 69.251 10.0084 69.251 11.0229V19.29C69.251 20.3045 70.0736 21.1271 71.0881 21.1271C72.1027 21.1271 72.9252 20.3045 72.9252 19.29Z" fill="white"/>
<path d="M45.3683 19.29V11.0229C45.3683 10.0084 44.5458 9.18579 43.5312 9.18579C42.5167 9.18579 41.6941 10.0084 41.6941 11.0229V19.29C41.6941 20.3045 42.5167 21.1271 43.5312 21.1271C44.5458 21.1271 45.3683 20.3045 45.3683 19.29Z" fill="white"/>
</g>
<defs>
<clipPath id="clip0">
<rect width="112" height="112" fill="white"/>
</clipPath>
</defs>
</svg>
