<svg width="102" height="102" viewBox="0 0 102 102" fill="none" xmlns="http://www.w3.org/2000/svg">
<path d="M46.451 27.0273H22.5448C21.7194 27.0273 21.0507 27.6963 21.0507 28.5215C21.0507 29.3466 21.7194 30.0156 22.5448 30.0156H46.451C47.2764 30.0156 47.9452 29.3466 47.9452 28.5215C47.9452 27.6963 47.2764 27.0273 46.451 27.0273Z" fill="white"/>
<path d="M28.7969 65.4886C25.3586 64.8608 22.0738 63.6723 19.0334 61.9562C18.4676 61.6367 17.7602 61.7196 17.2834 62.1614C14.6063 64.6419 11.1214 66.0079 7.4707 66.0079C6.79854 66.0079 6.13275 65.9623 5.47573 65.8717C8.36759 63.8546 10.6158 60.9846 11.8613 57.6314C12.0589 57.0991 11.9378 56.5006 11.5487 56.0873C6.02836 50.2211 2.98828 42.5541 2.98828 34.4981C2.98828 17.1235 17.1234 2.98828 34.4981 2.98828C49.7252 2.98828 62.7599 13.8423 65.4922 28.7969C65.6404 29.6085 66.4197 30.1464 67.2305 29.9982C68.0424 29.8497 68.5801 29.0716 68.4318 28.2598C65.44 11.885 51.1689 0 34.4981 0C15.4759 0 0 15.4757 0 34.4981C0 42.9958 3.08988 51.0988 8.7206 57.423C7.20574 60.832 4.40911 63.5502 0.93334 64.9573C0.369352 65.1858 0 65.7336 0 66.3422C0 66.951 0.369352 67.4989 0.933539 67.7272C3.01318 68.5691 5.21256 68.996 7.4707 68.996C11.5138 68.996 15.3887 67.6077 18.4965 65.0656C21.563 66.6743 24.8424 67.8043 28.2604 68.4281C29.0712 68.5765 29.8501 68.0384 29.9986 67.2266C30.1466 66.415 29.6087 65.6366 28.7969 65.4886Z" fill="white"/>
<path d="M22.5448 38.9805C21.7194 38.9805 21.0507 39.6494 21.0507 40.4746C21.0507 41.2998 21.7194 41.9688 22.5448 41.9688H39.4409C40.2663 41.9688 40.9351 41.2998 40.9351 40.4746C40.9351 39.6494 40.2663 38.9805 39.4409 38.9805H22.5448Z" fill="white"/>
<path d="M47.9452 34.498C47.9452 33.6729 47.2764 33.0039 46.451 33.0039H22.5448C21.7194 33.0039 21.0507 33.6729 21.0507 34.498C21.0507 35.3232 21.7194 35.9922 22.5448 35.9922H46.451C47.2764 35.9922 47.9452 35.3232 47.9452 34.498Z" fill="white"/>
<path d="M74.9726 52.6899C72.2194 52.6899 69.6146 53.6121 67.5019 55.3123C65.3894 53.6123 62.7846 52.6899 60.0312 52.6899C53.4402 52.6899 48.078 58.0521 48.078 64.6431C48.078 70.8416 51.3584 76.9321 57.564 82.256C62.1499 86.19 66.6805 88.3208 66.8709 88.4097C67.071 88.5027 67.2865 88.5493 67.5019 88.5493C67.7172 88.5493 67.9328 88.5027 68.1328 88.4097C68.3233 88.3208 72.8539 86.19 77.4397 82.256C83.6454 76.9321 86.9257 70.8416 86.9257 64.6431C86.9257 58.0521 81.5635 52.6899 74.9726 52.6899ZM67.5019 85.3829C64.4122 83.7703 51.0663 76.1358 51.0663 64.6431C51.0663 59.6999 55.088 55.6782 60.0312 55.6782C62.4591 55.6782 64.7331 56.6349 66.4347 58.3719C66.7156 58.6587 67.1003 58.8205 67.5019 58.8205C67.9035 58.8205 68.2882 58.6587 68.5691 58.3721C70.2708 56.6351 72.5449 55.6784 74.9726 55.6784C79.9158 55.6784 83.9374 59.7001 83.9374 64.6433C83.9374 76.1366 70.5898 83.7715 67.5019 85.3829Z" fill="white"/>
<path d="M101.066 97.9611C97.5909 96.554 94.7941 93.8359 93.279 90.4269C98.9101 84.1025 102 75.9997 102 67.5018C102 48.4796 86.5241 33.0037 67.5019 33.0037C48.4797 33.0037 33.004 48.4796 33.004 67.5018C33.004 86.524 48.4797 102 67.5019 102C73.0812 102 78.5904 100.644 83.5034 98.0693C86.6114 100.612 90.4862 102 94.5293 102C96.7875 102 98.987 101.573 101.066 100.731C101.631 100.503 102 99.9547 102 99.3459C102 98.7373 101.631 98.1894 101.066 97.9611ZM94.5293 99.0116C90.8788 99.0116 87.3939 97.6456 84.7164 95.1651C84.4333 94.9027 84.0687 94.7669 83.7006 94.7669C83.4492 94.7669 83.1962 94.8302 82.9665 94.9599C78.2709 97.6105 72.9233 99.0116 67.5019 99.0116C50.1274 99.0116 35.9923 84.8764 35.9923 67.5018C35.9923 50.1271 50.1274 35.9919 67.5019 35.9919C84.8766 35.9921 99.0117 50.1273 99.0117 67.5018C99.0117 75.5578 95.9715 83.2249 90.4511 89.0907C90.062 89.5043 89.9407 90.1027 90.1387 90.6349C91.3843 93.9883 93.6324 96.8583 96.5243 98.8751C95.8673 98.966 95.2015 99.0116 94.5293 99.0116Z" fill="white"/>
</svg>
