<svg width="88" height="82" viewBox="0 0 88 82" fill="none" xmlns="http://www.w3.org/2000/svg">
<path d="M85.4276 63.6832L85.427 63.6828L67.617 52.6154C67.6168 52.6153 67.6166 52.6152 67.6164 52.615C65.56 51.3479 62.8069 51.773 61.3009 53.565L56.1176 59.7749C56.1169 59.7757 56.1163 59.7765 56.1156 59.7773C55.2932 60.7854 53.8229 61.0639 52.6579 60.4617L85.4276 63.6832ZM85.4276 63.6832C87.5057 64.9707 88.1055 67.5246 86.8387 69.4858L86.8386 69.4859L82.36 76.422L82.3571 76.4266C81.0537 78.4945 78.9349 80.0205 76.4378 80.6732C74.2326 81.2286 71.9569 81.5055 69.672 81.4964H69.67C59.7298 81.4964 45.133 76.6297 25.422 58.264C0.639847 35.1689 -1.22337 19.6389 1.38005 10.7974C2.07407 8.49483 3.70088 6.52157 5.9319 5.29938L5.93191 5.2994L5.93589 5.29717L13.384 1.12812L13.3842 1.12805C15.5419 -0.0805932 18.3285 0.516346 19.704 2.44438L19.7045 2.44499L31.5814 19.0402C31.5816 19.0405 31.5817 19.0408 31.5819 19.041C32.9106 20.9161 32.4828 23.4312 30.5631 24.8333C30.5628 24.8335 30.5626 24.8337 30.5623 24.8339L23.9007 29.6636C23.9001 29.664 23.8994 29.6645 23.8988 29.6649C22.8182 30.4358 22.4927 31.8547 23.1748 32.9861C23.1753 32.987 23.1758 32.9878 23.1763 32.9887L23.714 33.9025C25.5194 36.9832 27.7735 40.8183 36.0142 48.4999C44.254 56.1806 48.3646 58.2754 51.6721 59.9553C51.6724 59.9554 51.6727 59.9556 51.673 59.9557L52.6565 60.4609L85.4276 63.6832ZM75.9188 79.009L75.9147 79.0101C66.6594 81.3779 50.7288 79.3454 26.8152 57.0622C2.90997 34.7869 0.693214 19.9155 3.25005 11.2363L3.25138 11.2318L3.25141 11.2318C3.82687 9.34435 5.15986 7.74741 6.95909 6.76665L14.4043 2.60468C14.4044 2.60459 14.4046 2.6045 14.4048 2.60441C14.4048 2.6044 14.4048 2.60438 14.4048 2.60437C15.6448 1.90953 17.2615 2.23602 18.0808 3.38401L75.9188 79.009ZM75.9188 79.009C77.9167 78.4801 79.6277 77.2493 80.6859 75.5629C80.6863 75.5623 80.6867 75.5616 80.6871 75.5609M75.9188 79.009L80.6871 75.5609M80.6871 75.5609L85.1516 68.6265C85.931 67.4215 85.5403 65.8696 84.3155 65.1114L80.6871 75.5609ZM24.5331 12.4106L18.0811 3.38438L84.3146 65.1108L66.5056 54.043L66.5037 54.0418C65.319 53.3129 63.7291 53.5444 62.8383 54.6019L62.8369 54.6036L57.6501 60.8169L57.6474 60.8202C56.252 62.5206 53.7048 63.0197 51.6781 61.9608L51.675 61.9592L50.7116 61.4646L50.7098 61.4636L50.6912 61.4542C47.2938 59.7275 43.0591 57.5752 34.6066 49.7004C26.1564 41.8277 23.848 37.8825 21.9975 34.72L21.9861 34.7006L21.9851 34.6988L21.4556 33.8024L21.4535 33.7989C20.3449 31.9564 20.8484 29.6269 22.6746 28.3257L22.6746 28.3257L22.6779 28.3233L29.3458 23.4902L29.3474 23.4891C30.485 22.6576 30.7627 21.1263 29.9499 19.981L29.9488 19.9795L24.5333 12.4108L24.5331 12.4106Z" fill="white" stroke="white"/>
<path d="M49.8646 13.1737H49.864C49.2964 13.1737 48.8976 12.7532 48.8976 12.3073C48.8976 11.8615 49.2963 11.441 49.8638 11.4409C65.0027 11.4565 77.2098 22.8802 77.2265 36.9041C77.2262 37.3499 76.8275 37.7701 76.2601 37.7701C75.6925 37.7701 75.2937 37.3496 75.2937 36.9037V36.9031C75.2779 23.7712 63.8684 13.1882 49.8646 13.1737Z" fill="white" stroke="white"/>
<path d="M49.8646 21.3725H49.864C49.2964 21.3725 48.8976 20.952 48.8976 20.5061C48.8976 20.0602 49.2963 19.6398 49.8638 19.6396C60.1452 19.6508 68.4159 27.4063 68.4278 36.9041C68.4275 37.3498 68.0288 37.77 67.4614 37.77C66.8939 37.77 66.495 37.3495 66.495 36.9036V36.903C66.4842 28.2973 59.0111 21.3825 49.8646 21.3725Z" fill="white" stroke="white"/>
<path d="M49.8646 29.5712H49.864C49.2964 29.5712 48.8976 29.1507 48.8976 28.7048C48.8976 28.259 49.2963 27.8385 49.8638 27.8384C55.2882 27.8442 59.6229 31.9322 59.6291 36.9041C59.6288 37.3497 59.23 37.77 58.6627 37.77C58.0952 37.77 57.6963 37.3494 57.6963 36.9036V36.9029C57.6909 32.8231 54.154 29.576 49.8646 29.5712Z" fill="white" stroke="white"/>
</svg>
