<svg width="94" height="94" viewBox="0 0 94 94" fill="none" xmlns="http://www.w3.org/2000/svg">
<path d="M0 77.3226C0 81.5025 3.40068 84.9032 7.58065 84.9032H27.2903V90.9677H21.2258V94H72.7742V90.9677H66.7097V84.9032H86.4194C90.5993 84.9032 94 81.5025 94 77.3226V72.7742H0V77.3226ZM63.6774 90.9677H30.3226V84.9032H63.6774V90.9677ZM3.03226 75.8064H90.9677V77.3226C90.9677 79.8302 88.927 81.8709 86.4194 81.8709H7.58065C5.07297 81.8709 3.03226 79.8302 3.03226 77.3226V75.8064Z" fill="white"/>
<path d="M86.4194 15.1614H65.1936V18.1936H86.4194C88.9271 18.1936 90.9678 20.2343 90.9678 22.742V69.742H94.0001V22.742C94.0001 18.5621 90.5994 15.1614 86.4194 15.1614Z" fill="white"/>
<path d="M3.03226 22.742C3.03226 20.2343 5.07297 18.1936 7.58065 18.1936H28.8065V15.1614H7.58065C3.40068 15.1614 0 18.5621 0 22.742V69.742H3.03226V22.742Z" fill="white"/>
<path d="M39.4193 28.2773V35.6821L43.8874 38.6613L39.4193 41.6405V46.295L43.8874 49.2742L39.4193 52.2534V58.0329L44.6257 66.7097H49.3758L54.5806 58.0329V28.2773C59.2806 25.568 62.1613 20.6254 62.1613 15.1613C62.1613 6.80135 55.3599 0 47 0C38.64 0 31.8387 6.80135 31.8387 15.1613C31.8387 20.6254 34.7193 25.568 39.4193 28.2773ZM47 3.03226C53.6876 3.03226 59.129 8.47365 59.129 15.1613C59.129 19.7855 56.547 23.9442 52.3898 26.0137L51.5484 26.4322V57.1929L47.658 63.6774H46.3435L42.4516 57.1929V53.8756L47 50.8434V47.705L42.4516 44.6727V43.2627L47 40.2305V37.0921L42.4516 34.0598V26.4322L41.6101 26.0137C37.4529 23.9442 34.8709 19.7855 34.8709 15.1613C34.8709 8.47365 40.3123 3.03226 47 3.03226Z" fill="white"/>
<path d="M47 15.1612C49.5077 15.1612 51.5484 13.1205 51.5484 10.6128C51.5484 8.10516 49.5077 6.06445 47 6.06445C44.4924 6.06445 42.4517 8.10516 42.4517 10.6128C42.4517 13.1205 44.4924 15.1612 47 15.1612ZM47 9.09671C47.837 9.09671 48.5162 9.77745 48.5162 10.6128C48.5162 11.4482 47.837 12.129 47 12.129C46.1631 12.129 45.4839 11.4482 45.4839 10.6128C45.4839 9.77745 46.1631 9.09671 47 9.09671Z" fill="white"/>
<path d="M64.0959 51.9972C63.5061 51.7167 62.8557 51.5484 62.1613 51.5484C59.6536 51.5484 57.6129 53.5891 57.6129 56.0968C57.6129 58.6045 59.6536 60.6452 62.1613 60.6452C64.669 60.6452 66.7097 58.6045 66.7097 56.0968C66.7097 55.3979 66.5384 54.7429 66.2564 54.1516C69.4857 49.9338 71.2581 44.7744 71.2581 39.4194C71.2581 33.2821 68.9611 27.4253 64.7903 22.9285L62.5661 24.9889C66.2169 28.9248 68.2258 34.0493 68.2258 39.4194C68.2258 43.9723 66.7703 48.3661 64.0959 51.9972ZM62.1613 57.6129C61.3244 57.6129 60.6452 56.9337 60.6452 56.0968C60.6452 55.2599 61.3244 54.5807 62.1613 54.5807C62.9982 54.5807 63.6774 55.2599 63.6774 56.0968C63.6774 56.9337 62.9982 57.6129 62.1613 57.6129Z" fill="white"/>
<path d="M22.7419 27.2903C22.7419 28.6821 23.3833 29.9148 24.3718 30.7486C23.3105 33.514 22.7419 36.4205 22.7419 39.4194C22.7419 48.4388 27.6997 56.6608 35.6791 60.8771L37.0951 58.1966C30.1118 54.5064 25.7742 47.3108 25.7742 39.4194C25.7742 36.7919 26.2715 34.2494 27.1994 31.8296C27.2312 31.8296 27.26 31.8387 27.2903 31.8387C29.798 31.8387 31.8387 29.798 31.8387 27.2903C31.8387 24.7827 29.798 22.7419 27.2903 22.7419C24.7827 22.7419 22.7419 24.7827 22.7419 27.2903ZM28.8065 27.2903C28.8065 28.1257 28.1272 28.8065 27.2903 28.8065C26.4534 28.8065 25.7742 28.1257 25.7742 27.2903C25.7742 26.4549 26.4534 25.7742 27.2903 25.7742C28.1272 25.7742 28.8065 26.4549 28.8065 27.2903Z" fill="white"/>
</svg>
