<svg width="171" height="163" viewBox="0 0 171 163" fill="none" xmlns="http://www.w3.org/2000/svg">
<path d="M7.76654 10.6643L29.4544 22.0135L51.1172 10.5975L72.8133 21.9466L94.4678 10.5307L116.164 21.8798L137.827 10.4639L159.523 21.813" stroke="#71C9BA" stroke-miterlimit="10"/>
<path d="M7.78323 22.9905L29.4794 34.3396L51.1338 22.9237L72.83 34.2728L94.4844 22.8568L116.181 34.206L137.843 22.79L159.548 34.1392" stroke="#71C9BA" stroke-miterlimit="10"/>
<path d="M7.79996 35.3252L29.4961 46.666L51.1506 35.2584L72.8467 46.5992L94.5095 35.1916L116.206 46.5407L137.868 35.1248L159.565 46.4739" stroke="#71C9BA" stroke-miterlimit="10"/>
<path d="M7.76654 46.574L29.4544 57.9231L51.1172 46.5072L72.8133 57.8563L94.4678 46.4403L116.164 57.7895L137.827 46.3735L159.523 57.7227" stroke="#71C9BA" stroke-miterlimit="10"/>
<path d="M7.78323 58.9001L29.4794 70.2493L51.1338 58.8333L72.83 70.1825L94.4844 58.7665L116.181 70.1157L137.843 58.6997L159.548 70.0489" stroke="#71C9BA" stroke-miterlimit="10"/>
<path d="M7.79996 71.2348L29.4961 82.5757L51.1506 71.168L72.8467 82.5088L94.5095 71.1012L116.206 82.4504L137.868 71.0344L159.565 82.3836" stroke="#71C9BA" stroke-miterlimit="10"/>
<path d="M7.76654 81.9787L29.4544 93.3279L51.1172 81.9119L72.8133 93.2611L94.4678 81.8451L116.164 93.1943L137.827 81.7783L159.523 93.1275" stroke="#71C9BA" stroke-miterlimit="10"/>
<path d="M7.78323 94.3049L29.4794 105.654L51.1338 94.2381L72.83 105.587L94.4844 94.1713L116.181 105.52L137.843 94.1045L159.548 105.454" stroke="#71C9BA" stroke-miterlimit="10"/>
<path d="M7.79996 106.64L29.4961 117.98L51.1506 106.573L72.8467 117.914L94.5095 106.506L116.206 117.855L137.868 106.439L159.565 117.788" stroke="#71C9BA" stroke-miterlimit="10"/>
</svg>
