<svg width="83" height="97" viewBox="0 0 83 97" fill="none" xmlns="http://www.w3.org/2000/svg">
<path d="M62.3543 58.9991C64.7112 57.8427 66.6778 55.9764 67.9981 53.5762C71.4317 47.3337 68.3991 41.71 68.3832 41.6299C67.4754 39.6734 66.8655 37.5631 66.5609 35.3546C66.7672 34.7582 66.8809 34.1188 66.8809 33.4531V27.9362C66.8809 27.0552 66.6834 26.2199 66.3324 25.4703L66.3322 24.8318C66.3322 20.0595 64.9746 15.4238 62.406 11.4261C61.9818 10.7659 61.1023 10.5743 60.4427 10.9987C59.7824 11.4227 59.5911 12.3019 60.0153 12.962C61.8838 15.8705 63.0266 19.1615 63.375 22.5883C62.6614 22.2765 61.8746 22.1024 61.0472 22.1024H58.7217C57.3783 14.8122 48.34 12.0163 43.1197 17.3164C39.7724 20.7152 35.7651 19.1895 30.7415 19.5646C27.892 19.5646 25.4575 21.3749 24.5275 23.9058H23.4527C21.9833 23.9058 20.6225 24.3767 19.51 25.1736L19.5102 24.8316C19.51 12.7064 29.3746 2.8418 41.5 2.8418C46.7291 2.8418 51.796 4.70848 55.7674 8.09798C56.3645 8.60723 57.2614 8.536 57.7706 7.9396C58.2799 7.34264 58.209 6.44576 57.6122 5.93632C53.1268 2.10823 47.4047 0 41.5 0C27.8077 0 16.6682 11.1395 16.6682 24.8312C16.6678 25.7757 16.6661 30.0797 16.6652 32.135C16.6631 37.6333 14.5863 41.6683 14.5522 41.7702C12.8096 45.5847 12.9737 49.8877 15.0022 53.576C16.3223 55.9762 18.2888 57.8427 20.646 58.9989C8.97434 62.7141 0.808716 73.6374 0.808716 86.1322V91.0908C0.808716 94.349 3.45954 96.9998 6.71795 96.9998H76.2821C79.5405 96.9998 82.1913 94.349 82.1913 91.0908V86.1322C82.1913 73.6378 74.0259 62.7143 62.3543 58.9991ZM58.8761 34.773C58.8763 34.7658 58.8763 34.7588 58.8763 34.7516V24.9443H61.047C62.6968 24.9443 64.0389 26.2864 64.0389 27.9362V33.4531C64.0389 35.1028 62.6968 36.4451 61.047 36.4451H58.769C58.8297 35.8932 58.8676 35.3358 58.8761 34.773ZM58.213 39.2869H60.0558V41.9078C60.0558 43.0599 59.1186 43.9971 57.9663 43.9971H56.0548C57.0151 42.5322 57.7392 40.9501 58.213 39.2869ZM26.9656 26.1822C26.9656 24.1005 28.6593 22.4066 30.7414 22.4066C35.3803 21.9866 40.7051 23.818 45.1441 19.3106C49.0528 15.3417 55.8446 18.0035 56.029 23.56C56.029 23.5625 56.0288 23.5649 56.0288 23.5676L56.0303 23.6119C56.0381 23.915 56.0313 22.1759 56.0345 34.7402C56.0193 35.6981 55.9104 36.6387 55.716 37.5547C55.7122 37.5714 55.7088 37.5883 55.7056 37.6053C55.3676 39.1702 54.7722 40.6608 53.934 42.0362C53.1448 41.3476 52.1143 40.9291 50.9871 40.9291H46.5472C44.0722 40.9291 42.0585 42.9428 42.0585 45.418C42.0585 46.8095 42.6949 48.0552 43.692 48.8791C42.9683 48.9895 42.2355 49.047 41.5 49.047C37.6168 49.047 33.9958 47.5253 31.2946 44.8612C28.851 42.4511 27.367 39.3193 27.0372 35.9415C27.036 35.9285 27.0353 35.9154 27.0338 35.9023C26.9972 35.5175 26.9718 35.1305 26.9656 34.7402V26.1822ZM52.6118 45.6768C52.4872 46.4622 51.807 47.0653 50.9871 47.0653C48.9453 47.0653 47.8473 47.0653 46.5472 47.0653C45.639 47.0653 44.9003 46.3264 44.9003 45.4182C44.9003 44.5099 45.639 43.7711 46.5472 43.7711H50.9871C51.807 43.7711 52.4872 44.3741 52.6118 45.1596C52.6442 45.3649 52.6334 45.4883 52.6118 45.6768ZM52.042 59.4413C49.6744 62.9036 45.7682 64.9968 41.5 64.9968C37.2316 64.9968 33.3253 62.9034 30.9577 59.4409C32.8854 58.4236 34.164 56.401 34.164 54.1315V50.2725C36.4333 51.3304 38.9252 51.8887 41.5 51.8887C44.0355 51.8887 46.5482 51.3287 48.836 50.2632V54.1315C48.836 56.4015 50.115 58.4245 52.042 59.4413ZM19.5075 30.6601C19.5263 28.5 21.288 26.7479 23.4525 26.7479H24.1238V34.6415H23.4525C22.3982 34.6415 21.4068 34.2308 20.6615 33.4851C19.9243 32.7477 19.5165 31.7696 19.5075 30.7282V30.6601ZM17.4921 52.2065C14.8464 47.3966 17.1867 42.8645 17.1945 42.8261C18.1808 40.701 18.8617 38.3881 19.2179 35.9995C20.4167 36.9602 21.8941 37.4831 23.4527 37.4831H24.3784C24.9888 41.0363 26.6848 44.3057 29.2992 46.8845C29.9352 47.5118 30.6123 48.0824 31.3226 48.5978V54.1315C31.3226 57.4573 27.5853 57.3471 27.1969 57.5354C26.918 57.5142 26.2051 57.5538 24.9905 57.3872C21.7942 56.9479 19.0614 55.0596 17.4921 52.2065ZM55.5525 94.1582H27.4475V82.9941C27.4475 82.2092 26.8115 81.5732 26.0266 81.5732C25.2417 81.5732 24.6057 82.2092 24.6057 82.9941V94.1582H16.5434V87.0511C16.5434 86.2662 15.9074 85.6302 15.1225 85.6302C14.3376 85.6302 13.7016 86.2662 13.7016 87.0511V94.1582H6.71795C5.02651 94.1582 3.65051 92.7822 3.65051 91.091V86.1324C3.65051 73.8647 12.394 63.2781 24.4403 60.96L26.6285 60.5388C25.3014 63.9516 24.6057 67.613 24.6057 71.273V76.3496C24.6057 77.1345 25.2417 77.7705 26.0266 77.7705C26.8115 77.7705 27.4475 77.1345 27.4475 76.3496V71.273C27.4475 68.0554 28.0432 64.8365 29.1795 61.8242C32.1073 65.5908 36.6089 67.8386 41.4998 67.8386C46.4377 67.8386 50.9785 65.5472 53.9039 61.7151C54.9853 64.663 55.5523 67.8104 55.5523 70.9438V94.1582H55.5525ZM55.8035 57.5356C55.7844 57.532 54.5126 57.288 54.2405 57.2347C52.7556 56.949 51.6778 55.6441 51.6778 54.1317V49.8538C53.3501 49.5945 54.7191 48.4083 55.2443 46.8391H57.9661C60.6854 46.8391 62.8974 44.627 62.8974 41.908V38.9845C63.3739 38.8246 63.8231 38.6052 64.2361 38.3345C64.8617 40.8923 65.6691 42.4752 65.8629 42.9513C67.2285 45.9403 67.0989 49.3139 65.5077 52.2068C63.9387 55.0598 61.2056 56.9479 58.0097 57.3874C56.7978 57.5536 56.0205 57.5187 55.8035 57.5356ZM79.3495 91.091C79.3495 92.7824 77.9733 94.1582 76.2821 94.1582H69.2985V87.0511C69.2985 86.2662 68.6625 85.6302 67.8776 85.6302C67.0927 85.6302 66.4567 86.2662 66.4567 87.0511V94.1582H58.3941V70.9438C58.3941 67.4177 57.7468 63.8749 56.5096 60.5655L58.5595 60.96C70.6059 63.2781 79.3493 73.8647 79.3493 86.1324V91.091H79.3495Z" fill="white"/>
</svg>
