<svg width="89" height="89" viewBox="0 0 89 89" fill="none" xmlns="http://www.w3.org/2000/svg">
<g clip-path="url(#clip0)">
<path d="M25.7339 41.1489H33.2012C33.9213 41.1489 34.5049 40.5652 34.5049 39.8452C34.5049 39.1252 33.9213 38.5415 33.2012 38.5415H25.7339C25.0137 38.5415 24.4302 39.1252 24.4302 39.8452C24.4302 40.5652 25.0137 41.1489 25.7339 41.1489Z" fill="white"/>
<path d="M25.7339 47.4673H56.0617C56.7818 47.4673 57.3654 46.8836 57.3654 46.1636C57.3654 45.4436 56.7818 44.8599 56.0617 44.8599H25.7339C25.0137 44.8599 24.4302 45.4436 24.4302 46.1636C24.4302 46.8836 25.0137 47.4673 25.7339 47.4673Z" fill="white"/>
<path d="M56.0617 51.1782H47.9766C47.2564 51.1782 46.6729 51.7619 46.6729 52.4819C46.6729 53.2019 47.2564 53.7856 47.9766 53.7856H56.0617C56.7818 53.7856 57.3654 53.2019 57.3654 52.4819C57.3654 51.7619 56.7817 51.1782 56.0617 51.1782Z" fill="white"/>
<path d="M85.3279 8.7529L68.453 0.319279C67.6014 -0.106426 66.5847 -0.106426 65.7331 0.319279L48.8579 8.7529C48.8577 8.7529 48.8577 8.7529 48.8577 8.7529C47.8203 9.27143 47.1757 10.314 47.1757 11.474V13.9001H28.8555C28.1353 13.9001 27.5518 14.4838 27.5518 15.2038C27.5518 15.9238 28.1353 16.5075 28.8555 16.5075H47.1759V20.4724C47.1759 22.3741 47.3185 24.1819 47.6037 25.9049H25.7339C25.0137 25.9049 24.4302 26.4886 24.4302 27.2086C24.4302 27.9286 25.0137 28.5123 25.7339 28.5123H48.1617C48.5034 29.7986 48.9356 31.034 49.4576 32.2232H25.7339C25.0137 32.2232 24.4302 32.8069 24.4302 33.5269C24.4302 34.2469 25.0137 34.8306 25.7339 34.8306H50.7905C51.2484 35.6088 51.7499 36.3658 52.2964 37.1029C52.6562 37.5882 53.0365 38.0671 53.4389 38.5415H38.416C37.6958 38.5415 37.1123 39.1252 37.1123 39.8452C37.1123 40.5652 37.6958 41.1489 38.416 41.1489H55.9261C58.384 43.462 61.4907 45.7394 65.5021 48.1942C65.9926 48.4944 66.5426 48.6444 67.0928 48.6444C67.643 48.6444 68.193 48.4944 68.6837 48.1942C68.817 48.1126 68.9477 48.0315 69.079 47.9504V79.6105H34.9687V77.1796C34.9687 76.4596 34.3851 75.8759 33.6649 75.8759C32.9448 75.8759 32.3612 76.4596 32.3612 77.1796V85.958C32.3612 86.1975 32.1664 86.3925 31.9267 86.3925H5.03198C4.79227 86.3925 4.59741 86.1975 4.59741 85.958V67.1798C4.59741 66.9403 4.79227 66.7453 5.03198 66.7453H31.9267C32.1664 66.7453 32.3612 66.9403 32.3612 67.1798V71.0957C32.3612 71.8157 32.9448 72.3994 33.6649 72.3994C34.3851 72.3994 34.9687 71.8157 34.9687 71.0957V67.1798C34.9687 66.9179 34.9318 66.6648 34.8692 66.4221H56.0617C56.7818 66.4221 57.3654 65.8384 57.3654 65.1184C57.3654 64.3984 56.7818 63.8147 56.0617 63.8147H30.7794V60.1038H56.0615C56.7817 60.1038 57.3652 59.5201 57.3652 58.8001C57.3652 58.0801 56.7817 57.4964 56.0615 57.4964H30.7248C30.6044 56.1901 30.2798 54.9423 29.7816 53.7855H43.2832C44.0034 53.7855 44.5869 53.2018 44.5869 52.4818C44.5869 51.7618 44.0034 51.1781 43.2832 51.1781H28.2528C26.0033 48.2364 22.46 46.334 18.4793 46.334C16.3977 46.334 14.4364 46.8555 12.7161 47.7721V16.5075H22.7715C23.4917 16.5075 24.0752 15.9238 24.0752 15.2038C24.0752 14.4838 23.4917 13.9001 22.7715 13.9001H12.2815C11.0833 13.9001 10.1086 14.8748 10.1086 16.073V49.6329C7.69364 51.8802 6.17924 55.083 6.17924 58.6341V64.1377H5.03198C3.35471 64.1377 1.98999 65.5024 1.98999 67.1797V85.958C1.98999 87.6352 3.35471 89 5.03198 89H31.9267C33.6039 89 34.9687 87.6352 34.9687 85.958V82.2177H69.5137C70.7119 82.2177 71.6865 81.243 71.6865 80.0449V46.2756C76.3271 43.1702 79.5399 40.2714 81.8894 37.1029C85.3348 32.4565 87.0098 27.0165 87.0098 20.4726V11.474C87.01 10.3142 86.3655 9.2716 85.3279 8.7529ZM22.9573 64.1378H14.0015V58.6343C14.0015 56.165 16.0104 54.1563 18.4795 54.1563C20.9486 54.1563 22.9575 56.165 22.9575 58.6343V64.1378H22.9573ZM8.78667 58.6343C8.78667 53.2896 13.135 48.9414 18.4795 48.9414C23.824 48.9414 28.1722 53.2896 28.1722 58.6343V64.1378H25.5649V58.6343C25.5649 54.7273 22.3865 51.5489 18.4795 51.5489C14.5725 51.5489 11.3941 54.7273 11.3941 58.6343V64.1378H8.78667V58.6343ZM84.4026 20.4726C84.4026 33.0014 77.8674 39.5175 67.3229 45.97C67.1828 46.0557 67.0024 46.0555 66.863 45.97C56.3184 39.5173 49.7832 33.0014 49.7832 20.4726V11.474C49.7832 11.3082 49.8753 11.1592 50.0236 11.0851L66.8986 2.65136C67.0201 2.59052 67.1653 2.59052 67.2871 2.65136L84.162 11.085C84.3103 11.159 84.4024 11.308 84.4024 11.4738V20.4726H84.4026Z" fill="white"/>
<path d="M67.0146 9.06152C59.7399 9.06152 53.8217 14.9799 53.8217 22.2544C53.8217 29.5289 59.74 35.4472 67.0146 35.4472C72.58 35.4472 77.5746 31.9255 79.4429 26.6837C79.6847 26.0056 79.3308 25.2597 78.6527 25.0179C77.9746 24.7761 77.2287 25.13 76.9869 25.8081C75.4876 30.0139 71.48 32.8397 67.0146 32.8397C61.1778 32.8397 56.4291 28.091 56.4291 22.2542C56.4291 16.4174 61.1778 11.6688 67.0146 11.6688C72.1536 11.6688 76.5353 15.3367 77.4329 20.3901C77.559 21.099 78.236 21.5723 78.9446 21.4457C79.6534 21.3199 80.1261 20.643 80.0002 19.9341C78.8811 13.6341 73.42 9.06152 67.0146 9.06152Z" fill="white"/>
<path d="M71.5367 18.6869L66.3999 23.8237L63.413 20.8366C62.9039 20.3275 62.0786 20.3273 61.5692 20.8366C61.0601 21.3458 61.0601 22.1713 61.5692 22.6803L65.4779 26.5891C65.7225 26.8337 66.054 26.971 66.3999 26.971C66.7458 26.971 67.0771 26.8337 67.3219 26.5891L73.3805 20.5305C73.8896 20.0214 73.8896 19.1959 73.3805 18.6869C72.8714 18.1779 72.046 18.1779 71.5367 18.6869Z" fill="white"/>
</g>
<defs>
<clipPath id="clip0">
<rect width="89" height="89" fill="white"/>
</clipPath>
</defs>
</svg>
