<svg width="83" height="83" viewBox="0 0 83 83" fill="none" xmlns="http://www.w3.org/2000/svg">
<g clip-path="url(#clip0)">
<path d="M11.3246 42.3674H55.7647C56.4363 42.3674 56.9804 41.8231 56.9804 41.1517C56.9804 40.4804 56.4363 39.9361 55.7647 39.9361H11.3246C10.6531 39.9361 10.1089 40.4804 10.1089 41.1517C10.1089 41.8231 10.6531 42.3674 11.3246 42.3674ZM80.1312 9.08266C79.7773 8.51194 79.0278 8.33623 78.4574 8.68991C77.8867 9.0436 77.711 9.79295 78.0645 10.3637C79.7002 13.0024 80.5648 16.0471 80.5648 19.1685C80.5648 28.3972 73.0567 35.9053 63.8278 35.9053C54.5989 35.9053 47.0908 28.3972 47.0908 19.1685C47.0908 9.93948 54.5989 2.43138 63.8278 2.43138C67.7587 2.43138 71.5786 3.82116 74.5837 6.3446C75.0982 6.77642 75.8649 6.70947 76.2964 6.19532C76.7282 5.68116 76.6614 4.9143 76.1473 4.48265C72.7048 1.59191 68.3297 0 63.8278 0C53.1476 0 44.503 8.77663 44.663 19.451H12.8718C5.77684 19.451 0.00491333 25.4565 0.00491333 32.8382V41.5868C0.00491333 42.2582 0.549056 42.8025 1.2206 42.8025C1.89215 42.8025 2.43629 42.2582 2.43629 41.5868V32.8382C2.43629 26.7972 7.11767 21.8824 12.8718 21.8824H44.8523C46.1747 31.1709 54.1794 38.3365 63.8276 38.3365C67.2586 38.3365 70.4815 37.4296 73.2705 35.844V59.1911C73.2705 65.2321 68.5891 70.1469 62.835 70.1469H49.2258C48.2488 70.1544 46.8109 70.481 46.1293 71.2752L38.6087 80.5001C38.1106 80.6996 37.6438 80.4409 37.6133 79.7428V73.3904C37.6133 71.6019 36.197 70.1469 34.4559 70.1469H12.8718C7.11767 70.1469 2.43629 65.2321 2.43629 59.1911V47.26C2.43629 46.5886 1.89215 46.0443 1.2206 46.0443C0.549056 46.0443 0.00491333 46.5886 0.00491333 47.26V59.1911C0.00491333 66.5728 5.77684 72.5783 12.8718 72.5783H34.4559C34.8563 72.5783 35.1819 72.9427 35.1819 73.3904V79.7428C35.1819 80.9706 35.8439 82.0792 36.9097 82.6358C37.9788 83.1942 39.5244 83.1564 40.3598 82.1999L47.8958 72.956C48.2992 72.7083 48.756 72.5781 49.2256 72.5781H62.8348C69.9298 72.5781 75.7017 66.5726 75.7017 59.191V34.2051C80.1417 30.6915 82.9958 25.2572 82.9958 19.1683C82.9961 15.5939 82.0053 12.1063 80.1312 9.08266ZM11.3246 32.6419H43.6078C44.2794 32.6419 44.8235 32.0976 44.8235 31.4262C44.8235 30.7548 44.2794 30.2105 43.6078 30.2105H11.3246C10.6531 30.2105 10.1089 30.7548 10.1089 31.4262C10.1089 32.0976 10.6531 32.6419 11.3246 32.6419ZM11.3246 52.0929H64.3825C65.054 52.0929 65.5982 51.5486 65.5982 50.8773C65.5982 50.2059 65.054 49.6616 64.3825 49.6616H11.3246C10.6531 49.6616 10.1089 50.2059 10.1089 50.8773C10.1089 51.5486 10.6531 52.0929 11.3246 52.0929ZM54.4741 18.7004V24.5795C54.4741 24.9623 54.3566 25.3295 54.1345 25.6413L53.1837 26.9758C52.7483 27.5869 52.6916 28.3807 53.0352 29.0474C53.3789 29.7141 54.0585 30.1284 54.8085 30.1284H59.1228C59.6638 32.2213 61.5681 33.7717 63.8276 33.7717C66.0872 33.7717 67.9915 32.2213 68.5325 30.1284H72.8468C73.5971 30.1284 74.2766 29.714 74.6202 29.0472C74.9638 28.3804 74.907 27.5864 74.4716 26.9758L73.5207 25.6412C73.2987 25.3295 73.1812 24.9623 73.1812 24.5795V18.7004C73.1812 15.2877 71.3432 12.2973 68.6058 10.6635C68.7003 10.2795 68.7496 9.8842 68.7496 9.48724C68.7496 6.77285 66.5412 4.56451 63.8268 4.56451C61.1132 4.56451 58.9057 6.77285 58.9057 9.48724C58.9057 9.88404 58.955 10.2794 59.0493 10.6634C56.3122 12.2971 54.4741 15.2875 54.4741 18.7004ZM63.8278 31.3405C62.9319 31.3405 62.1477 30.8526 61.7271 30.1285H65.9285C65.5079 30.8524 64.7237 31.3405 63.8278 31.3405ZM63.8272 6.99589C65.2748 6.99589 66.4242 8.24157 66.3101 9.6837C65.5191 9.46568 64.6872 9.34671 63.8278 9.34671C62.9684 9.34671 62.1367 9.46552 61.3457 9.68354C61.2316 8.23687 62.3738 6.99589 63.8272 6.99589ZM63.8278 11.7781C67.6447 11.7781 70.7501 14.8834 70.7501 18.7004V24.5795C70.7501 25.4711 71.0237 26.3262 71.5409 27.052L72.0005 27.697H55.6553L56.1148 27.052C56.6321 26.326 56.9055 25.471 56.9055 24.5795V18.7004C56.9055 14.8834 60.0109 11.7781 63.8278 11.7781ZM11.3246 61.8185H64.3825C65.054 61.8185 65.5982 61.2742 65.5982 60.6028C65.5982 59.9314 65.054 59.3871 64.3825 59.3871H11.3246C10.6531 59.3871 10.1089 59.9314 10.1089 60.6028C10.1089 61.2742 10.6531 61.8185 11.3246 61.8185Z" fill="white"/>
</g>
<defs>
<clipPath id="clip0">
<rect width="83" height="83" fill="white"/>
</clipPath>
</defs>
</svg>
