<svg width="89" height="89" viewBox="0 0 89 89" fill="none" xmlns="http://www.w3.org/2000/svg">
<path d="M12.9992 40.3281C12.7961 40.3283 12.5954 40.2841 12.4112 40.1984C12.227 40.1128 12.0639 39.9878 11.9332 39.8324C11.8024 39.6769 11.7074 39.4947 11.6546 39.2986C11.6019 39.1024 11.5928 38.8971 11.6279 38.6971C12.8237 31.9555 16.0613 25.744 20.9027 20.9026C25.7441 16.0612 31.9557 12.8237 38.6973 11.6278C39.0605 11.5641 39.4343 11.6473 39.7362 11.8592C40.0381 12.071 40.2435 12.3941 40.3073 12.7574C40.371 13.1207 40.2878 13.4944 40.0759 13.7963C39.8641 14.0982 39.541 14.3037 39.1777 14.3674C32.9988 15.4634 27.3055 18.4307 22.8681 22.8681C18.4308 27.3055 15.4634 32.9987 14.3674 39.1777C14.3109 39.4997 14.1428 39.7915 13.8926 40.0018C13.6424 40.2122 13.3261 40.3277 12.9992 40.3281Z" fill="white"/>
<path d="M50.0608 77.3933C49.7126 77.3934 49.377 77.2629 49.1204 77.0276C48.8638 76.7923 48.7047 76.4692 48.6748 76.1224C48.6448 75.7755 48.7461 75.4299 48.9585 75.1541C49.171 74.8782 49.4792 74.6921 49.8223 74.6325C56.0012 73.5366 61.6945 70.5692 66.1319 66.1318C70.5693 61.6944 73.5367 56.0012 74.6328 49.8222C74.6631 49.6413 74.729 49.4681 74.8266 49.3127C74.9241 49.1573 75.0515 49.0228 75.2013 48.9168C75.3511 48.8109 75.5205 48.7356 75.6995 48.6954C75.8785 48.6552 76.0637 48.6508 76.2445 48.6825C76.4252 48.7142 76.5979 48.7814 76.7525 48.8801C76.9072 48.9789 77.0408 49.1072 77.1456 49.2578C77.2504 49.4084 77.3244 49.5783 77.3633 49.7576C77.4022 49.9369 77.4052 50.1222 77.3721 50.3027C76.1763 57.0442 72.9387 63.2558 68.0973 68.0973C63.2559 72.9387 57.0443 76.1763 50.3027 77.3721C50.2228 77.3861 50.1419 77.3932 50.0608 77.3933Z" fill="white"/>
<path d="M12.5156 45.8906C13.2836 45.8906 13.9062 45.268 13.9062 44.5C13.9062 43.732 13.2836 43.1094 12.5156 43.1094C11.7476 43.1094 11.125 43.732 11.125 44.5C11.125 45.268 11.7476 45.8906 12.5156 45.8906Z" fill="white"/>
<path d="M44.5 13.9062C45.268 13.9062 45.8906 13.2836 45.8906 12.5156C45.8906 11.7476 45.268 11.125 44.5 11.125C43.732 11.125 43.1094 11.7476 43.1094 12.5156C43.1094 13.2836 43.732 13.9062 44.5 13.9062Z" fill="white"/>
<path d="M76.4844 45.8906C77.2524 45.8906 77.875 45.268 77.875 44.5C77.875 43.732 77.2524 43.1094 76.4844 43.1094C75.7164 43.1094 75.0938 43.732 75.0938 44.5C75.0938 45.268 75.7164 45.8906 76.4844 45.8906Z" fill="white"/>
<path d="M44.5 77.875C45.268 77.875 45.8906 77.2524 45.8906 76.4844C45.8906 75.7164 45.268 75.0938 44.5 75.0938C43.732 75.0938 43.1094 75.7164 43.1094 76.4844C43.1094 77.2524 43.732 77.875 44.5 77.875Z" fill="white"/>
<path d="M44.5 86.2188C36.2488 86.2188 28.1829 83.7721 21.3223 79.188C14.4616 74.6038 9.11441 68.0882 5.9568 60.4651C2.7992 52.842 1.97303 44.4537 3.58277 36.3611C5.19251 28.2684 9.16585 20.8348 15.0003 15.0004C22.8242 7.17658 33.4355 2.78123 44.5 2.78125C55.5645 2.78127 66.1758 7.17664 73.9996 15.0004C81.8234 22.8242 86.2187 33.4356 86.2187 44.5001C86.2187 55.5646 81.8233 66.1759 73.9995 73.9997C70.1346 77.8858 65.5373 80.9667 60.4737 83.0641C55.4101 85.1615 49.9808 86.2338 44.5 86.2188ZM44.5 5.56253C36.7989 5.56252 29.2707 7.84617 22.8675 12.1247C16.4643 16.4032 11.4735 22.4844 8.52644 29.5993C5.57935 36.7142 4.80826 44.5432 6.31067 52.0964C7.81309 59.6495 11.5215 66.5875 16.967 72.033C24.2692 79.3352 34.1732 83.4376 44.5 83.4376C54.8269 83.4376 64.7308 79.3352 72.033 72.033C79.3352 64.7308 83.4375 54.8269 83.4375 44.5C83.4375 34.1732 79.3352 24.2692 72.033 16.967C68.4257 13.34 64.1349 10.4645 59.4089 8.50693C54.6828 6.54935 49.6154 5.54857 44.5 5.56253Z" fill="white"/>
<path d="M52.1915 57.5013C54.4056 55.9205 55.625 53.7718 55.625 51.4531C55.625 49.1344 54.4056 46.9857 52.1915 45.4049C50.4553 44.1649 48.2561 43.3938 45.8906 43.1754V32.0678C49.779 32.5243 52.8438 34.8477 52.8438 37.5477C52.8438 37.9166 52.9903 38.2703 53.2511 38.5311C53.5118 38.7919 53.8656 38.9384 54.2344 38.9384C54.6032 38.9384 54.9569 38.7919 55.2177 38.5311C55.4785 38.2703 55.625 37.9166 55.625 37.5477C55.625 35.2291 54.4056 33.0804 52.1915 31.4996C50.4553 30.2595 48.2561 29.4884 45.8906 29.27V26.4219C45.8906 26.0531 45.7441 25.6993 45.4833 25.4386C45.2225 25.1778 44.8688 25.0312 44.5 25.0312C44.1312 25.0312 43.7775 25.1778 43.5167 25.4386C43.2559 25.6993 43.1094 26.0531 43.1094 26.4219V29.2692C40.7439 29.4875 38.5446 30.2586 36.8085 31.4987C34.5944 33.0795 33.375 35.2282 33.375 37.5469C33.375 39.8656 34.5944 42.0143 36.8085 43.5951C38.5446 44.8351 40.7439 45.6062 43.1094 45.8246V56.9322C39.221 56.4768 36.1562 54.1532 36.1562 51.4531C36.1562 51.0843 36.0097 50.7306 35.7489 50.4698C35.4882 50.209 35.1344 50.0625 34.7656 50.0625C34.3968 50.0625 34.0431 50.209 33.7823 50.4698C33.5215 50.7306 33.375 51.0843 33.375 51.4531C33.375 53.7718 34.5944 55.9205 36.8085 57.5013C38.5446 58.7414 40.7439 59.5125 43.1094 59.7308V62.5781C43.1094 62.9469 43.2559 63.3007 43.5167 63.5614C43.7775 63.8222 44.1312 63.9688 44.5 63.9688C44.8688 63.9688 45.2225 63.8222 45.4833 63.5614C45.7441 63.3007 45.8906 62.9469 45.8906 62.5781V59.7308C48.2561 59.5125 50.4553 58.7414 52.1915 57.5013ZM52.8438 51.4531C52.8438 54.1532 49.779 56.4768 45.8906 56.9331V45.9732C49.779 46.4295 52.8438 48.7531 52.8438 51.4531ZM36.1562 37.5469C36.1562 34.8468 39.221 32.5232 43.1094 32.0669V43.0268C39.221 42.5705 36.1562 40.2469 36.1562 37.5469Z" fill="white"/>
</svg>
