<svg width="78" height="78" viewBox="0 0 78 78" fill="none" xmlns="http://www.w3.org/2000/svg">
<path d="M23.1034 33.5484L23.1005 33.5981C22.9084 36.9641 24.7938 40.1174 27.9053 41.6292L27.9372 41.6448C29.0342 42.1695 29.9333 43.0346 30.5006 44.1103L30.5133 44.1337C32.0811 47.1189 35.3238 48.9285 38.7806 48.747L38.833 48.7442C40.0867 48.674 41.3311 48.9973 42.3919 49.6695C45.3191 51.5004 49.0347 51.5004 51.9618 49.6695C53.0226 48.9973 54.267 48.674 55.5207 48.7442L55.5732 48.747C59.0243 48.9299 62.2712 47.1189 63.8425 44.1287L63.8503 44.1124C64.4197 43.0339 65.321 42.1674 66.4215 41.6419L66.447 41.6292C69.5585 40.1167 71.4446 36.9641 71.2518 33.5974L71.2489 33.5506C71.1851 32.365 71.5141 31.1914 72.1864 30.2122C74.1215 27.39 74.1215 23.6687 72.1871 20.8458C71.5156 19.8673 71.1851 18.6945 71.2489 17.5089L71.2518 17.4592C71.4446 14.0925 69.5585 10.9399 66.4442 9.42671L66.4158 9.41253C65.321 8.88923 64.424 8.02839 63.856 6.95555L63.8397 6.92364C62.2712 3.93838 59.0243 2.1295 55.5732 2.31032L55.52 2.31315C54.267 2.38335 53.0226 2.06001 51.9625 1.38779H51.9611C49.034 -0.443067 45.3183 -0.443067 42.3912 1.38779C41.3304 2.0593 40.086 2.38264 38.8323 2.31244L38.7799 2.30961C35.328 2.12666 32.0818 3.93767 30.514 6.92222L30.502 6.9442C29.934 8.02201 29.0342 8.88781 27.9358 9.41324L27.906 9.42742C24.7945 10.9392 22.9084 14.0925 23.1012 17.4592L23.1041 17.5061C23.1679 18.6916 22.8389 19.8652 22.1667 20.8437C20.2316 23.6666 20.2316 27.3886 22.1667 30.2108C22.8382 31.1893 23.1679 32.3628 23.1034 33.5484ZM24.557 22.4931C25.5944 20.9827 26.1028 19.1717 26.0035 17.3423L26.0007 17.2926C25.8986 15.0618 27.1508 12.9899 29.1724 12.0418L29.1973 12.0298C30.8558 11.2356 32.2137 9.92804 33.0703 8.30139L33.0845 8.27445C34.1261 6.29042 36.308 5.08781 38.6253 5.21119L38.6763 5.21332C40.5306 5.31755 42.3707 4.83963 43.9392 3.84549C45.9196 2.60672 48.4327 2.60672 50.4131 3.84549C51.9816 4.83821 53.8217 5.31685 55.6753 5.21403L55.7263 5.21119C58.055 5.08923 60.2262 6.29042 61.265 8.26877L61.2841 8.30494C62.1407 9.92946 63.4972 11.2349 65.1536 12.0284L65.1777 12.0404C67.2313 13.0388 68.4778 15.1001 68.3523 17.2933L68.3495 17.3451C68.2502 19.1745 68.7593 20.9848 69.7967 22.4952C71.0504 24.3239 71.0497 26.7348 69.7953 28.5628C68.7586 30.0739 68.2502 31.8849 68.3495 33.7144L68.3523 33.7633C68.4778 35.9565 67.2313 38.0185 65.177 39.0176L65.1558 39.0275C63.4958 39.8231 62.1365 41.1321 61.2792 42.7616L61.2685 42.7829C60.2262 44.7669 58.0479 45.9702 55.727 45.8461L55.6767 45.8433C53.8224 45.7398 51.9816 46.2184 50.4124 47.2118C48.4327 48.4499 45.9196 48.4499 43.9399 47.2118C42.5132 46.3077 40.8582 45.8284 39.1691 45.8298C39.0053 45.8298 38.8408 45.8341 38.6763 45.8433L38.6253 45.8454C36.3385 45.9908 34.175 44.7938 33.0823 42.7793L33.0674 42.7517C32.2123 41.1279 30.8565 39.8231 29.2008 39.0297L29.1739 39.0162C27.1196 38.0178 25.8731 35.9558 25.9993 33.7633L26.0021 33.7115C26.1007 31.8821 25.5915 30.0711 24.5549 28.5614C23.3019 26.7327 23.3026 24.3218 24.557 22.4945V22.4931Z" fill="white"/>
<path d="M37.8062 40.5417C38.4862 40.9664 39.3818 40.7587 39.8065 40.0786L57.0097 12.5193C57.2905 12.0789 57.3139 11.5216 57.0699 11.06C56.826 10.5976 56.3523 10.3027 55.8304 10.2864C55.3086 10.27 54.8179 10.5352 54.5456 10.9813L37.3431 38.5406C36.9184 39.2214 37.1254 40.1169 37.8062 40.5417Z" fill="white"/>
<path d="M39.3478 25.6005C42.884 25.6005 45.7615 22.3195 45.7615 18.2869C45.7615 14.2544 42.884 10.9741 39.3478 10.9741C35.8116 10.9741 32.9348 14.2544 32.9348 18.2869C32.9348 22.3195 35.8116 25.6005 39.3478 25.6005ZM39.3478 13.8785C41.2829 13.8785 42.8571 15.8562 42.8571 18.2869C42.8571 20.7177 41.2829 22.696 39.3478 22.696C37.4134 22.696 35.8392 20.717 35.8392 18.2869C35.8392 15.8569 37.4134 13.8785 39.3478 13.8785Z" fill="white"/>
<path d="M48.5913 32.7718C48.5913 36.8044 51.4681 40.0846 55.0043 40.0846C58.5405 40.0846 61.418 36.8037 61.418 32.7718C61.418 28.7406 58.5412 25.459 55.005 25.459C51.4681 25.459 48.5913 28.7385 48.5913 32.7718ZM58.5136 32.7718C58.5136 35.2025 56.9394 37.1802 55.0043 37.1802C53.0699 37.1802 51.4957 35.2025 51.4957 32.7718C51.4957 30.341 53.0699 28.3634 55.0043 28.3634C56.9394 28.3634 58.5136 30.3396 58.5136 32.7718Z" fill="white"/>
<path d="M77.8115 56.8861C75.8884 53.4733 71.624 52.1735 68.1247 53.9335L56.7488 59.3083C55.1781 56.3876 52.1652 54.5284 48.8495 54.4348L38.348 54.1455C36.6852 54.098 35.0536 53.6761 33.5751 52.9131L32.5065 52.3593C27.0352 49.5073 20.5137 49.5144 15.0481 52.3777L15.1147 49.9569C15.1367 49.1549 14.5049 48.487 13.703 48.465L2.18738 48.148C1.3854 48.126 0.718152 48.7578 0.696171 49.5598L0.000556634 74.831C-0.0214251 75.6329 0.610371 76.3009 1.41235 76.3229L12.9279 76.6398H12.9683C13.7547 76.6391 14.3979 76.013 14.4198 75.2273L14.4525 74.0183L17.4441 72.4165C18.6183 71.7847 19.9918 71.6344 21.2746 71.9974L39.1386 77.0114C39.1698 77.0206 39.201 77.0277 39.2329 77.0348C40.5242 77.305 41.8402 77.4404 43.1598 77.4397C45.9536 77.4411 48.7148 76.8391 51.2541 75.6733C51.3165 75.645 51.3767 75.6124 51.4342 75.5755L77.3357 58.8205C77.9817 58.4035 78.1901 57.5548 77.8115 56.8861ZM2.94398 73.4589L3.55946 51.0921L12.172 51.329L11.5558 73.6964L2.94398 73.4589ZM49.9451 73.0781C46.7904 74.5019 43.2669 74.8948 39.8761 74.2013L22.0595 69.2015C20.055 68.6342 17.9078 68.8697 16.0734 69.856L14.5446 70.6743L14.9545 55.8026C19.7983 52.5805 26.0113 52.2494 31.1706 54.9375L32.2392 55.4913C34.1069 56.4557 36.1675 56.9882 38.2686 57.0485L48.7701 57.3378C51.7199 57.4222 54.2251 59.5225 54.8236 62.4127L39.1811 61.9823C38.3792 61.9603 37.7119 62.5921 37.6899 63.3941C37.668 64.1961 38.2998 64.864 39.1017 64.886L56.3644 65.3611H56.4056C57.1912 65.3604 57.8344 64.7343 57.8564 63.9486C57.8741 63.3175 57.8266 62.6857 57.716 62.0646L69.3819 56.5514L69.4159 56.5351C71.0709 55.697 73.0727 55.977 74.4334 57.2371L49.9451 73.0781Z" fill="white"/>
</svg>
