<svg width="279" height="68" viewBox="0 0 279 68" fill="none" xmlns="http://www.w3.org/2000/svg">
<path d="M111.696 45L108.456 40.32H108.264H104.88V45H100.992V28.2H108.264C109.752 28.2 111.04 28.448 112.128 28.944C113.232 29.44 114.08 30.144 114.672 31.056C115.264 31.968 115.56 33.048 115.56 34.296C115.56 35.544 115.256 36.624 114.648 37.536C114.056 38.432 113.208 39.12 112.104 39.6L115.872 45H111.696ZM111.624 34.296C111.624 33.352 111.32 32.632 110.712 32.136C110.104 31.624 109.216 31.368 108.048 31.368H104.88V37.224H108.048C109.216 37.224 110.104 36.968 110.712 36.456C111.32 35.944 111.624 35.224 111.624 34.296ZM126.776 45.288C125.032 45.288 123.456 44.912 122.048 44.16C120.656 43.408 119.56 42.376 118.76 41.064C117.976 39.736 117.584 38.248 117.584 36.6C117.584 34.952 117.976 33.472 118.76 32.16C119.56 30.832 120.656 29.792 122.048 29.04C123.456 28.288 125.032 27.912 126.776 27.912C128.52 27.912 130.088 28.288 131.48 29.04C132.872 29.792 133.968 30.832 134.768 32.16C135.568 33.472 135.968 34.952 135.968 36.6C135.968 38.248 135.568 39.736 134.768 41.064C133.968 42.376 132.872 43.408 131.48 44.16C130.088 44.912 128.52 45.288 126.776 45.288ZM126.776 41.976C127.768 41.976 128.664 41.752 129.464 41.304C130.264 40.84 130.888 40.2 131.336 39.384C131.8 38.568 132.032 37.64 132.032 36.6C132.032 35.56 131.8 34.632 131.336 33.816C130.888 33 130.264 32.368 129.464 31.92C128.664 31.456 127.768 31.224 126.776 31.224C125.784 31.224 124.888 31.456 124.088 31.92C123.288 32.368 122.656 33 122.192 33.816C121.744 34.632 121.52 35.56 121.52 36.6C121.52 37.64 121.744 38.568 122.192 39.384C122.656 40.2 123.288 40.84 124.088 41.304C124.888 41.752 125.784 41.976 126.776 41.976ZM151.226 36.264C152.186 36.568 152.938 37.08 153.482 37.8C154.026 38.504 154.298 39.376 154.298 40.416C154.298 41.888 153.722 43.024 152.57 43.824C151.434 44.608 149.77 45 147.578 45H138.89V28.2H147.098C149.146 28.2 150.714 28.592 151.802 29.376C152.906 30.16 153.458 31.224 153.458 32.568C153.458 33.384 153.258 34.112 152.858 34.752C152.474 35.392 151.93 35.896 151.226 36.264ZM142.754 31.128V35.088H146.618C147.578 35.088 148.306 34.92 148.802 34.584C149.298 34.248 149.546 33.752 149.546 33.096C149.546 32.44 149.298 31.952 148.802 31.632C148.306 31.296 147.578 31.128 146.618 31.128H142.754ZM147.29 42.072C148.314 42.072 149.082 41.904 149.594 41.568C150.122 41.232 150.386 40.712 150.386 40.008C150.386 38.616 149.354 37.92 147.29 37.92H142.754V42.072H147.29ZM165.378 45.288C163.634 45.288 162.058 44.912 160.65 44.16C159.258 43.408 158.162 42.376 157.362 41.064C156.578 39.736 156.186 38.248 156.186 36.6C156.186 34.952 156.578 33.472 157.362 32.16C158.162 30.832 159.258 29.792 160.65 29.04C162.058 28.288 163.634 27.912 165.378 27.912C167.122 27.912 168.69 28.288 170.082 29.04C171.474 29.792 172.57 30.832 173.37 32.16C174.17 33.472 174.57 34.952 174.57 36.6C174.57 38.248 174.17 39.736 173.37 41.064C172.57 42.376 171.474 43.408 170.082 44.16C168.69 44.912 167.122 45.288 165.378 45.288ZM165.378 41.976C166.37 41.976 167.266 41.752 168.066 41.304C168.866 40.84 169.49 40.2 169.938 39.384C170.402 38.568 170.634 37.64 170.634 36.6C170.634 35.56 170.402 34.632 169.938 33.816C169.49 33 168.866 32.368 168.066 31.92C167.266 31.456 166.37 31.224 165.378 31.224C164.386 31.224 163.49 31.456 162.69 31.92C161.89 32.368 161.258 33 160.794 33.816C160.346 34.632 160.122 35.56 160.122 36.6C160.122 37.64 160.346 38.568 160.794 39.384C161.258 40.2 161.89 40.84 162.69 41.304C163.49 41.752 164.386 41.976 165.378 41.976ZM247.527 45.192C246.871 45.192 246.319 44.968 245.871 44.52C245.423 44.072 245.199 43.512 245.199 42.84C245.199 42.152 245.423 41.6 245.871 41.184C246.319 40.752 246.871 40.536 247.527 40.536C248.183 40.536 248.735 40.752 249.183 41.184C249.631 41.6 249.855 42.152 249.855 42.84C249.855 43.512 249.631 44.072 249.183 44.52C248.735 44.968 248.183 45.192 247.527 45.192ZM252.656 28.2H256.544V45H252.656V28.2ZM268.667 45.288C266.923 45.288 265.347 44.912 263.939 44.16C262.547 43.408 261.451 42.376 260.651 41.064C259.867 39.736 259.475 38.248 259.475 36.6C259.475 34.952 259.867 33.472 260.651 32.16C261.451 30.832 262.547 29.792 263.939 29.04C265.347 28.288 266.923 27.912 268.667 27.912C270.411 27.912 271.979 28.288 273.371 29.04C274.763 29.792 275.859 30.832 276.659 32.16C277.459 33.472 277.859 34.952 277.859 36.6C277.859 38.248 277.459 39.736 276.659 41.064C275.859 42.376 274.763 43.408 273.371 44.16C271.979 44.912 270.411 45.288 268.667 45.288ZM268.667 41.976C269.659 41.976 270.555 41.752 271.355 41.304C272.155 40.84 272.779 40.2 273.227 39.384C273.691 38.568 273.923 37.64 273.923 36.6C273.923 35.56 273.691 34.632 273.227 33.816C272.779 33 272.155 32.368 271.355 31.92C270.555 31.456 269.659 31.224 268.667 31.224C267.675 31.224 266.779 31.456 265.979 31.92C265.179 32.368 264.547 33 264.083 33.816C263.635 34.632 263.411 35.56 263.411 36.6C263.411 37.64 263.635 38.568 264.083 39.384C264.547 40.2 265.179 40.84 265.979 41.304C266.779 41.752 267.675 41.976 268.667 41.976Z" fill="#71C9BA"/>
<path d="M180.972 31.368H175.596V28.2H190.236V31.368H184.86V45H180.972V31.368ZM199.511 45.288C197.111 45.288 195.239 44.624 193.895 43.296C192.567 41.968 191.903 40.072 191.903 37.608V28.2H195.791V37.464C195.791 40.472 197.039 41.976 199.535 41.976C200.751 41.976 201.679 41.616 202.319 40.896C202.959 40.16 203.279 39.016 203.279 37.464V28.2H207.119V37.608C207.119 40.072 206.447 41.968 205.103 43.296C203.775 44.624 201.911 45.288 199.511 45.288ZM221.665 45L218.425 40.32H218.233H214.849V45H210.961V28.2H218.233C219.721 28.2 221.009 28.448 222.097 28.944C223.201 29.44 224.049 30.144 224.641 31.056C225.233 31.968 225.529 33.048 225.529 34.296C225.529 35.544 225.225 36.624 224.617 37.536C224.025 38.432 223.177 39.12 222.073 39.6L225.841 45H221.665ZM221.593 34.296C221.593 33.352 221.289 32.632 220.681 32.136C220.073 31.624 219.185 31.368 218.017 31.368H214.849V37.224H218.017C219.185 37.224 220.073 36.968 220.681 36.456C221.289 35.944 221.593 35.224 221.593 34.296ZM234.729 38.4L232.473 40.752V45H228.609V28.2H232.473V36.048L239.913 28.2H244.233L237.273 35.688L244.641 45H240.105L234.729 38.4Z" fill="#FF9900"/>
<g clip-path="url(#clip0)">
<path d="M64.06 21.92C70.113 21.92 75.02 17.013 75.02 10.96C75.02 4.90696 70.113 0 64.06 0C58.007 0 53.1 4.90696 53.1 10.96C53.1 17.013 58.007 21.92 64.06 21.92Z" fill="#FF9B44"/>
<path d="M64.06 27.92C59.85 27.92 56 26.38 53.04 23.83V45.26H39.67C33.21 45.26 27.97 40.02 27.97 33.56C27.97 27.1 33.21 21.86 39.67 21.86H51.06C48.58 18.91 47.09 15.11 47.09 10.96C47.09 6.78 48.61 2.96 51.11 0H33.56C15.02 0 0 15.02 0 33.56C0 52.09 15.02 67.12 33.56 67.12H50.33L53.1 65.32L55.87 67.12H74.76H74.88V24.01C71.95 26.45 68.17 27.92 64.06 27.92Z" fill="#71C9BA"/>
</g>
<defs>
<clipPath id="clip0">
<rect width="75.01" height="67.11" fill="white"/>
</clipPath>
</defs>
</svg>
