<svg width="279" height="68" fill="none" xmlns="http://www.w3.org/2000/svg"><path d="M111.696 45l-3.24-4.68h-3.576V45h-3.888V28.2h7.272c1.488 0 2.776.248 3.864.744 1.104.496 1.952 1.2 2.544 2.112.592.912.888 1.992.888 3.24 0 1.248-.304 2.328-.912 3.24-.592.896-1.44 1.584-2.544 2.064l3.768 5.4h-4.176zm-.072-10.704c0-.944-.304-1.664-.912-2.16-.608-.512-1.496-.768-2.664-.768h-3.168v5.856h3.168c1.168 0 2.056-.256 2.664-.768.608-.512.912-1.232.912-2.16zm15.152 10.992c-1.744 0-3.32-.376-4.728-1.128-1.392-.752-2.488-1.784-3.288-3.096-.784-1.328-1.176-2.816-1.176-4.464 0-1.648.392-3.128 1.176-4.44a8.452 8.452 0 013.288-3.12c1.408-.752 2.984-1.128 4.728-1.128 1.744 0 3.312.376 4.704 1.128a8.452 8.452 0 013.288 3.12c.8 1.312 1.2 2.792 1.2 4.44 0 1.648-.4 3.136-1.2 4.464-.8 1.312-1.896 2.344-3.288 3.096-1.392.752-2.96 1.128-4.704 1.128zm0-3.312c.992 0 1.888-.224 2.688-.672a4.909 4.909 0 001.872-1.92c.464-.816.696-1.744.696-2.784 0-1.04-.232-1.968-.696-2.784a4.744 4.744 0 00-1.872-1.896c-.8-.464-1.696-.696-2.688-.696-.992 0-1.888.232-2.688.696a4.907 4.907 0 00-1.896 1.896c-.448.816-.672 1.744-.672 2.784 0 1.04.224 1.968.672 2.784a5.08 5.08 0 001.896 1.92c.8.448 1.696.672 2.688.672zm24.45-5.712c.96.304 1.712.816 2.256 1.536.544.704.816 1.576.816 2.616 0 1.472-.576 2.608-1.728 3.408-1.136.784-2.8 1.176-4.992 1.176h-8.688V28.2h8.208c2.048 0 3.616.392 4.704 1.176 1.104.784 1.656 1.848 1.656 3.192 0 .816-.2 1.544-.6 2.184-.384.64-.928 1.144-1.632 1.512zm-8.472-5.136v3.96h3.864c.96 0 1.688-.168 2.184-.504.496-.336.744-.832.744-1.488s-.248-1.144-.744-1.464c-.496-.336-1.224-.504-2.184-.504h-3.864zm4.536 10.944c1.024 0 1.792-.168 2.304-.504.528-.336.792-.856.792-1.56 0-1.392-1.032-2.088-3.096-2.088h-4.536v4.152h4.536zm18.088 3.216c-1.744 0-3.32-.376-4.728-1.128-1.392-.752-2.488-1.784-3.288-3.096-.784-1.328-1.176-2.816-1.176-4.464 0-1.648.392-3.128 1.176-4.44a8.452 8.452 0 013.288-3.12c1.408-.752 2.984-1.128 4.728-1.128 1.744 0 3.312.376 4.704 1.128a8.452 8.452 0 013.288 3.12c.8 1.312 1.2 2.792 1.2 4.44 0 1.648-.4 3.136-1.2 4.464-.8 1.312-1.896 2.344-3.288 3.096-1.392.752-2.96 1.128-4.704 1.128zm0-3.312c.992 0 1.888-.224 2.688-.672a4.909 4.909 0 001.872-1.92c.464-.816.696-1.744.696-2.784 0-1.04-.232-1.968-.696-2.784a4.744 4.744 0 00-1.872-1.896c-.8-.464-1.696-.696-2.688-.696-.992 0-1.888.232-2.688.696a4.907 4.907 0 00-1.896 1.896c-.448.816-.672 1.744-.672 2.784 0 1.04.224 1.968.672 2.784a5.08 5.08 0 001.896 1.92c.8.448 1.696.672 2.688.672zm82.149 3.216c-.656 0-1.208-.224-1.656-.672-.448-.448-.672-1.008-.672-1.68 0-.688.224-1.24.672-1.656.448-.432 1-.648 1.656-.648.656 0 1.208.216 1.656.648.448.416.672.968.672 1.656 0 .672-.224 1.232-.672 1.68-.448.448-1 .672-1.656.672zm5.129-16.992h3.888V45h-3.888V28.2zm16.011 17.088c-1.744 0-3.32-.376-4.728-1.128-1.392-.752-2.488-1.784-3.288-3.096-.784-1.328-1.176-2.816-1.176-4.464 0-1.648.392-3.128 1.176-4.44a8.452 8.452 0 013.288-3.12c1.408-.752 2.984-1.128 4.728-1.128 1.744 0 3.312.376 4.704 1.128a8.452 8.452 0 013.288 3.12c.8 1.312 1.2 2.792 1.2 4.44 0 1.648-.4 3.136-1.2 4.464-.8 1.312-1.896 2.344-3.288 3.096-1.392.752-2.96 1.128-4.704 1.128zm0-3.312c.992 0 1.888-.224 2.688-.672a4.909 4.909 0 001.872-1.92c.464-.816.696-1.744.696-2.784 0-1.04-.232-1.968-.696-2.784a4.744 4.744 0 00-1.872-1.896c-.8-.464-1.696-.696-2.688-.696-.992 0-1.888.232-2.688.696a4.907 4.907 0 00-1.896 1.896c-.448.816-.672 1.744-.672 2.784 0 1.04.224 1.968.672 2.784a5.08 5.08 0 001.896 1.92c.8.448 1.696.672 2.688.672z" fill="#71C9BA"/><path d="M180.972 31.368h-5.376V28.2h14.64v3.168h-5.376V45h-3.888V31.368zm18.539 13.92c-2.4 0-4.272-.664-5.616-1.992-1.328-1.328-1.992-3.224-1.992-5.688V28.2h3.888v9.264c0 3.008 1.248 4.512 3.744 4.512 1.216 0 2.144-.36 2.784-1.08.64-.736.96-1.88.96-3.432V28.2h3.84v9.408c0 2.464-.672 4.36-2.016 5.688-1.328 1.328-3.192 1.992-5.592 1.992zM221.665 45l-3.24-4.68h-3.576V45h-3.888V28.2h7.272c1.488 0 2.776.248 3.864.744 1.104.496 1.952 1.2 2.544 2.112.592.912.888 1.992.888 3.24 0 1.248-.304 2.328-.912 3.24-.592.896-1.44 1.584-2.544 2.064l3.768 5.4h-4.176zm-.072-10.704c0-.944-.304-1.664-.912-2.16-.608-.512-1.496-.768-2.664-.768h-3.168v5.856h3.168c1.168 0 2.056-.256 2.664-.768.608-.512.912-1.232.912-2.16zm13.136 4.104l-2.256 2.352V45h-3.864V28.2h3.864v7.848l7.44-7.848h4.32l-6.96 7.488L244.641 45h-4.536l-5.376-6.6z" fill="#F90"/><g clip-path="url(#clip0)"><path d="M64.06 21.92c6.053 0 10.96-4.907 10.96-10.96C75.02 4.907 70.113 0 64.06 0 58.007 0 53.1 4.907 53.1 10.96c0 6.053 4.907 10.96 10.96 10.96z" fill="#FF9B44"/><path d="M64.06 27.92c-4.21 0-8.06-1.54-11.02-4.09v21.43H39.67c-6.46 0-11.7-5.24-11.7-11.7 0-6.46 5.24-11.7 11.7-11.7h11.39a16.875 16.875 0 01-3.97-10.9c0-4.18 1.52-8 4.02-10.96H33.56C15.02 0 0 15.02 0 33.56c0 18.53 15.02 33.56 33.56 33.56h16.77l2.77-1.8 2.77 1.8h19.01V24.01a16.867 16.867 0 01-10.82 3.91z" fill="#71C9BA"/></g><defs><clipPath id="clip0"><path fill="#fff" d="M0 0h75.01v67.11H0z"/></clipPath></defs></svg>